{
.appVersion = "3146";
.formatVersion = 3;
customParameters = (
{
name = vendorID;
value = NONE;
},
{
name = panose;
value = (
0,
0,
0,
0,
0,
0,
0,
0,
0,
0
);
},
{
name = unicodeRanges;
value = (
0,
1,
2,
3,
5,
6,
29,
31,
32,
33,
35,
38,
45,
62
);
},
{
name = codePageRanges;
value = (
"1252",
"1250",
"1254",
"1257"
);
},
{
name = fsType;
value = (
);
},
{
name = blueScale;
value = 0.04167;
},
{
name = glyphOrder;
value = (
.notdef,
A,
Aacute,
Abreve,
uni01CD,
Acircumflex,
Adieresis,
Agrave,
Amacron,
Aogonek,
Aring,
Aringacute,
Atilde,
AE,
B,
C,
Cacute,
Ccaron,
Ccedilla,
Cdotaccent,
D,
Eth,
Dcaron,
Dcroat,
E,
Eacute,
Ecaron,
Ecircumflex,
Edieresis,
Edotaccent,
Egrave,
Emacron,
Eogonek,
F,
uni0191,
G,
Gbreve,
uni0122,
Gdotaccent,
H,
Hbar,
I,
Iacute,
uni01CF,
Icircumflex,
Idieresis,
Idotaccent,
Igrave,
Imacron,
Iogonek,
J,
K,
uni0136,
L,
Lacute,
Lcaron,
uni013B,
Ldot,
Lslash,
M,
N,
Nacute,
Ncaron,
uni0145,
Ntilde,
Eng,
O,
Oacute,
uni01D1,
Ocircumflex,
Odieresis,
Ograve,
Ohungarumlaut,
Omacron,
Oslash,
Otilde,
OE,
P,
Thorn,
Q,
R,
Racute,
Rcaron,
uni0156,
S,
Sacute,
Scaron,
Scedilla,
uni0218,
T,
Tbar,
Tcaron,
uni0162,
uni021A,
U,
Uacute,
uni01D3,
Ucircumflex,
Udieresis,
uni01D7,
uni01D9,
uni01DB,
uni01D5,
Ugrave,
Uhungarumlaut,
Umacron,
Uogonek,
Uring,
Utilde,
V,
W,
Wacute,
Wcircumflex,
Wdieresis,
Wgrave,
X,
Y,
Yacute,
Ycircumflex,
Ydieresis,
Ygrave,
uni1EF8,
Z,
Zacute,
Zcaron,
Zdotaccent,
a,
aacute,
abreve,
uni01CE,
acircumflex,
adieresis,
agrave,
amacron,
aogonek,
aring,
atilde,
ae,
b,
c,
cacute,
ccaron,
ccedilla,
cdotaccent,
d,
eth,
dcaron,
dcroat,
e,
eacute,
ecaron,
ecircumflex,
edieresis,
edotaccent,
egrave,
emacron,
eogonek,
f,
g,
gbreve,
uni0123,
gdotaccent,
h,
hbar,
hcircumflex,
i,
dotlessi,
iacute,
uni01D0,
icircumflex,
idieresis,
i.loclTRK,
igrave,
imacron,
iogonek,
j,
uni0237,
k,
uni0137,
l,
lacute,
lcaron,
uni013C,
ldot,
lslash,
m,
n,
nacute,
ncaron,
uni0146,
ntilde,
eng,
o,
oacute,
uni01D2,
ocircumflex,
odieresis,
ograve,
ohungarumlaut,
omacron,
oslash,

glyphs = (
{
glyphname = .notdef;
lastChange = "2022-11-17 08:20:49 +0000";
layers = (
{
layerId = m01;
shapes = (
{
closed = 1;
nodes = (
(0,0,l),
(710,0,l),
(710,710,l),
(0,710,l)
);
},
{
closed = 1;
nodes = (
(355,389,l),
(78,665,l),
(631,665,l)
);
},
{
closed = 1;
nodes = (
(665,79,l),
(387,357,l),
(665,635,l)
);
},
{
closed = 1;
nodes = (
(45,80,l),
(45,634,l),
(322,357,l)
);
},
{
closed = 1;
nodes = (
(74,45,l),
(355,325,l),
(635,45,l)
);
}
);
width = 710;
}
);
note = ".notdef";
},
{
glyphname = A;
kernLeft = A;
kernRight = A;
lastChange = "2022-11-17 08:20:49 +0000";
layers = (
{
layerId = m01;
shapes = (
{
closed = 1;
nodes = (
(0,-3,l),
(121,0,l),
(248,-3,l),
(248,22,l),
(228,24,ls),
(177,28,o),
(157,41,o),
(157,66,cs),
(157,81,o),
(164,100,o),
(174,124,cs),
(228,254,l),
(510,254,l),
(562,124,ls),
(571,102,o),
(576,84,o),
(576,70,cs),
(576,43,o),
(558,29,o),
(511,24,cs),
(491,22,l),
(491,-3,l),
(651,0,l),
(775,-3,l),
(775,22,l),
(755,24,ls),
(701,29,o),
(675,58,o),
(649,123,cs),
(413,710,l),
(379,710,l),
(137,123,ls),
(107,50,o),
(78,32,o),
(9,23,cs),
(0,22,l)
);
},
{
closed = 1;
nodes = (
(241,286,l),
(372,603,l),
(498,286,l)
);
}
);
width = 775;
}
);
note = A;
unicode = 65;
},
{
glyphname = Aacute;
kernLeft = A;
kernRight = A;
lastChange = "2022-11-17 08:20:49 +0000";
layers = (
{
layerId = m01;
shapes = (
{
closed = 1;
nodes = (
(384,760,l),
(396,760,l),
(491,940,l),
(410,940,l)
);
},
{
closed = 1;
nodes = (
(0,-3,l),
(121,0,l),
(248,-3,l),
(248,22,l),
(228,24,ls),
(177,28,o),
(157,41,o),
(157,66,cs),
(157,81,o),
(164,100,o),
(174,124,cs),
(228,254,l),
(510,254,l),
(562,124,ls),
(571,102,o),
(576,84,o),
(576,70,cs),
(576,43,o),
(558,29,o),
(511,24,cs),
(491,22,l),
(491,-3,l),
(651,0,l),
(775,-3,l),
(775,22,l),
(755,24,ls),
(701,29,o),
(675,58,o),
(649,123,cs),
(413,710,l),
(379,710,l),
(137,123,ls),
(107,50,o),
(78,32,o),
(9,23,cs),
(0,22,l)
);
},
{
closed = 1;
nodes = (
(241,286,l),
(372,603,l),
(498,286,l)
);
}
);
width = 775;
}
);
note = Aacute;
unicode = 193;
},
{
glyphname = Abreve;
kernLeft = A;
kernRight = A;
lastChange = "2022-11-17 08:20:49 +0000";
layers = (
{
layerId = m01;
shapes = (
{
closed = 1;
nodes = (
(457,788,o),
(491,839,o),
(491,904,cs),
(491,937,l),
(466,937,l),
(466,932,ls),
(466,866,o),
(438,848,o),
(390,848,cs),
(342,848,o),
(314,866,o),
(314,932,cs),
(314,937,l),
(289,937,l),
(289,904,ls),
(289,839,o),
(323,788,o),
(390,788,cs)
);
},
{
closed = 1;
nodes = (
(0,-3,l),
(121,0,l),
(248,-3,l),
(248,22,l),
(228,24,ls),
(177,28,o),
(157,41,o),
(157,66,cs),
(157,81,o),
(164,100,o),
(174,124,cs),
(228,254,l),
(510,254,l),
(562,124,ls),
(571,102,o),
(576,84,o),
(576,70,cs),
(576,43,o),
(558,29,o),
(511,24,cs),
(491,22,l),
(491,-3,l),
(651,0,l),
(775,-3,l),
(775,22,l),
(755,24,ls),
(701,29,o),
(675,58,o),
(649,123,cs),
(413,710,l),
(379,710,l),
(137,123,ls),
(107,50,o),
(78,32,o),
(9,23,cs),
(0,22,l)
);
},
{
closed = 1;
nodes = (
(241,286,l),
(372,603,l),
(498,286,l)
);
}
);
width = 775;
}
);
note = Abreve;
unicode = 258;
},
{
glyphname = uni01CD;
kernLeft = A;
kernRight = A;
lastChange = "2022-11-17 08:20:49 +0000";
layers = (
{
layerId = m01;
shapes = (
{
closed = 1;
nodes = (
(285,940,l),
(379,760,l),
(401,760,l),
(495,940,l),
(471,940,l),
(393,847,l),
(387,847,l),
(309,940,l)
);
},
{
closed = 1;
nodes = (
(0,-3,l),
(121,0,l),
(248,-3,l),
(248,22,l),
(228,24,ls),
(177,28,o),
(157,41,o),
(157,66,cs),
(157,81,o),
(164,100,o),
(174,124,cs),
(228,254,l),
(510,254,l),
(562,124,ls),
(571,102,o),
(576,84,o),
(576,70,cs),
(576,43,o),
(558,29,o),
(511,24,cs),
(491,22,l),
(491,-3,l),
(651,0,l),
(775,-3,l),
(775,22,l),
(755,24,ls),
(701,29,o),
(675,58,o),
(649,123,cs),
(413,710,l),
(379,710,l),
(137,123,ls),
(107,50,o),
(78,32,o),
(9,23,cs),
(0,22,l)
);
},
{
closed = 1;
nodes = (
(241,286,l),
(372,603,l),
(498,286,l)
);
}
);
width = 775;
}
);
note = uni01CD;
unicode = 461;
},
{
glyphname = Acircumflex;
kernLeft = A;
kernRight = A;
lastChange = "2022-11-17 08:20:49 +0000";
layers = (
{
layerId = m01;
shapes = (
{
closed = 1;
nodes = (
(283,761,l),
(307,761,l),
(385,853,l),
(391,853,l),
(469,761,l),
(493,761,l),
(399,940,l),
(377,940,l)
);
},
{
closed = 1;
nodes = (
(0,-3,l),
(121,0,l),
(248,-3,l),
(248,22,l),
(228,24,ls),
(177,28,o),
(157,41,o),
(157,66,cs),
(157,81,o),
(164,100,o),
(174,124,cs),
(228,254,l),
(510,254,l),
(562,124,ls),
(571,102,o),
(576,84,o),
(576,70,cs),
(576,43,o),
(558,29,o),
(511,24,cs),
(491,22,l),
(491,-3,l),
(651,0,l),
(775,-3,l),
(775,22,l),
(755,24,ls),
(701,29,o),
(675,58,o),
(649,123,cs),
(413,710,l),
(379,710,l),
(137,123,ls),
(107,50,o),
(78,32,o),
(9,23,cs),
(0,22,l)
);
},
{
closed = 1;
nodes = (
(241,286,l),
(372,603,l),
(498,286,l)
);
}
);
width = 775;
}
);
note = Acircumflex;
unicode = 194;
},
{
glyphname = Adieresis;
kernLeft = A;
kernRight = A;
lastChange = "2022-11-17 08:20:49 +0000";
layers = (
{
layerId = m01;
shapes = (
{
closed = 1;
nodes = (
(332,822,o),
(348,847,o),
(348,879,cs),
(348,910,o),
(332,935,o),
(298,935,cs),
(266,935,o),
(247,910,o),
(247,879,cs),
(247,847,o),
(266,822,o),
(298,822,cs)
);
},
{
closed = 1;
nodes = (
(522,822,o),
(538,847,o),
(538,879,cs),
(538,910,o),
(522,935,o),
(488,935,cs),
(456,935,o),
(437,910,o),
(437,879,cs),
(437,847,o),
(456,822,o),
(488,822,cs)
);
},
{
closed = 1;
nodes = (
(0,-3,l),
(121,0,l),
(248,-3,l),
(248,22,l),
(228,24,ls),
(177,28,o),
(157,41,o),
(157,66,cs),
(157,81,o),
(164,100,o),
(174,124,cs),
(228,254,l),
(510,254,l),
(562,124,ls),
(571,102,o),
(576,84,o),
(576,70,cs),
(576,43,o),
(558,29,o),
(511,24,cs),
(491,22,l),
(491,-3,l),
(651,0,l),
(775,-3,l),
(775,22,l),
(755,24,ls),
(701,29,o),
(675,58,o),
(649,123,cs),
(413,710,l),
(379,710,l),
(137,123,ls),
(107,50,o),
(78,32,o),
(9,23,cs),
(0,22,l)
);
},
{
closed = 1;
nodes = (
(241,286,l),
(372,603,l),
(498,286,l)
);
}
);
width = 775;
}
);
note = Adieresis;
unicode = 196;
},
{
glyphname = Agrave;
kernLeft = A;
kernRight = A;
lastChange = "2022-11-17 08:20:49 +0000";
layers = (
{
layerId = m01;
shapes = (
{
closed = 1;
nodes = (
(395,760,l),
(369,940,l),
(288,940,l),
(383,760,l)
);
},
{
closed = 1;
nodes = (
(0,-3,l),
(121,0,l),
(248,-3,l),
(248,22,l),
(228,24,ls),
(177,28,o),
(157,41,o),
(157,66,cs),
(157,81,o),
(164,100,o),
(174,124,cs),
(228,254,l),
(510,254,l),
(562,124,ls),
(571,102,o),
(576,84,o),
(576,70,cs),
(576,43,o),
(558,29,o),
(511,24,cs),
(491,22,l),
(491,-3,l),
(651,0,l),
(775,-3,l),
(775,22,l),
(755,24,ls),
(701,29,o),
(675,58,o),
(649,123,cs),
(413,710,l),
(379,710,l),
(137,123,ls),
(107,50,o),
(78,32,o),
(9,23,cs),
(0,22,l)
);
},
{
closed = 1;
nodes = (
(241,286,l),
(372,603,l),
(498,286,l)
);
}
);
width = 775;
}
);
note = Agrave;
unicode = 192;
},
{
glyphname = Amacron;
kernLeft = A;
kernRight = A;
lastChange = "2022-11-17 08:20:49 +0000";
layers = (
{
layerId = m01;
shapes = (
{
closed = 1;
nodes = (
(272,834,l),
(499,834,l),
(499,874,l),
(272,874,l)
);
},
{
closed = 1;
nodes = (
(0,-3,l),
(121,0,l),
(248,-3,l),
(248,22,l),
(228,24,ls),
(177,28,o),
(157,41,o),
(157,66,cs),
(157,81,o),
(164,100,o),
(174,124,cs),
(228,254,l),
(510,254,l),
(562,124,ls),
(571,102,o),
(576,84,o),
(576,70,cs),
(576,43,o),
(558,29,o),
(511,24,cs),
(491,22,l),
(491,-3,l),
(651,0,l),
(775,-3,l),
(775,22,l),
(755,24,ls),
(701,29,o),
(675,58,o),
(649,123,cs),
(413,710,l),
(379,710,l),
(137,123,ls),
(107,50,o),
(78,32,o),
(9,23,cs),
(0,22,l)
);
},
{
closed = 1;
nodes = (
(241,286,l),
(372,603,l),
(498,286,l)
);
}
);
width = 775;
}
);
note = Amacron;
unicode = 256;
},
{
glyphname = Aogonek;
kernLeft = A;
kernRight = A;
lastChange = "2022-11-17 08:20:49 +0000";
layers = (
{
layerId = m01;
shapes = (
{
closed = 1;
nodes = (
(607,-294,o),
(648,-234,o),
(657,-183,c),
(640,-170,l),
(618,-211,o),
(581,-238,o),
(543,-238,cs),
(494,-238,o),
(469,-196,o),
(469,-150,cs),
(469,-58,o),
(547,0,o),
(643,0,cs),
(657,0,l),
(775,-3,l),
(775,22,l),
(755,24,ls),
(701,29,o),
(675,58,o),
(649,123,cs),
(410,717,l),
(382,717,l),
(137,123,ls),
(107,50,o),
(78,32,o),
(9,23,cs),
(0,22,l),
(0,-3,l),
(121,0,l),
(248,-3,l),
(248,22,l),
(228,24,ls),
(180,28,o),
(163,42,o),
(163,68,cs),
(163,82,o),
(169,101,o),
(178,124,cs),
(231,255,l),
(508,255,l),
(550,147,ls),
(559,125,o),
(562,106,o),
(562,89,cs),
(562,56,o),
(556,36,o),
(509,-16,cs),
(474,-54,o),
(414,-123,o),
(414,-191,cs),
(414,-255,o),
(468,-294,o),
(525,-294,cs)
);
},
{
closed = 1;
nodes = (
(244,286,l),
(373,604,l),
(496,286,l)
);
}
);
width = 775;
}
);
note = Aogonek;
unicode = 260;
},
{
glyphname = Aring;
kernLeft = A;
kernRight = A;
lastChange = "2022-11-17 08:20:49 +0000";
layers = (
{
layerId = m01;
shapes = (
{
closed = 1;
nodes = (
(431,766,o),
(474,792,o),
(474,851,cs),
(474,888,o),
(449,936,o),
(390,936,cs),
(335,936,o),
(305,893,o),
(305,851,cs),
(305,804,o),
(339,766,o),
(391,766,cs)
);
},
{
closed = 1;
nodes = (
(363,797,o),
(338,817,o),
(338,851,cs),
(338,889,o),
(367,905,o),
(390,905,cs),
(416,905,o),
(441,886,o),
(441,851,cs),
(441,815,o),
(416,797,o),
(391,797,cs)
);
},
{
closed = 1;
nodes = (
(0,-3,l),
(121,0,l),
(248,-3,l),
(248,22,l),
(228,24,ls),
(177,28,o),
(157,41,o),
(157,66,cs),
(157,81,o),
(164,100,o),
(174,124,cs),
(228,254,l),
(510,254,l),
(562,124,ls),
(571,102,o),
(576,84,o),
(576,70,cs),
(576,43,o),
(558,29,o),
(511,24,cs),
(491,22,l),
(491,-3,l),
(651,0,l),
(775,-3,l),
(775,22,l),
(755,24,ls),
(701,29,o),
(675,58,o),
(649,123,cs),
(413,710,l),
(379,710,l),
(137,123,ls),
(107,50,o),
(78,32,o),
(9,23,cs),
(0,22,l)
);
},
{
closed = 1;
nodes = (
(241,286,l),
(372,603,l),
(498,286,l)
);
}
);
width = 775;
}
);
note = Aring;
unicode = 197;
},
{
glyphname = Aringacute;
lastChange = "2022-11-17 08:20:49 +0000";
layers = (
{
layerId = m01;
shapes = (
{
closed = 1;
nodes = (
(386,958,l),
(398,958,l),
(493,1138,l),
(412,1138,l)
);
},
{
closed = 1;
nodes = (
(431,766,o),
(474,792,o),
(474,851,cs),
(474,888,o),
(449,936,o),
(390,936,cs),
(335,936,o),
(305,893,o),
(305,851,cs),
(305,804,o),
(339,766,o),
(391,766,cs)
);
},
{
closed = 1;
nodes = (
(363,797,o),
(338,817,o),
(338,851,cs),
(338,889,o),
(367,905,o),
(390,905,cs),
(416,905,o),
(441,886,o),
(441,851,cs),
(441,815,o),
(416,797,o),
(391,797,cs)
);
},
{
closed = 1;
nodes = (
(0,-3,l),
(121,0,l),
(248,-3,l),
(248,22,l),
(228,24,ls),
(177,28,o),
(157,41,o),
(157,66,cs),
(157,81,o),
(164,100,o),
(174,124,cs),
(228,254,l),
(510,254,l),
(562,124,ls),
(571,102,o),
(576,84,o),
(576,70,cs),
(576,43,o),
(558,29,o),
(511,24,cs),
(491,22,l),
(491,-3,l),
(651,0,l),
(775,-3,l),
(775,22,l),
(755,24,ls),
(701,29,o),
(675,58,o),
(649,123,cs),
(413,710,l),
(379,710,l),
(137,123,ls),
(107,50,o),
(78,32,o),
(9,23,cs),
(0,22,l)
);
},
{
closed = 1;
nodes = (
(241,286,l),
(372,603,l),
(498,286,l)
);
}
);
width = 775;
}
);
note = Aringacute;
unicode = (506,507);
},
{
glyphname = Atilde;
kernLeft = A;
kernRight = A;
lastChange = "2022-11-17 08:20:49 +0000";
layers = (
{
layerId = m01;
shapes = (
{
closed = 1;
nodes = (
(504,801,o),
(538,840,o),
(545,900,c),
(526,900,l),
(517,872,o),
(499,849,o),
(472,849,cs),
(454,849,o),
(431,862,o),
(421,868,cs),
(384,890,ls),
(371,898,o),
(342,916,o),
(317,916,cs),
(256,916,o),
(231,841,o),
(231,812,c),
(250,812,l),
(256,836,o),
(280,868,o),
(309,868,cs),
(327,868,o),
(346,857,o),
(370,842,cs),
(396,826,ls),
(413,816,o),
(439,801,o),
(464,801,cs)
);
},
{
closed = 1;
nodes = (
(0,-3,l),
(121,0,l),
(248,-3,l),
(248,22,l),
(228,24,ls),
(177,28,o),
(157,41,o),
(157,66,cs),
(157,81,o),
(164,100,o),
(174,124,cs),
(228,254,l),
(510,254,l),
(562,124,ls),
(571,102,o),
(576,84,o),
(576,70,cs),
(576,43,o),
(558,29,o),
(511,24,cs),
(491,22,l),
(491,-3,l),
(651,0,l),
(775,-3,l),
(775,22,l),
(755,24,ls),
(701,29,o),
(675,58,o),
(649,123,cs),
(413,710,l),
(379,710,l),
(137,123,ls),
(107,50,o),
(78,32,o),
(9,23,cs),
(0,22,l)
);
},
{
closed = 1;
nodes = (
(241,286,l),
(372,603,l),
(498,286,l)
);
}
);
width = 775;
}
);
note = Atilde;
unicode = 195;
},
{
glyphname = AE;
kernLeft = AE;
lastChange = "2022-11-17 08:20:49 +0000";
layers = (
{
layerId = m01;
shapes = (
{
closed = 1;
nodes = (
(0,-3,l),
(35,-1,o),
(84,0,o),
(132,0,cs),
(180,0,o),
(228,-1,o),
(259,-3,c),
(259,19,l),
(228,22,ls),
(199,25,o),
(174,37,o),
(174,67,cs),
(174,81,o),
(180,101,o),
(195,125,cs),
(306,310,l),
(519,310,l),
(519,199,ls),
(519,48,o),
(505,29,o),
(455,24,cs),
(383,17,l),
(383,-3,l),
(538,0,l),
(982,0,l),
(985,90,l),
(992,210,l),
(967,210,l),
(954,52,o),
(922,25,o),
(796,25,cs),
(703,25,ls),
(627,25,o),
(606,54,o),
(606,107,cs),
(606,362,l),
(716,362,ls),
(762,362,o),
(787,324,o),
(787,226,c),
(812,226,l),
(809,374,l),
(812,508,l),
(787,508,l),
(782,408,o),
(755,387,o),
(716,387,cs),
(606,387,l),
(606,683,l),
(736,683,ls),
(884,683,o),
(916,669,o),
(935,546,c),
(959,546,l),
(951,638,l),
(949,710,l),
(520,710,l),
(411,713,l),
(411,690,l),
(447,688,ls),
(470,687,o),
(479,679,o),
(479,667,cs),
(479,652,o),
(466,630,o),
(450,603,cs),
(161,123,ls),
(107,33,o),
(73,27,o),
(26,22,cs),
(0,19,l)
);
},
{
closed = 1;
nodes = (
(519,664,l),
(519,336,l),
(322,336,l)
);
}
);
width = 992;
}
);
note = AE;
unicode = 198;
},
{
glyphname = B;
kernLeft = B;
kernRight = B;
lastChange = "2022-11-17 08:20:49 +0000";
layers = (
{
layerId = m01;
shapes = (
{
closed = 1;
nodes = (
(0,-3,l),
(148,0,l),
(326,0,ls),
(451,0,o),
(586,46,o),
(586,202,cs),
(586,328,o),
(497,371,o),
(401,380,c),
(470,404,o),
(544,454,o),
(544,547,cs),
(544,707,o),
(361,710,o),
(270,710,cs),
(148,710,l),
(0,713,l),
(0,688,l),
(20,686,ls),
(89,678,o),
(106,676,o),
(106,577,cs),
(106,133,ls),
(106,34,o),
(89,32,o),
(20,24,cs),
(0,22,l)
);
},
{
closed = 1;
nodes = (
(300,682,ls),
(395,682,o),
(451,660,o),
(451,547,cs),
(451,440,o),
(402,387,o),
(320,387,cs),
(187,387,l),
(187,682,l)
);
},
{
closed = 1;
nodes = (
(270,28,ls),
(214,28,o),
(187,49,o),
(187,129,cs),
(187,359,l),
(280,359,ls),
(424,359,o),
(492,337,o),
(492,201,cs),
(492,60,o),
(426,28,o),
(326,28,cs)
);
}
);
width = 586;
}
);
note = B;
unicode = 66;
},
{
glyphname = C;
kernLeft = C;
lastChange = "2022-11-17 08:20:49 +0000";
layers = (
{
layerId = m01;
shapes = (
{
closed = 1;
nodes = (
(404,-11,o),
(460,16,o),
(495,33,cs),
(511,41,o),
(523,47,o),
(533,47,cs),
(550,47,o),
(556,28,o),
(561,11,cs),
(564,0,l),
(588,0,l),
(585,117,l),
(587,239,l),
(563,239,l),
(550,119,o),
(466,19,o),
(337,19,cs),
(163,19,o),
(102,145,o),
(102,355,cs),
(102,541,o),
(162,694,o),
(337,694,cs),
(462,694,o),
(540,614,o),
(560,476,c),
(585,476,l),
(583,593,l),
(585,710,l),
(560,710,l),
(557,682,o),
(547,672,o),
(533,672,cs),
(527,672,o),
(511,679,o),
(494,687,cs),
(467,700,o),
(415,724,o),
(334,724,cs),
(151,724,o),
(0,567,o),
(0,355,cs),
(0,141,o),
(124,-11,o),
(328,-11,cs)
);
}
);
width = 588;
}
);
note = C;
unicode = 67;
},
{
glyphname = Cacute;
kernLeft = C;
lastChange = "2022-11-17 08:20:49 +0000";
layers = (
{
layerId = m01;
shapes = (
{
closed = 1;
nodes = (
(327,760,l),
(339,760,l),
(434,940,l),
(353,940,l)
);
},
{
closed = 1;
nodes = (
(404,-11,o),
(460,16,o),
(495,33,cs),
(511,41,o),
(523,47,o),
(533,47,cs),
(550,47,o),
(556,28,o),
(561,11,cs),
(564,0,l),
(588,0,l),
(585,117,l),
(587,239,l),
(563,239,l),
(550,119,o),
(466,19,o),
(337,19,cs),
(163,19,o),
(102,145,o),
(102,355,cs),
(102,541,o),
(162,694,o),
(337,694,cs),
(462,694,o),
(540,614,o),
(560,476,c),
(585,476,l),
(583,593,l),
(585,710,l),
(560,710,l),
(557,682,o),
(547,672,o),
(533,672,cs),
(527,672,o),
(511,679,o),
(494,687,cs),
(467,700,o),
(415,724,o),
(334,724,cs),
(151,724,o),
(0,567,o),
(0,355,cs),
(0,141,o),
(124,-11,o),
(328,-11,cs)
);
}
);
width = 588;
}
);
note = Cacute;
unicode = 262;
},
{
glyphname = Ccaron;
kernLeft = C;
lastChange = "2022-11-17 08:20:49 +0000";
layers = (
{
layerId = m01;
shapes = (
{
closed = 1;
nodes = (
(228,940,l),
(322,760,l),
(344,760,l),
(438,940,l),
(414,940,l),
(336,847,l),
(330,847,l),
(252,940,l)
);
},
{
closed = 1;
nodes = (
(404,-11,o),
(460,16,o),
(495,33,cs),
(511,41,o),
(523,47,o),
(533,47,cs),
(550,47,o),
(556,28,o),
(561,11,cs),
(564,0,l),
(588,0,l),
(585,117,l),
(587,239,l),
(563,239,l),
(550,119,o),
(466,19,o),
(337,19,cs),
(163,19,o),
(102,145,o),
(102,355,cs),
(102,541,o),
(162,694,o),
(337,694,cs),
(462,694,o),
(540,614,o),
(560,476,c),
(585,476,l),
(583,593,l),
(585,710,l),
(560,710,l),
(557,682,o),
(547,672,o),
(533,672,cs),
(527,672,o),
(511,679,o),
(494,687,cs),
(467,700,o),
(415,724,o),
(334,724,cs),
(151,724,o),
(0,567,o),
(0,355,cs),
(0,141,o),
(124,-11,o),
(328,-11,cs)
);
}
);
width = 588;
}
);
note = Ccaron;
unicode = 268;
},
{
glyphname = Ccedilla;
kernLeft = C;
lastChange = "2022-11-17 08:20:49 +0000";
layers = (
{
layerId = m01;
shapes = (
{
closed = 1;
nodes = (
(345,-292,o),
(399,-243,o),
(399,-169,cs),
(399,-115,o),
(364,-72,o),
(315,-60,c),
(332,-11,l),
(404,-11,o),
(460,16,o),
(495,33,cs),
(511,41,o),
(523,47,o),
(533,47,cs),
(550,47,o),
(556,28,o),
(561,11,cs),
(564,0,l),
(588,0,l),
(585,117,l),
(587,239,l),
(563,239,l),
(550,119,o),
(466,19,o),
(337,19,cs),
(163,19,o),
(102,145,o),
(102,355,cs),
(102,541,o),
(162,694,o),
(337,694,cs),
(462,694,o),
(540,614,o),
(560,476,c),
(585,476,l),
(583,593,l),
(585,710,l),
(560,710,l),
(557,682,o),
(547,672,o),
(533,672,cs),
(527,672,o),
(511,679,o),
(494,687,cs),
(467,700,o),
(415,724,o),
(334,724,cs),
(151,724,o),
(0,567,o),
(0,355,cs),
(0,150,o),
(114,2,o),
(303,-10,c),
(287,-57,l),
(251,-57,o),
(217,-75,o),
(198,-109,c),
(218,-122,l),
(233,-99,o),
(257,-82,o),
(280,-82,cs),
(324,-82,o),
(348,-120,o),
(348,-166,cs),
(348,-214,o),
(324,-264,o),
(277,-264,cs),
(236,-264,o),
(208,-234,o),
(202,-203,c),
(180,-210,l),
(189,-249,o),
(223,-292,o),
(283,-292,cs)
);
}
);
width = 588;
}
);
note = Ccedilla;
unicode = 199;
},
{
glyphname = Cdotaccent;
kernLeft = C;
lastChange = "2022-11-17 08:20:49 +0000";
layers = (
{
layerId = m01;
shapes = (
{
closed = 1;
nodes = (
(370,794,o),
(388,821,o),
(388,855,cs),
(388,889,o),
(370,916,o),
(332,916,cs),
(297,916,o),
(276,889,o),
(276,855,cs),
(276,821,o),
(297,794,o),
(332,794,cs)
);
},
{
closed = 1;
nodes = (
(404,-11,o),
(460,16,o),
(495,33,cs),
(511,41,o),
(523,47,o),
(533,47,cs),
(550,47,o),
(556,28,o),
(561,11,cs),
(564,0,l),
(588,0,l),
(585,117,l),
(587,239,l),
(563,239,l),
(550,119,o),
(466,19,o),
(337,19,cs),
(163,19,o),
(102,145,o),
(102,355,cs),
(102,541,o),
(162,694,o),
(337,694,cs),
(462,694,o),
(540,614,o),
(560,476,c),
(585,476,l),
(583,593,l),
(585,710,l),
(560,710,l),
(557,682,o),
(547,672,o),
(533,672,cs),
(527,672,o),
(511,679,o),
(494,687,cs),
(467,700,o),
(415,724,o),
(334,724,cs),
(151,724,o),
(0,567,o),
(0,355,cs),
(0,141,o),
(124,-11,o),
(328,-11,cs)
);
}
);
width = 588;
}
);
note = Cdotaccent;
unicode = 266;
},
{
glyphname = D;
kernLeft = B;
kernRight = D;
lastChange = "2022-11-17 08:20:49 +0000";
layers = (
{
layerId = m01;
shapes = (
{
closed = 1;
nodes = (
(0,-3,l),
(148,0,l),
(340,0,ls),
(534,0,o),
(710,120,o),
(710,358,cs),
(710,607,o),
(559,710,o),
(290,710,cs),
(149,710,l),
(1,713,l),
(1,688,l),
(21,686,ls),
(90,678,o),
(107,676,o),
(107,577,cs),
(107,133,ls),
(107,34,o),
(89,32,o),
(20,24,cs),
(0,22,l)
);
},
{
closed = 1;
nodes = (
(259,30,ls),
(198,30,o),
(193,88,o),
(193,146,cs),
(193,680,l),
(319,680,ls),
(536,680,o),
(614,559,o),
(614,356,cs),
(614,133,o),
(507,30,o),
(344,30,cs)
);
}
);
width = 710;
}
);
note = D;
unicode = 68;
},
{
glyphname = Eth;
kernLeft = B;
kernRight = D;
lastChange = "2022-11-17 08:20:49 +0000";
layers = (
{
layerId = m01;
shapes = (
{
closed = 1;
nodes = (
(0,-3,l),
(148,0,l),
(340,0,ls),
(534,0,o),
(710,120,o),
(710,358,cs),
(710,607,o),
(559,710,o),
(290,710,cs),
(149,710,l),
(1,713,l),
(1,688,l),
(21,686,ls),
(90,678,o),
(107,676,o),
(107,577,cs),
(107,383,l),
(0,383,l),
(0,351,l),
(107,351,l),
(107,133,ls),
(107,34,o),
(89,32,o),
(20,24,cs),
(0,22,l)
);
},
{
closed = 1;
nodes = (
(259,30,ls),
(198,30,o),
(193,88,o),
(193,146,cs),
(193,351,l),
(378,351,l),
(378,383,l),
(193,383,l),
(193,680,l),
(319,680,ls),
(536,680,o),
(614,559,o),
(614,356,cs),
(614,133,o),
(507,30,o),
(344,30,cs)
);
}
);
width = 710;
}
);
note = Eth;
unicode = 208;
},
{
glyphname = Dcaron;
kernLeft = B;
kernRight = D;
lastChange = "2022-11-17 08:20:49 +0000";
layers = (
{
layerId = m01;
shapes = (
{
closed = 1;
nodes = (
(217,940,l),
(311,760,l),
(333,760,l),
(427,940,l),
(403,940,l),
(325,847,l),
(319,847,l),
(241,940,l)
);
},
{
closed = 1;
nodes = (
(0,-3,l),
(148,0,l),
(340,0,ls),
(534,0,o),
(710,120,o),
(710,358,cs),
(710,607,o),
(559,710,o),
(290,710,cs),
(149,710,l),
(1,713,l),
(1,688,l),
(21,686,ls),
(90,678,o),
(107,676,o),
(107,577,cs),
(107,133,ls),
(107,34,o),
(89,32,o),
(20,24,cs),
(0,22,l)
);
},
{
closed = 1;
nodes = (
(259,30,ls),
(198,30,o),
(193,88,o),
(193,146,cs),
(193,680,l),
(319,680,ls),
(536,680,o),
(614,559,o),
(614,356,cs),
(614,133,o),
(507,30,o),
(344,30,cs)
);
}
);
width = 710;
}
);
note = Dcaron;
unicode = 270;
},
{
glyphname = Dcroat;
kernLeft = B;
kernRight = D;
lastChange = "2022-11-17 08:20:49 +0000";
layers = (
{
layerId = m01;
shapes = (
{
closed = 1;
nodes = (
(0,-3,l),
(148,0,l),
(340,0,ls),
(534,0,o),
(710,120,o),
(710,358,cs),
(710,607,o),
(559,710,o),
(290,710,cs),
(149,710,l),
(1,713,l),
(1,688,l),
(21,686,ls),
(90,678,o),
(107,676,o),
(107,577,cs),
(107,383,l),
(0,383,l),
(0,351,l),
(107,351,l),
(107,133,ls),
(107,34,o),
(89,32,o),
(20,24,cs),
(0,22,l)
);
},
{
closed = 1;
nodes = (
(259,30,ls),
(198,30,o),
(193,88,o),
(193,146,cs),
(193,351,l),
(378,351,l),
(378,383,l),
(193,383,l),
(193,680,l),
(319,680,ls),
(536,680,o),
(614,559,o),
(614,356,cs),
(614,133,o),
(507,30,o),
(344,30,cs)
);
}
);
width = 710;
}
);
note = Dcroat;
unicode = 272;
},
{
glyphname = E;
kernLeft = B;
kernRight = E;
lastChange = "2022-11-17 08:20:49 +0000";
layers = (
{
layerId = m01;
shapes = (
{
closed = 1;
nodes = (
(0,-3,l),
(148,0,l),
(559,0,l),
(562,90,l),
(569,210,l),
(544,210,l),
(531,55,o),
(499,28,o),
(383,28,cs),
(290,28,ls),
(214,28,o),
(191,43,o),
(191,107,cs),
(191,360,l),
(303,360,ls),
(349,360,o),
(374,323,o),
(374,226,c),
(399,226,l),
(396,374,l),
(399,508,l),
(374,508,l),
(369,409,o),
(342,388,o),
(303,388,cs),
(191,388,l),
(191,681,l),
(323,681,ls),
(471,681,o),
(503,667,o),
(522,546,c),
(546,546,l),
(538,638,l),
(536,710,l),
(148,710,l),
(0,713,l),
(0,688,l),
(20,686,ls),
(89,678,o),
(106,676,o),
(106,577,cs),
(106,133,ls),
(106,34,o),
(89,32,o),
(20,24,cs),
(0,22,l)
);
}
);
width = 569;
}
);
note = E;
unicode = 69;
},
{
glyphname = Eacute;
kernLeft = B;
kernRight = E;
lastChange = "2022-11-17 08:20:49 +0000";
layers = (
{
layerId = m01;
shapes = (
{
closed = 1;
nodes = (
(318,760,l),
(330,760,l),
(425,940,l),
(344,940,l)
);
},
{
closed = 1;
nodes = (
(0,-3,l),
(148,0,l),
(559,0,l),
(562,90,l),
(569,210,l),
(544,210,l),
(531,55,o),
(499,28,o),
(383,28,cs),
(290,28,ls),
(214,28,o),
(191,43,o),
(191,107,cs),
(191,360,l),
(303,360,ls),
(349,360,o),
(374,323,o),
(374,226,c),
(399,226,l),
(396,374,l),
(399,508,l),
(374,508,l),
(369,409,o),
(342,388,o),
(303,388,cs),
(191,388,l),
(191,681,l),
(323,681,ls),
(471,681,o),
(503,667,o),
(522,546,c),
(546,546,l),
(538,638,l),
(536,710,l),
(148,710,l),
(0,713,l),
(0,688,l),
(20,686,ls),
(89,678,o),
(106,676,o),
(106,577,cs),
(106,133,ls),
(106,34,o),
(89,32,o),
(20,24,cs),
(0,22,l)
);
}
);
width = 569;
}
);
note = Eacute;
unicode = 201;
},
{
glyphname = Ecaron;
kernLeft = B;
kernRight = E;
lastChange = "2022-11-17 08:20:49 +0000";
layers = (
{
layerId = m01;
shapes = (
{
closed = 1;
nodes = (
(219,940,l),
(313,760,l),
(335,760,l),
(429,940,l),
(405,940,l),
(327,847,l),
(321,847,l),
(243,940,l)
);
},
{
closed = 1;
nodes = (
(0,-3,l),
(148,0,l),
(559,0,l),
(562,90,l),
(569,210,l),
(544,210,l),
(531,55,o),
(499,28,o),
(383,28,cs),
(290,28,ls),
(214,28,o),
(191,43,o),
(191,107,cs),
(191,360,l),
(303,360,ls),
(349,360,o),
(374,323,o),
(374,226,c),
(399,226,l),
(396,374,l),
(399,508,l),
(374,508,l),
(369,409,o),
(342,388,o),
(303,388,cs),
(191,388,l),
(191,681,l),
(323,681,ls),
(471,681,o),
(503,667,o),
(522,546,c),
(546,546,l),
(538,638,l),
(536,710,l),
(148,710,l),
(0,713,l),
(0,688,l),
(20,686,ls),
(89,678,o),
(106,676,o),
(106,577,cs),
(106,133,ls),
(106,34,o),
(89,32,o),
(20,24,cs),
(0,22,l)
);
}
);
width = 569;
}
);
note = Ecaron;
unicode = 282;
},
{
glyphname = Ecircumflex;
kernLeft = B;
kernRight = E;
lastChange = "2022-11-17 08:20:49 +0000";
layers = (
{
layerId = m01;
shapes = (
{
closed = 1;
nodes = (
(217,761,l),
(241,761,l),
(319,853,l),
(325,853,l),
(403,761,l),
(427,761,l),
(333,940,l),
(311,940,l)
);
},
{
closed = 1;
nodes = (
(0,-3,l),
(148,0,l),
(559,0,l),
(562,90,l),
(569,210,l),
(544,210,l),
(531,55,o),
(499,28,o),
(383,28,cs),
(290,28,ls),
(214,28,o),
(191,43,o),
(191,107,cs),
(191,360,l),
(303,360,ls),
(349,360,o),
(374,323,o),
(374,226,c),
(399,226,l),
(396,374,l),
(399,508,l),
(374,508,l),
(369,409,o),
(342,388,o),
(303,388,cs),
(191,388,l),
(191,681,l),
(323,681,ls),
(471,681,o),
(503,667,o),
(522,546,c),
(546,546,l),
(538,638,l),
(536,710,l),
(148,710,l),
(0,713,l),
(0,688,l),
(20,686,ls),
(89,678,o),
(106,676,o),
(106,577,cs),
(106,133,ls),
(106,34,o),
(89,32,o),
(20,24,cs),
(0,22,l)
);
}
);
width = 569;
}
);
note = Ecircumflex;
unicode = 202;
},
{
glyphname = Edieresis;
kernLeft = B;
kernRight = E;
lastChange = "2022-11-17 08:20:49 +0000";
layers = (
{
layerId = m01;
shapes = (
{
closed = 1;
nodes = (
(266,822,o),
(282,847,o),
(282,879,cs),
(282,910,o),
(266,935,o),
(232,935,cs),
(200,935,o),
(181,910,o),
(181,879,cs),
(181,847,o),
(200,822,o),
(232,822,cs)
);
},
{
closed = 1;
nodes = (
(456,822,o),
(472,847,o),
(472,879,cs),
(472,910,o),
(456,935,o),
(422,935,cs),
(390,935,o),
(371,910,o),
(371,879,cs),
(371,847,o),
(390,822,o),
(422,822,cs)
);
},
{
closed = 1;
nodes = (
(0,-3,l),
(148,0,l),
(559,0,l),
(562,90,l),
(569,210,l),
(544,210,l),
(531,55,o),
(499,28,o),
(383,28,cs),
(290,28,ls),
(214,28,o),
(191,43,o),
(191,107,cs),
(191,360,l),
(303,360,ls),
(349,360,o),
(374,323,o),
(374,226,c),
(399,226,l),
(396,374,l),
(399,508,l),
(374,508,l),
(369,409,o),
(342,388,o),
(303,388,cs),
(191,388,l),
(191,681,l),
(323,681,ls),
(471,681,o),
(503,667,o),
(522,546,c),
(546,546,l),
(538,638,l),
(536,710,l),
(148,710,l),
(0,713,l),
(0,688,l),
(20,686,ls),
(89,678,o),
(106,676,o),
(106,577,cs),
(106,133,ls),
(106,34,o),
(89,32,o),
(20,24,cs),
(0,22,l)
);
}
);
width = 569;
}
);
note = Edieresis;
unicode = 203;
},
{
glyphname = Edotaccent;
kernLeft = B;
kernRight = E;
lastChange = "2022-11-17 08:20:49 +0000";
layers = (
{
layerId = m01;
shapes = (
{
closed = 1;
nodes = (
(361,794,o),
(379,821,o),
(379,855,cs),
(379,889,o),
(361,916,o),
(323,916,cs),
(288,916,o),
(267,889,o),
(267,855,cs),
(267,821,o),
(288,794,o),
(323,794,cs)
);
},
{
closed = 1;
nodes = (
(0,-3,l),
(148,0,l),
(559,0,l),
(562,90,l),
(569,210,l),
(544,210,l),
(531,55,o),
(499,28,o),
(383,28,cs),
(290,28,ls),
(214,28,o),
(191,43,o),
(191,107,cs),
(191,360,l),
(303,360,ls),
(349,360,o),
(374,323,o),
(374,226,c),
(399,226,l),
(396,374,l),
(399,508,l),
(374,508,l),
(369,409,o),
(342,388,o),
(303,388,cs),
(191,388,l),
(191,681,l),
(323,681,ls),
(471,681,o),
(503,667,o),
(522,546,c),
(546,546,l),
(538,638,l),
(536,710,l),
(148,710,l),
(0,713,l),
(0,688,l),
(20,686,ls),
(89,678,o),
(106,676,o),
(106,577,cs),
(106,133,ls),
(106,34,o),
(89,32,o),
(20,24,cs),
(0,22,l)
);
}
);
width = 569;
}
);
note = Edotaccent;
unicode = 278;
},
{
glyphname = Egrave;
kernLeft = B;
kernRight = E;
lastChange = "2022-11-17 08:20:49 +0000";
layers = (
{
layerId = m01;
shapes = (
{
closed = 1;
nodes = (
(329,760,l),
(303,940,l),
(222,940,l),
(317,760,l)
);
},
{
closed = 1;
nodes = (
(0,-3,l),
(148,0,l),
(559,0,l),
(562,90,l),
(569,210,l),
(544,210,l),
(531,55,o),
(499,28,o),
(383,28,cs),
(290,28,ls),
(214,28,o),
(191,43,o),
(191,107,cs),
(191,360,l),
(303,360,ls),
(349,360,o),
(374,323,o),
(374,226,c),
(399,226,l),
(396,374,l),
(399,508,l),
(374,508,l),
(369,409,o),
(342,388,o),
(303,388,cs),
(191,388,l),
(191,681,l),
(323,681,ls),
(471,681,o),
(503,667,o),
(522,546,c),
(546,546,l),
(538,638,l),
(536,710,l),
(148,710,l),
(0,713,l),
(0,688,l),
(20,686,ls),
(89,678,o),
(106,676,o),
(106,577,cs),
(106,133,ls),
(106,34,o),
(89,32,o),
(20,24,cs),
(0,22,l)
);
}
);
width = 569;
}
);
note = Egrave;
unicode = 200;
},
{
glyphname = Emacron;
kernLeft = B;
kernRight = E;
lastChange = "2022-11-17 08:20:49 +0000";
layers = (
{
layerId = m01;
shapes = (
{
closed = 1;
nodes = (
(206,834,l),
(433,834,l),
(433,874,l),
(206,874,l)
);
},
{
closed = 1;
nodes = (
(0,-3,l),
(148,0,l),
(559,0,l),
(562,90,l),
(569,210,l),
(544,210,l),
(531,55,o),
(499,28,o),
(383,28,cs),
(290,28,ls),
(214,28,o),
(191,43,o),
(191,107,cs),
(191,360,l),
(303,360,ls),
(349,360,o),
(374,323,o),
(374,226,c),
(399,226,l),
(396,374,l),
(399,508,l),
(374,508,l),
(369,409,o),
(342,388,o),
(303,388,cs),
(191,388,l),
(191,681,l),
(323,681,ls),
(471,681,o),
(503,667,o),
(522,546,c),
(546,546,l),
(538,638,l),
(536,710,l),
(148,710,l),
(0,713,l),
(0,688,l),
(20,686,ls),
(89,678,o),
(106,676,o),
(106,577,cs),
(106,133,ls),
(106,34,o),
(89,32,o),
(20,24,cs),
(0,22,l)
);
}
);
width = 569;
}
);
note = Emacron;
unicode = 274;
},
{
glyphname = Eogonek;
kernLeft = B;
kernRight = E;
lastChange = "2022-11-17 08:20:49 +0000";
layers = (
{
layerId = m01;
shapes = (
{
closed = 1;
nodes = (
(0,-3,l),
(148,0,l),
(485,0,l),
(395,-50,o),
(346,-127,o),
(346,-191,cs),
(346,-250,o),
(393,-294,o),
(454,-294,cs),
(540,-294,o),
(577,-234,o),
(584,-183,c),
(567,-170,l),
(548,-212,o),
(512,-239,o),
(475,-239,cs),
(434,-239,o),
(399,-210,o),
(399,-154,cs),
(399,-69,o),
(487,0,o),
(559,0,c),
(562,90,l),
(569,210,l),
(544,210,l),
(531,55,o),
(499,28,o),
(383,28,cs),
(290,28,ls),
(214,28,o),
(191,43,o),
(191,107,cs),
(191,360,l),
(303,360,ls),
(349,360,o),
(374,323,o),
(374,226,c),
(399,226,l),
(396,374,l),
(399,508,l),
(374,508,l),
(369,409,o),
(342,388,o),
(303,388,cs),
(191,388,l),
(191,681,l),
(323,681,ls),
(471,681,o),
(503,667,o),
(522,546,c),
(546,546,l),
(538,638,l),
(536,710,l),
(148,710,l),
(0,713,l),
(0,688,l),
(20,686,ls),
(89,678,o),
(106,676,o),
(106,577,cs),
(106,133,ls),
(106,34,o),
(89,32,o),
(20,24,cs),
(0,22,l)
);
}
);
width = 584;
}
);
note = Eogonek;
unicode = 280;
},
{
glyphname = F;
kernLeft = B;
kernRight = F;
lastChange = "2022-11-17 08:20:49 +0000";
layers = (
{
layerId = m01;
shapes = (
{
closed = 1;
nodes = (
(0,-3,l),
(148,0,l),
(149,0,l),
(311,-3,l),
(311,22,l),
(277,24,ls),
(212,28,o),
(191,34,o),
(191,133,cs),
(191,360,l),
(303,360,ls),
(349,360,o),
(374,323,o),
(374,226,c),
(399,226,l),
(396,374,l),
(399,508,l),
(374,508,l),
(369,409,o),
(342,388,o),
(303,388,cs),
(191,388,l),
(191,681,l),
(355,681,ls),
(421,681,o),
(527,681,o),
(538,548,c),
(562,548,l),
(553,637,l),
(550,710,l),
(148,710,l),
(0,713,l),
(0,688,l),
(20,686,ls),
(89,678,o),
(106,676,o),
(106,577,cs),
(106,133,ls),
(106,34,o),
(89,32,o),
(20,24,cs),
(0,22,l)
);
}
);
width = 562;
}
);
note = F;
unicode = 70;
},
{
glyphname = uni0191;
kernLeft = B;
kernRight = F;
lastChange = "2022-11-17 08:20:49 +0000";
layers = (
{
layerId = m01;
shapes = (
{
closed = 1;
nodes = (
(190,-290,o),
(280,-273,o),
(280,-138,cs),
(280,353,l),
(403,353,ls),
(449,353,o),
(474,314,o),
(474,216,c),
(499,216,l),
(496,364,l),
(499,498,l),
(474,498,l),
(469,399,o),
(442,378,o),
(403,378,cs),
(280,378,l),
(280,683,l),
(444,683,ls),
(510,683,o),
(616,683,o),
(627,548,c),
(651,548,l),
(642,637,l),
(639,710,l),
(237,710,l),
(89,713,l),
(89,688,l),
(109,686,ls),
(178,678,o),
(195,676,o),
(195,577,cs),
(195,-156,ls),
(195,-180,o),
(195,-266,o),
(121,-266,cs),
(94,-266,o),
(86,-251,o),
(86,-238,cs),
(86,-231,o),
(88,-225,o),
(91,-217,cs),
(94,-210,o),
(97,-202,o),
(97,-190,cs),
(97,-166,o),
(77,-149,o),
(52,-149,cs),
(17,-149,o),
(0,-175,o),
(0,-202,cs),
(0,-255,o),
(56,-290,o),
(115,-290,cs)
);
}
);
width = 651;
}
);
note = uni0191;
unicode = 401;
},
{
glyphname = G;
kernLeft = C;
kernRight = G;
lastChange = "2022-11-17 08:20:49 +0000";
layers = (
{
layerId = m01;
shapes = (
{
closed = 1;
nodes = (
(431,-11,o),
(479,23,o),
(514,48,cs),
(534,63,o),
(550,75,o),
(571,75,cs),
(583,75,o),
(600,67,o),
(618,39,c),
(641,54,l),
(627,79,ls),
(617,97,o),
(605,125,o),
(605,156,cs),
(605,174,ls),
(605,237,o),
(630,258,o),
(666,261,cs),
(711,265,l),
(711,289,l),
(557,285,l),
(391,289,l),
(391,265,l),
(434,261,ls),
(507,254,o),
(530,233,o),
(530,174,cs),
(530,146,ls),
(530,81,o),
(449,19,o),
(338,19,cs),
(188,19,o),
(102,126,o),
(102,355,cs),
(102,572,o),
(179,694,o),
(335,694,cs),
(442,694,o),
(555,614,o),
(559,478,c),
(584,478,l),
(582,595,l),
(584,710,l),
(559,710,l),
(559,694,o),
(552,673,o),
(534,673,cs),
(517,673,o),
(508,677,o),
(474,692,cs),
(444,705,o),
(397,724,o),
(338,724,cs),
(156,724,o),
(0,572,o),
(0,355,cs),
(0,131,o),
(148,-11,o),
(332,-11,cs)
);
}
);
width = 711;
}
);
note = G;
unicode = 71;
},
{
glyphname = Gbreve;
kernLeft = C;
kernRight = G;
lastChange = "2022-11-17 08:20:49 +0000";
layers = (
{
layerId = m01;
shapes = (
{
closed = 1;
nodes = (
(405,788,o),
(439,839,o),
(439,904,cs),
(439,937,l),
(414,937,l),
(414,932,ls),
(414,866,o),
(386,848,o),
(338,848,cs),
(290,848,o),
(262,866,o),
(262,932,cs),
(262,937,l),
(237,937,l),
(237,904,ls),
(237,839,o),
(271,788,o),
(338,788,cs)
);
},
{
closed = 1;
nodes = (
(431,-11,o),
(479,23,o),
(514,48,cs),
(534,63,o),
(550,75,o),
(571,75,cs),
(583,75,o),
(600,67,o),
(618,39,c),
(641,54,l),
(627,79,ls),
(617,97,o),
(605,125,o),
(605,156,cs),
(605,174,ls),
(605,237,o),
(630,258,o),
(666,261,cs),
(711,265,l),
(711,289,l),
(557,285,l),
(391,289,l),
(391,265,l),
(434,261,ls),
(507,254,o),
(530,233,o),
(530,174,cs),
(530,146,ls),
(530,81,o),
(449,19,o),
(338,19,cs),
(188,19,o),
(102,126,o),
(102,355,cs),
(102,572,o),
(179,694,o),
(335,694,cs),
(442,694,o),
(555,614,o),
(559,478,c),
(584,478,l),
(582,595,l),
(584,710,l),
(559,710,l),
(559,694,o),
(552,673,o),
(534,673,cs),
(517,673,o),
(508,677,o),
(474,692,cs),
(444,705,o),
(397,724,o),
(338,724,cs),
(156,724,o),
(0,572,o),
(0,355,cs),
(0,131,o),
(148,-11,o),
(332,-11,cs)
);
}
);
width = 711;
}
);
note = Gbreve;
unicode = 286;
},
{
glyphname = uni0122;
kernLeft = C;
kernRight = G;
lastChange = "2022-11-17 08:20:49 +0000";
layers = (
{
layerId = m01;
shapes = (
{
closed = 1;
nodes = (
(431,-11,o),
(479,23,o),
(514,48,cs),
(534,63,o),
(550,75,o),
(571,75,cs),
(583,75,o),
(600,67,o),
(618,39,c),
(641,54,l),
(627,79,ls),
(617,97,o),
(605,125,o),
(605,156,cs),
(605,174,ls),
(605,237,o),
(630,258,o),
(666,261,cs),
(711,265,l),
(711,289,l),
(557,285,l),
(391,289,l),
(391,265,l),
(434,261,ls),
(507,254,o),
(530,233,o),
(530,174,cs),
(530,146,ls),
(530,81,o),
(449,19,o),
(338,19,cs),
(188,19,o),
(102,126,o),
(102,355,cs),
(102,572,o),
(179,694,o),
(335,694,cs),
(442,694,o),
(555,614,o),
(559,478,c),
(584,478,l),
(582,595,l),
(584,710,l),
(559,710,l),
(559,694,o),
(552,673,o),
(534,673,cs),
(517,673,o),
(508,677,o),
(474,692,cs),
(444,705,o),
(397,724,o),
(338,724,cs),
(156,724,o),
(0,572,o),
(0,355,cs),
(0,131,o),
(148,-11,o),
(332,-11,cs)
);
},
{
closed = 1;
nodes = (
(331,-288,l),
(374,-260,o),
(406,-230,o),
(406,-169,cs),
(406,-119,o),
(382,-87,o),
(346,-87,cs),
(317,-87,o),
(297,-107,o),
(297,-136,cs),
(297,-163,o),
(315,-181,o),
(342,-181,cs),
(360,-181,o),
(377,-167,o),
(377,-153,cs),
(377,-146,o),
(374,-141,o),
(374,-138,c),
(374,-138,o),
(374,-137,o),
(375,-136,c),
(385,-132,o),
(390,-153,o),
(390,-171,cs),
(390,-218,o),
(357,-248,o),
(321,-273,c)
);
}
);
width = 711;
}
);
note = uni0122;
unicode = 290;
},
{
glyphname = Gdotaccent;
kernLeft = C;
kernRight = G;
lastChange = "2022-11-17 08:20:49 +0000";
layers = (
{
layerId = m01;
shapes = (
{
closed = 1;
nodes = (
(375,794,o),
(393,821,o),
(393,855,cs),
(393,889,o),
(375,916,o),
(337,916,cs),
(302,916,o),
(281,889,o),
(281,855,cs),
(281,821,o),
(302,794,o),
(337,794,cs)
);
},
{
closed = 1;
nodes = (
(431,-11,o),
(479,23,o),
(514,48,cs),
(534,63,o),
(550,75,o),
(571,75,cs),
(583,75,o),
(600,67,o),
(618,39,c),
(641,54,l),
(627,79,ls),
(617,97,o),
(605,125,o),
(605,156,cs),
(605,174,ls),
(605,237,o),
(630,258,o),
(666,261,cs),
(711,265,l),
(711,289,l),
(557,285,l),
(391,289,l),
(391,265,l),
(434,261,ls),
(507,254,o),
(530,233,o),
(530,174,cs),
(530,146,ls),
(530,81,o),
(449,19,o),
(338,19,cs),
(188,19,o),
(102,126,o),
(102,355,cs),
(102,572,o),
(179,694,o),
(335,694,cs),
(442,694,o),
(555,614,o),
(559,478,c),
(584,478,l),
(582,595,l),
(584,710,l),
(559,710,l),
(559,694,o),
(552,673,o),
(534,673,cs),
(517,673,o),
(508,677,o),
(474,692,cs),
(444,705,o),
(397,724,o),
(338,724,cs),
(156,724,o),
(0,572,o),
(0,355,cs),
(0,131,o),
(148,-11,o),
(332,-11,cs)
);
}
);
width = 711;
}
);
note = Gdotaccent;
unicode = 288;
},
{
glyphname = H;
kernLeft = B;
kernRight = E;
lastChange = "2022-11-17 08:20:49 +0000";
layers = (
{
layerId = m01;
shapes = (
{
closed = 1;
nodes = (
(0,-3,l),
(148,0,l),
(149,0,l),
(297,-3,l),
(297,22,l),
(277,24,ls),
(208,32,o),
(191,34,o),
(191,133,cs),
(191,352,l),
(572,352,l),
(572,133,ls),
(572,34,o),
(555,32,o),
(486,24,cs),
(466,22,l),
(466,-3,l),
(614,0,l),
(615,0,l),
(763,-3,l),
(763,22,l),
(743,24,ls),
(674,32,o),
(657,34,o),
(657,133,cs),
(657,577,ls),
(657,676,o),
(674,678,o),
(743,686,cs),
(763,688,l),
(763,713,l),
(615,710,l),
(614,710,l),
(466,713,l),
(466,688,l),
(486,686,ls),
(555,678,o),
(572,676,o),
(572,577,cs),
(572,384,l),
(191,384,l),
(191,577,ls),
(191,676,o),
(208,678,o),
(277,686,cs),
(297,688,l),
(297,713,l),
(149,710,l),
(148,710,l),
(0,713,l),
(0,688,l),
(20,686,ls),
(89,678,o),
(106,676,o),
(106,577,cs),
(106,133,ls),
(106,34,o),
(89,32,o),
(20,24,cs),
(0,22,l)
);
}
);
width = 763;
}
);
note = H;
unicode = 72;
},
{
glyphname = Hbar;
kernLeft = B;
kernRight = E;
lastChange = "2022-11-17 08:20:49 +0000";
layers = (
{
layerId = m01;
shapes = (
{
closed = 1;
nodes = (
(0,-3,l),
(148,0,l),
(149,0,l),
(297,-3,l),
(297,22,l),
(277,24,ls),
(208,32,o),
(191,34,o),
(191,133,cs),
(191,352,l),
(572,352,l),
(572,133,ls),
(572,34,o),
(555,32,o),
(486,24,cs),
(466,22,l),
(466,-3,l),
(614,0,l),
(615,0,l),
(763,-3,l),
(763,22,l),
(743,24,ls),
(674,32,o),
(657,34,o),
(657,133,cs),
(657,506,l),
(756,506,l),
(756,535,l),
(657,535,l),
(657,577,ls),
(657,676,o),
(674,678,o),
(743,686,cs),
(763,688,l),
(763,713,l),
(615,710,l),
(614,710,l),
(466,713,l),
(466,688,l),
(486,686,ls),
(555,678,o),
(572,676,o),
(572,577,cs),
(572,535,l),
(191,535,l),
(191,577,ls),
(191,676,o),
(208,678,o),
(277,686,cs),
(297,688,l),
(297,713,l),
(149,710,l),
(148,710,l),
(0,713,l),
(0,688,l),
(20,686,ls),
(89,678,o),
(106,676,o),
(106,577,cs),
(106,535,l),
(4,535,l),
(4,506,l),
(106,506,l),
(106,133,ls),
(106,34,o),
(89,32,o),
(20,24,cs),
(0,22,l)
);
},
{
closed = 1;
nodes = (
(191,384,l),
(191,506,l),
(572,506,l),
(572,384,l)
);
}
);
width = 763;
}
);
note = Hbar;
unicode = 294;
},
{
glyphname = I;
kernLeft = B;
kernRight = E;
lastChange = "2022-11-17 08:20:49 +0000";
layers = (
{
layerId = m01;
shapes = (
{
closed = 1;
nodes = (
(0,-3,l),
(148,0,l),
(149,0,l),
(297,-3,l),
(297,22,l),
(277,24,ls),
(208,32,o),
(191,34,o),
(191,133,cs),
(191,577,ls),
(191,676,o),
(208,678,o),
(277,686,cs),
(297,688,l),
(297,713,l),
(149,710,l),
(148,710,l),
(0,713,l),
(0,688,l),
(20,686,ls),
(89,678,o),
(106,676,o),
(106,577,cs),
(106,133,ls),
(106,34,o),
(89,32,o),
(20,24,cs),
(0,22,l)
);
}
);
width = 297;
}
);
note = I;
unicode = 73;
},
{
glyphname = Iacute;
kernLeft = B;
kernRight = E;
lastChange = "2022-11-17 08:20:49 +0000";
layers = (
{
layerId = m01;
shapes = (
{
closed = 1;
nodes = (
(142,760,l),
(154,760,l),
(249,940,l),
(168,940,l)
);
},
{
closed = 1;
nodes = (
(0,-3,l),
(148,0,l),
(149,0,l),
(297,-3,l),
(297,22,l),
(277,24,ls),
(208,32,o),
(191,34,o),
(191,133,cs),
(191,577,ls),
(191,676,o),
(208,678,o),
(277,686,cs),
(297,688,l),
(297,713,l),
(149,710,l),
(148,710,l),
(0,713,l),
(0,688,l),
(20,686,ls),
(89,678,o),
(106,676,o),
(106,577,cs),
(106,133,ls),
(106,34,o),
(89,32,o),
(20,24,cs),
(0,22,l)
);
}
);
width = 297;
}
);
note = Iacute;
unicode = 205;
},
{
glyphname = uni01CF;
kernLeft = B;
kernRight = E;
lastChange = "2022-11-17 08:20:49 +0000";
layers = (
{
layerId = m01;
shapes = (
{
closed = 1;
nodes = (
(43,940,l),
(137,760,l),
(159,760,l),
(253,940,l),
(229,940,l),
(151,847,l),
(145,847,l),
(67,940,l)
);
},
{
closed = 1;
nodes = (
(0,-3,l),
(148,0,l),
(149,0,l),
(297,-3,l),
(297,22,l),
(277,24,ls),
(208,32,o),
(191,34,o),
(191,133,cs),
(191,577,ls),
(191,676,o),
(208,678,o),
(277,686,cs),
(297,688,l),
(297,713,l),
(149,710,l),
(148,710,l),
(0,713,l),
(0,688,l),
(20,686,ls),
(89,678,o),
(106,676,o),
(106,577,cs),
(106,133,ls),
(106,34,o),
(89,32,o),
(20,24,cs),
(0,22,l)
);
}
);
width = 297;
}
);
note = uni01CF;
unicode = 463;
},
{
glyphname = Icircumflex;
kernLeft = B;
kernRight = E;
lastChange = "2022-11-17 08:20:49 +0000";
layers = (
{
layerId = m01;
shapes = (
{
closed = 1;
nodes = (
(41,761,l),
(65,761,l),
(143,853,l),
(149,853,l),
(227,761,l),
(251,761,l),
(157,940,l),
(135,940,l)
);
},
{
closed = 1;
nodes = (
(0,-3,l),
(148,0,l),
(149,0,l),
(297,-3,l),
(297,22,l),
(277,24,ls),
(208,32,o),
(191,34,o),
(191,133,cs),
(191,577,ls),
(191,676,o),
(208,678,o),
(277,686,cs),
(297,688,l),
(297,713,l),
(149,710,l),
(148,710,l),
(0,713,l),
(0,688,l),
(20,686,ls),
(89,678,o),
(106,676,o),
(106,577,cs),
(106,133,ls),
(106,34,o),
(89,32,o),
(20,24,cs),
(0,22,l)
);
}
);
width = 297;
}
);
note = Icircumflex;
unicode = 206;
},
{
glyphname = Idieresis;
kernLeft = B;
kernRight = E;
lastChange = "2022-11-17 08:20:49 +0000";
layers = (
{
layerId = m01;
shapes = (
{
closed = 1;
nodes = (
(90,822,o),
(106,847,o),
(106,879,cs),
(106,910,o),
(90,935,o),
(56,935,cs),
(24,935,o),
(5,910,o),
(5,879,cs),
(5,847,o),
(24,822,o),
(56,822,cs)
);
},
{
closed = 1;
nodes = (
(280,822,o),
(296,847,o),
(296,879,cs),
(296,910,o),
(280,935,o),
(246,935,cs),
(214,935,o),
(195,910,o),
(195,879,cs),
(195,847,o),
(214,822,o),
(246,822,cs)
);
},
{
closed = 1;
nodes = (
(0,-3,l),
(148,0,l),
(149,0,l),
(297,-3,l),
(297,22,l),
(277,24,ls),
(208,32,o),
(191,34,o),
(191,133,cs),
(191,577,ls),
(191,676,o),
(208,678,o),
(277,686,cs),
(297,688,l),
(297,713,l),
(149,710,l),
(148,710,l),
(0,713,l),
(0,688,l),
(20,686,ls),
(89,678,o),
(106,676,o),
(106,577,cs),
(106,133,ls),
(106,34,o),
(89,32,o),
(20,24,cs),
(0,22,l)
);
}
);
width = 297;
}
);
note = Idieresis;
unicode = 207;
},
{
glyphname = Idotaccent;
kernLeft = B;
kernRight = E;
lastChange = "2022-11-17 08:20:49 +0000";
layers = (
{
layerId = m01;
shapes = (
{
closed = 1;
nodes = (
(185,794,o),
(203,821,o),
(203,855,cs),
(203,889,o),
(185,916,o),
(147,916,cs),
(112,916,o),
(91,889,o),
(91,855,cs),
(91,821,o),
(112,794,o),
(147,794,cs)
);
},
{
closed = 1;
nodes = (
(0,-3,l),
(148,0,l),
(149,0,l),
(297,-3,l),
(297,22,l),
(277,24,ls),
(208,32,o),
(191,34,o),
(191,133,cs),
(191,577,ls),
(191,676,o),
(208,678,o),
(277,686,cs),
(297,688,l),
(297,713,l),
(149,710,l),
(148,710,l),
(0,713,l),
(0,688,l),
(20,686,ls),
(89,678,o),
(106,676,o),
(106,577,cs),
(106,133,ls),
(106,34,o),
(89,32,o),
(20,24,cs),
(0,22,l)
);
}
);
width = 297;
}
);
note = Idotaccent;
unicode = 304;
},
{
glyphname = Igrave;
kernLeft = B;
kernRight = E;
lastChange = "2022-11-17 08:20:49 +0000";
layers = (
{
layerId = m01;
shapes = (
{
closed = 1;
nodes = (
(153,760,l),
(127,940,l),
(46,940,l),
(141,760,l)
);
},
{
closed = 1;
nodes = (
(0,-3,l),
(148,0,l),
(149,0,l),
(297,-3,l),
(297,22,l),
(277,24,ls),
(208,32,o),
(191,34,o),
(191,133,cs),
(191,577,ls),
(191,676,o),
(208,678,o),
(277,686,cs),
(297,688,l),
(297,713,l),
(149,710,l),
(148,710,l),
(0,713,l),
(0,688,l),
(20,686,ls),
(89,678,o),
(106,676,o),
(106,577,cs),
(106,133,ls),
(106,34,o),
(89,32,o),
(20,24,cs),
(0,22,l)
);
}
);
width = 297;
}
);
note = Igrave;
unicode = 204;
},
{
glyphname = Imacron;
kernLeft = B;
kernRight = E;
lastChange = "2022-11-17 08:20:49 +0000";
layers = (
{
layerId = m01;
shapes = (
{
closed = 1;
nodes = (
(30,834,l),
(257,834,l),
(257,874,l),
(30,874,l)
);
},
{
closed = 1;
nodes = (
(0,-3,l),
(148,0,l),
(149,0,l),
(297,-3,l),
(297,22,l),
(277,24,ls),
(208,32,o),
(191,34,o),
(191,133,cs),
(191,577,ls),
(191,676,o),
(208,678,o),
(277,686,cs),
(297,688,l),
(297,713,l),
(149,710,l),
(148,710,l),
(0,713,l),
(0,688,l),
(20,686,ls),
(89,678,o),
(106,676,o),
(106,577,cs),
(106,133,ls),
(106,34,o),
(89,32,o),
(20,24,cs),
(0,22,l)
);
}
);
width = 297;
}
);
note = Imacron;
unicode = 298;
},
{
glyphname = Iogonek;
kernLeft = B;
kernRight = E;
lastChange = "2022-11-17 08:20:49 +0000";
layers = (
{
layerId = m01;
shapes = (
{
closed = 1;
nodes = (
(0,-3,l),
(140,0,l),
(90,-57,o),
(28,-125,o),
(28,-192,cs),
(28,-250,o),
(75,-294,o),
(136,-294,cs),
(222,-294,o),
(259,-234,o),
(266,-183,c),
(249,-170,l),
(230,-212,o),
(194,-239,o),
(157,-239,cs),
(109,-239,o),
(78,-210,o),
(78,-154,cs),
(78,-100,o),
(117,-55,o),
(165,0,c),
(297,-3,l),
(297,22,l),
(277,24,ls),
(208,32,o),
(191,34,o),
(191,133,cs),
(191,577,ls),
(191,676,o),
(208,678,o),
(277,686,cs),
(297,688,l),
(297,713,l),
(149,710,l),
(148,710,l),
(0,713,l),
(0,688,l),
(20,686,ls),
(89,678,o),
(106,676,o),
(106,577,cs),
(106,133,ls),
(106,34,o),
(89,32,o),
(20,24,cs),
(0,22,l)
);
}
);
width = 297;
}
);
note = Iogonek;
unicode = 302;
},
{
glyphname = J;
kernLeft = J;
kernRight = J;
lastChange = "2022-11-17 08:20:49 +0000";
layers = (
{
layerId = m01;
shapes = (
{
closed = 1;
nodes = (
(190,-11,o),
(280,6,o),
(280,141,cs),
(280,577,ls),
(280,676,o),
(297,678,o),
(366,686,cs),
(386,688,l),
(386,713,l),
(238,710,l),
(237,710,l),
(89,713,l),
(89,688,l),
(109,686,ls),
(178,678,o),
(195,676,o),
(195,577,cs),
(195,123,ls),
(195,99,o),
(195,13,o),
(121,13,cs),
(94,13,o),
(86,28,o),
(86,41,cs),
(86,48,o),
(88,54,o),
(91,62,cs),
(94,69,o),
(97,77,o),
(97,89,cs),
(97,113,o),
(77,130,o),
(52,130,cs),
(17,130,o),
(0,104,o),
(0,77,cs),
(0,24,o),
(56,-11,o),
(115,-11,cs)
);
}
);
width = 386;
}
);
note = J;
unicode = 74;
},
{
glyphname = K;
kernLeft = B;
kernRight = K;
lastChange = "2022-11-17 08:20:49 +0000";
layers = (
{
layerId = m01;
shapes = (
{
closed = 1;
nodes = (
(0,-3,l),
(148,0,l),
(149,0,l),
(284,-3,l),
(284,22,l),
(266,24,ls),
(202,32,o),
(187,34,o),
(187,133,cs),
(187,258,l),
(267,352,l),
(457,107,ls),
(474,85,o),
(484,66,o),
(484,52,cs),
(484,36,o),
(470,25,o),
(436,23,cs),
(421,22,l),
(421,-3,l),
(569,0,l),
(721,-3,l),
(721,22,l),
(700,24,ls),
(628,31,o),
(586,82,o),
(518,171,cs),
(326,422,l),
(482,606,ls),
(520,651,o),
(554,679,o),
(594,684,cs),
(628,688,l),
(628,713,l),
(507,710,l),
(379,713,l),
(379,687,l),
(411,684,ls),
(440,681,o),
(457,671,o),
(457,652,cs),
(457,635,o),
(445,611,o),
(417,578,cs),
(187,309,l),
(187,577,ls),
(187,667,o),
(200,678,o),
(261,685,cs),
(281,687,l),
(281,713,l),
(148,710,l),
(0,713,l),
(0,688,l),
(20,686,ls),
(89,678,o),
(106,676,o),
(106,577,cs),
(106,133,ls),
(106,34,o),
(89,32,o),
(20,24,cs),
(0,22,l)
);
}
);
width = 721;
}
);
note = K;
unicode = 75;
},
{
glyphname = uni0136;
kernLeft = B;
kernRight = K;
lastChange = "2022-11-17 08:20:49 +0000";
layers = (
{
layerId = m01;
shapes = (
{
closed = 1;
nodes = (
(0,-3,l),
(148,0,l),
(149,0,l),
(284,-3,l),
(284,22,l),
(266,24,ls),
(202,32,o),
(187,34,o),
(187,133,cs),
(187,258,l),
(267,352,l),
(457,107,ls),
(474,85,o),
(484,66,o),
(484,52,cs),
(484,36,o),
(470,25,o),
(436,23,cs),
(421,22,l),
(421,-3,l),
(569,0,l),
(721,-3,l),
(721,22,l),
(700,24,ls),
(628,31,o),
(586,82,o),
(518,171,cs),
(326,422,l),
(482,606,ls),
(520,651,o),
(554,679,o),
(594,684,cs),
(628,688,l),
(628,713,l),
(507,710,l),
(379,713,l),
(379,687,l),
(411,684,ls),
(440,681,o),
(457,671,o),
(457,652,cs),
(457,635,o),
(445,611,o),
(417,578,cs),
(187,309,l),
(187,577,ls),
(187,667,o),
(200,678,o),
(261,685,cs),
(281,687,l),
(281,713,l),
(148,710,l),
(0,713,l),
(0,688,l),
(20,686,ls),
(89,678,o),
(106,676,o),
(106,577,cs),
(106,133,ls),
(106,34,o),
(89,32,o),
(20,24,cs),
(0,22,l)
);
},
{
closed = 1;
nodes = (
(347,-288,l),
(390,-260,o),
(422,-230,o),
(422,-169,cs),
(422,-119,o),
(398,-87,o),
(362,-87,cs),
(333,-87,o),
(313,-107,o),
(313,-136,cs),
(313,-163,o),
(331,-181,o),
(358,-181,cs),
(376,-181,o),
(393,-167,o),
(393,-153,cs),
(393,-146,o),
(390,-141,o),
(390,-138,c),
(390,-138,o),
(390,-137,o),
(391,-136,c),
(401,-132,o),
(406,-153,o),
(406,-171,cs),
(406,-218,o),
(373,-248,o),
(337,-273,c)
);
}
);
width = 721;
}
);
note = uni0136;
unicode = 310;
},
{
glyphname = L;
kernLeft = B;
kernRight = L;
lastChange = "2022-11-17 08:20:49 +0000";
layers = (
{
layerId = m01;
shapes = (
{
closed = 1;
nodes = (
(0,-3,l),
(148,0,l),
(566,-3,l),
(576,210,l),
(554,210,l),
(544,92,o),
(499,29,o),
(383,29,cs),
(308,29,ls),
(195,29,o),
(191,73,o),
(191,172,cs),
(191,589,ls),
(191,679,o),
(205,681,o),
(263,688,cs),
(279,690,l),
(279,713,l),
(150,710,l),
(0,713,l),
(0,688,l),
(20,686,ls),
(89,679,o),
(106,676,o),
(106,577,cs),
(106,133,ls),
(106,34,o),
(89,31,o),
(20,24,cs),
(0,22,l)
);
}
);
width = 576;
}
);
note = L;
unicode = 76;
},
{
glyphname = Lacute;
kernLeft = B;
kernRight = L;
lastChange = "2022-11-17 08:20:49 +0000";
layers = (
{
layerId = m01;
shapes = (
{
closed = 1;
nodes = (
(143,760,l),
(155,760,l),
(250,940,l),
(169,940,l)
);
},
{
closed = 1;
nodes = (
(0,-3,l),
(148,0,l),
(566,-3,l),
(576,210,l),
(554,210,l),
(544,92,o),
(499,29,o),
(383,29,cs),
(308,29,ls),
(195,29,o),
(191,73,o),
(191,172,cs),
(191,589,ls),
(191,679,o),
(205,681,o),
(263,688,cs),
(279,690,l),
(279,713,l),
(150,710,l),
(0,713,l),
(0,688,l),
(20,686,ls),
(89,679,o),
(106,676,o),
(106,577,cs),
(106,133,ls),
(106,34,o),
(89,31,o),
(20,24,cs),
(0,22,l)
);
}
);
width = 576;
}
);
note = Lacute;
unicode = 313;
},
{
glyphname = Lcaron;
lastChange = "2022-11-17 08:20:49 +0000";
layers = (
{
layerId = m01;
shapes = (
{
closed = 1;
nodes = (
(0,-3,l),
(148,0,l),
(566,-3,l),
(576,210,l),
(554,210,l),
(544,92,o),
(499,29,o),
(383,29,cs),
(308,29,ls),
(195,29,o),
(191,73,o),
(191,172,cs),
(191,589,ls),
(191,679,o),
(205,681,o),
(263,688,cs),
(279,690,l),
(279,713,l),
(150,710,l),
(0,713,l),
(0,688,l),
(20,686,ls),
(89,679,o),
(106,676,o),
(106,577,cs),
(106,133,ls),
(106,34,o),
(89,31,o),
(20,24,cs),
(0,22,l)
);
},
{
closed = 1;
nodes = (
(389,515,l),
(424,515,l),
(489,710,l),
(410,710,l)
);
}
);
width = 576;
}
);
note = Lcaron;
unicode = 317;
},
{
glyphname = uni013B;
kernLeft = B;
kernRight = L;
lastChange = "2022-11-17 08:20:49 +0000";
layers = (
{
layerId = m01;
shapes = (
{
closed = 1;
nodes = (
(0,-3,l),
(148,0,l),
(566,-3,l),
(576,210,l),
(554,210,l),
(544,92,o),
(499,29,o),
(383,29,cs),
(308,29,ls),
(195,29,o),
(191,73,o),
(191,172,cs),
(191,589,ls),
(191,679,o),
(205,681,o),
(263,688,cs),
(279,690,l),
(279,713,l),
(150,710,l),
(0,713,l),
(0,688,l),
(20,686,ls),
(89,679,o),
(106,676,o),
(106,577,cs),
(106,133,ls),
(106,34,o),
(89,31,o),
(20,24,cs),
(0,22,l)
);
},
{
closed = 1;
nodes = (
(313,-288,l),
(356,-260,o),
(388,-230,o),
(388,-169,cs),
(388,-119,o),
(364,-87,o),
(328,-87,cs),
(299,-87,o),
(279,-107,o),
(279,-136,cs),
(279,-163,o),
(297,-181,o),
(324,-181,cs),
(342,-181,o),
(359,-167,o),
(359,-153,cs),
(359,-146,o),
(356,-141,o),
(356,-138,c),
(356,-138,o),
(356,-137,o),
(357,-136,c),
(367,-132,o),
(372,-153,o),
(372,-171,cs),
(372,-218,o),
(339,-248,o),
(303,-273,c)
);
}
);
width = 576;
}
);
note = uni013B;
unicode = 315;
},
{
glyphname = Ldot;
lastChange = "2022-11-17 08:20:49 +0000";
layers = (
{
layerId = m01;
shapes = (
{
closed = 1;
nodes = (
(0,-3,l),
(148,0,l),
(566,-3,l),
(576,210,l),
(554,210,l),
(544,92,o),
(499,29,o),
(383,29,cs),
(308,29,ls),
(195,29,o),
(191,73,o),
(191,172,cs),
(191,589,ls),
(191,679,o),
(205,681,o),
(263,688,cs),
(279,690,l),
(279,713,l),
(150,710,l),
(0,713,l),
(0,688,l),
(20,686,ls),
(89,679,o),
(106,676,o),
(106,577,cs),
(106,133,ls),
(106,34,o),
(89,31,o),
(20,24,cs),
(0,22,l)
);
},
{
closed = 1;
nodes = (
(487,310,o),
(514,339,o),
(514,374,cs),
(514,407,o),
(487,436,o),
(452,436,cs),
(415,436,o),
(388,407,o),
(388,374,cs),
(388,339,o),
(415,310,o),
(452,310,cs)
);
}
);
width = 576;
}
);
note = Ldot;
unicode = 319;
},
{
glyphname = Lslash;
kernLeft = B;
kernRight = L;
lastChange = "2022-11-17 08:20:49 +0000";
layers = (
{
layerId = m01;
shapes = (
{
closed = 1;
nodes = (
(0,-3,l),
(148,0,l),
(566,-3,l),
(576,210,l),
(554,210,l),
(544,92,o),
(499,29,o),
(383,29,cs),
(308,29,ls),
(195,29,o),
(191,73,o),
(191,172,cs),
(191,364,l),
(342,432,l),
(342,487,l),
(191,409,l),
(191,589,ls),
(191,679,o),
(205,681,o),
(263,688,cs),
(279,690,l),
(279,713,l),
(150,710,l),
(0,713,l),
(0,688,l),
(20,686,ls),
(89,679,o),
(106,676,o),
(106,577,cs),
(106,365,l),
(1,312,l),
(1,279,l),
(106,326,l),
(106,133,ls),
(106,34,o),
(89,31,o),
(20,24,cs),
(0,22,l)
);
}
);
width = 576;
}
);
note = Lslash;
unicode = 321;
},
{
glyphname = M;
kernLeft = M;
kernRight = E;
lastChange = "2022-11-17 08:20:49 +0000";
layers = (
{
layerId = m01;
shapes = (
{
closed = 1;
nodes = (
(0,-3,l),
(120,0,l),
(247,-3,l),
(247,22,l),
(227,24,ls),
(161,31,o),
(141,41,o),
(141,105,cs),
(141,637,l),
(399,0,l),
(418,0,l),
(714,647,l),
(714,133,ls),
(714,34,o),
(697,31,o),
(628,24,cs),
(608,22,l),
(608,-3,l),
(757,0,l),
(905,-3,l),
(905,22,l),
(885,24,ls),
(816,31,o),
(799,34,o),
(799,133,cs),
(799,577,ls),
(799,676,o),
(816,678,o),
(885,686,cs),
(905,688,l),
(905,713,l),
(765,710,l),
(705,710,l),
(442,133,l),
(204,710,l),
(148,710,l),
(0,713,l),
(0,688,l),
(20,686,ls),
(89,678,o),
(106,676,o),
(106,577,cs),
(106,133,ls),
(106,34,o),
(89,32,o),
(20,24,cs),
(0,22,l)
);
}
);
width = 905;
}
);
note = M;
unicode = 77;
},
{
glyphname = N;
kernLeft = M;
kernRight = N;
lastChange = "2022-11-17 08:20:49 +0000";
layers = (
{
layerId = m01;
shapes = (
{
closed = 1;
nodes = (
(4,-4,l),
(128,0,l),
(256,-4,l),
(256,21,l),
(236,23,ls),
(167,30,o),
(150,33,o),
(150,133,cs),
(150,606,l),
(254,483,o),
(525,131,o),
(590,0,c),
(620,0,l),
(620,577,ls),
(620,676,o),
(637,678,o),
(706,686,cs),
(726,688,l),
(726,713,l),
(604,710,l),
(474,713,l),
(474,688,l),
(494,686,ls),
(563,679,o),
(580,676,o),
(580,577,cs),
(580,199,l),
(510,289,o),
(267,610,o),
(194,710,c),
(0,713,l),
(0,687,l),
(30,687,ls),
(76,687,o),
(98,664,o),
(110,649,c),
(110,133,ls),
(110,33,o),
(93,30,o),
(24,23,cs),
(4,21,l)
);
}
);
width = 726;
}
);
note = N;
unicode = 78;
},
{
glyphname = Nacute;
kernLeft = B;
kernRight = N;
lastChange = "2022-11-17 08:20:49 +0000";
layers = (
{
layerId = m01;
shapes = (
{
closed = 1;
nodes = (
(332,794,l),
(354,794,l),
(428,913,ls),
(438,929,o),
(445,946,o),
(445,962,cs),
(445,986,o),
(430,998,o),
(414,998,cs),
(398,998,o),
(382,984,o),
(371,942,cs)
);
},
{
closed = 1;
nodes = (
(4,-4,l),
(128,0,l),
(256,-4,l),
(256,21,l),
(236,23,ls),
(167,30,o),
(150,33,o),
(150,133,cs),
(150,606,l),
(254,483,o),
(525,131,o),
(590,0,c),
(620,0,l),
(620,577,ls),
(620,676,o),
(637,678,o),
(706,686,cs),
(726,688,l),
(726,713,l),
(604,710,l),
(474,713,l),
(474,688,l),
(494,686,ls),
(563,679,o),
(580,676,o),
(580,577,cs),
(580,199,l),
(510,289,o),
(267,610,o),
(194,710,c),
(0,713,l),
(0,687,l),
(30,687,ls),
(76,687,o),
(98,664,o),
(110,649,c),
(110,133,ls),
(110,33,o),
(93,30,o),
(24,23,cs),
(4,21,l)
);
}
);
width = 726;
}
);
note = Nacute;
unicode = 323;
},
{
glyphname = Ncaron;
kernLeft = B;
kernRight = N;
lastChange = "2022-11-17 08:20:49 +0000";
layers = (
{
layerId = m01;
shapes = (
{
closed = 1;
nodes = (
(263,940,l),
(357,760,l),
(379,760,l),
(473,940,l),
(449,940,l),
(371,847,l),
(365,847,l),
(287,940,l)
);
},
{
closed = 1;
nodes = (
(4,-4,l),
(128,0,l),
(256,-4,l),
(256,21,l),
(236,23,ls),
(167,30,o),
(150,33,o),
(150,133,cs),
(150,606,l),
(254,483,o),
(525,131,o),
(590,0,c),
(620,0,l),
(620,577,ls),
(620,676,o),
(637,678,o),
(706,686,cs),
(726,688,l),
(726,713,l),
(604,710,l),
(474,713,l),
(474,688,l),
(494,686,ls),
(563,679,o),
(580,676,o),
(580,577,cs),
(580,199,l),
(510,289,o),
(267,610,o),
(194,710,c),
(0,713,l),
(0,687,l),
(30,687,ls),
(76,687,o),
(98,664,o),
(110,649,c),
(110,133,ls),
(110,33,o),
(93,30,o),
(24,23,cs),
(4,21,l)
);
}
);
width = 726;
}
);
note = Ncaron;
unicode = 327;
},
{
glyphname = uni0145;
kernLeft = B;
kernRight = N;
lastChange = "2022-11-17 08:20:49 +0000";
layers = (
{
layerId = m01;
shapes = (
{
closed = 1;
nodes = (
(4,-4,l),
(128,0,l),
(256,-4,l),
(256,21,l),
(236,23,ls),
(167,30,o),
(150,33,o),
(150,133,cs),
(150,606,l),
(254,483,o),
(525,131,o),
(590,0,c),
(620,0,l),
(620,577,ls),
(620,676,o),
(637,678,o),
(706,686,cs),
(726,688,l),
(726,713,l),
(604,710,l),
(474,713,l),
(474,688,l),
(494,686,ls),
(563,679,o),
(580,676,o),
(580,577,cs),
(580,199,l),
(510,289,o),
(267,610,o),
(194,710,c),
(0,713,l),
(0,687,l),
(30,687,ls),
(76,687,o),
(98,664,o),
(110,649,c),
(110,133,ls),
(110,33,o),
(93,30,o),
(24,23,cs),
(4,21,l)
);
},
{
closed = 1;
nodes = (
(395,-288,l),
(438,-260,o),
(470,-230,o),
(470,-169,cs),
(470,-119,o),
(446,-87,o),
(410,-87,cs),
(381,-87,o),
(361,-107,o),
(361,-136,cs),
(361,-163,o),
(379,-181,o),
(406,-181,cs),
(424,-181,o),
(441,-167,o),
(441,-153,cs),
(441,-146,o),
(438,-141,o),
(438,-138,c),
(438,-138,o),
(438,-137,o),
(439,-136,c),
(449,-132,o),
(454,-153,o),
(454,-171,cs),
(454,-218,o),
(421,-248,o),
(385,-273,c)
);
}
);
width = 726;
}
);
note = uni0145;
unicode = 325;
},
{
glyphname = Ntilde;
kernLeft = B;
kernRight = N;
lastChange = "2022-11-17 08:20:49 +0000";
layers = (
{
layerId = m01;
shapes = (
{
closed = 1;
nodes = (
(482,801,o),
(516,840,o),
(523,900,c),
(504,900,l),
(495,872,o),
(477,849,o),
(450,849,cs),
(432,849,o),
(409,862,o),
(399,868,cs),
(362,890,ls),
(349,898,o),
(320,916,o),
(295,916,cs),
(234,916,o),
(209,841,o),
(209,812,c),
(228,812,l),
(234,836,o),
(258,868,o),
(287,868,cs),
(305,868,o),
(324,857,o),
(348,842,cs),
(374,826,ls),
(391,816,o),
(417,801,o),
(442,801,cs)
);
},
{
closed = 1;
nodes = (
(4,-4,l),
(128,0,l),
(256,-4,l),
(256,21,l),
(236,23,ls),
(167,30,o),
(150,33,o),
(150,133,cs),
(150,606,l),
(254,483,o),
(525,131,o),
(590,0,c),
(620,0,l),
(620,577,ls),
(620,676,o),
(637,678,o),
(706,686,cs),
(726,688,l),
(726,713,l),
(604,710,l),
(474,713,l),
(474,688,l),
(494,686,ls),
(563,679,o),
(580,676,o),
(580,577,cs),
(580,199,l),
(510,289,o),
(267,610,o),
(194,710,c),
(0,713,l),
(0,687,l),
(30,687,ls),
(76,687,o),
(98,664,o),
(110,649,c),
(110,133,ls),
(110,33,o),
(93,30,o),
(24,23,cs),
(4,21,l)
);
}
);
width = 726;
}
);
note = Ntilde;
unicode = 209;
},
{
glyphname = Eng;
kernLeft = B;
kernRight = N;
lastChange = "2022-11-17 08:20:49 +0000";
layers = (
{
layerId = m01;
shapes = (
{
closed = 1;
nodes = (
(553,-264,o),
(621,-229,o),
(621,-60,cs),
(621,577,ls),
(621,676,o),
(638,678,o),
(707,686,cs),
(727,688,l),
(727,713,l),
(606,711,l),
(485,713,l),
(485,688,l),
(505,686,ls),
(574,678,o),
(591,676,o),
(591,577,cs),
(591,187,l),
(538,255,o),
(272,604,o),
(195,710,c),
(0,713,l),
(1,684,l),
(23,684,ls),
(75,684,o),
(96,664,o),
(111,649,c),
(111,133,ls),
(111,34,o),
(94,32,o),
(25,24,cs),
(5,22,l),
(5,-3,l),
(126,-1,l),
(247,-3,l),
(247,22,l),
(227,24,ls),
(158,32,o),
(141,34,o),
(141,133,cs),
(141,617,l),
(237,506,o),
(524,135,o),
(591,0,c),
(591,-58,ls),
(591,-150,o),
(570,-223,o),
(519,-223,cs),
(499,-223,o),
(499,-210,o),
(499,-187,cs),
(499,-160,o),
(481,-137,o),
(451,-137,cs),
(421,-137,o),
(403,-161,o),
(403,-187,cs),
(403,-237,o),
(439,-264,o),
(489,-264,cs)
);
}
);
width = 727;
}
);
note = Eng;
unicode = 330;
},
{
glyphname = O;
kernLeft = C;
kernRight = D;
lastChange = "2022-11-17 08:20:49 +0000";
layers = (
{
layerId = m01;
shapes = (
{
closed = 1;
nodes = (
(547,-11,o),
(694,141,o),
(694,357,cs),
(694,572,o),
(547,724,o),
(347,724,cs),
(147,724,o),
(0,572,o),
(0,357,cs),
(0,141,o),
(147,-11,o),
(347,-11,cs)
);
},
{
closed = 1;
nodes = (
(174,19,o),
(102,147,o),
(102,357,cs),
(102,566,o),
(174,694,o),
(347,694,cs),
(520,694,o),
(592,566,o),
(592,357,cs),
(592,147,o),
(520,19,o),
(347,19,cs)
);
}
);
width = 694;
}
);
note = O;
unicode = 79;
},
{
glyphname = Oacute;
kernLeft = C;
kernRight = D;
lastChange = "2022-11-17 08:20:49 +0000";
layers = (
{
layerId = m01;
shapes = (
{
closed = 1;
nodes = (
(342,760,l),
(354,760,l),
(449,940,l),
(368,940,l)
);
},
{
closed = 1;
nodes = (
(547,-11,o),
(694,141,o),
(694,357,cs),
(694,572,o),
(547,724,o),
(347,724,cs),
(147,724,o),
(0,572,o),
(0,357,cs),
(0,141,o),
(147,-11,o),
(347,-11,cs)
);
},
{
closed = 1;
nodes = (
(174,19,o),
(102,147,o),
(102,357,cs),
(102,566,o),
(174,694,o),
(347,694,cs),
(520,694,o),
(592,566,o),
(592,357,cs),
(592,147,o),
(520,19,o),
(347,19,cs)
);
}
);
width = 694;
}
);
note = Oacute;
unicode = 211;
},
{
glyphname = uni01D1;
kernLeft = C;
kernRight = D;
lastChange = "2022-11-17 08:20:49 +0000";
layers = (
{
layerId = m01;
shapes = (
{
closed = 1;
nodes = (
(243,940,l),
(337,760,l),
(359,760,l),
(453,940,l),
(429,940,l),
(351,847,l),
(345,847,l),
(267,940,l)
);
},
{
closed = 1;
nodes = (
(547,-11,o),
(694,141,o),
(694,357,cs),
(694,572,o),
(547,724,o),
(347,724,cs),
(147,724,o),
(0,572,o),
(0,357,cs),
(0,141,o),
(147,-11,o),
(347,-11,cs)
);
},
{
closed = 1;
nodes = (
(174,19,o),
(102,147,o),
(102,357,cs),
(102,566,o),
(174,694,o),
(347,694,cs),
(520,694,o),
(592,566,o),
(592,357,cs),
(592,147,o),
(520,19,o),
(347,19,cs)
);
}
);
width = 694;
}
);
note = uni01D1;
unicode = 465;
},
{
glyphname = Ocircumflex;
kernLeft = C;
kernRight = D;
lastChange = "2022-11-17 08:20:49 +0000";
layers = (
{
layerId = m01;
shapes = (
{
closed = 1;
nodes = (
(241,761,l),
(265,761,l),
(343,853,l),
(349,853,l),
(427,761,l),
(451,761,l),
(357,940,l),
(335,940,l)
);
},
{
closed = 1;
nodes = (
(547,-11,o),
(694,141,o),
(694,357,cs),
(694,572,o),
(547,724,o),
(347,724,cs),
(147,724,o),
(0,572,o),
(0,357,cs),
(0,141,o),
(147,-11,o),
(347,-11,cs)
);
},
{
closed = 1;
nodes = (
(174,19,o),
(102,147,o),
(102,357,cs),
(102,566,o),
(174,694,o),
(347,694,cs),
(520,694,o),
(592,566,o),
(592,357,cs),
(592,147,o),
(520,19,o),
(347,19,cs)
);
}
);
width = 694;
}
);
note = Ocircumflex;
unicode = 212;
},
{
glyphname = Odieresis;
kernLeft = C;
kernRight = D;
lastChange = "2022-11-17 08:20:49 +0000";
layers = (
{
layerId = m01;
shapes = (
{
closed = 1;
nodes = (
(290,822,o),
(306,847,o),
(306,879,cs),
(306,910,o),
(290,935,o),
(256,935,cs),
(224,935,o),
(205,910,o),
(205,879,cs),
(205,847,o),
(224,822,o),
(256,822,cs)
);
},
{
closed = 1;
nodes = (
(480,822,o),
(496,847,o),
(496,879,cs),
(496,910,o),
(480,935,o),
(446,935,cs),
(414,935,o),
(395,910,o),
(395,879,cs),
(395,847,o),
(414,822,o),
(446,822,cs)
);
},
{
closed = 1;
nodes = (
(547,-11,o),
(694,141,o),
(694,357,cs),
(694,572,o),
(547,724,o),
(347,724,cs),
(147,724,o),
(0,572,o),
(0,357,cs),
(0,141,o),
(147,-11,o),
(347,-11,cs)
);
},
{
closed = 1;
nodes = (
(174,19,o),
(102,147,o),
(102,357,cs),
(102,566,o),
(174,694,o),
(347,694,cs),
(520,694,o),
(592,566,o),
(592,357,cs),
(592,147,o),
(520,19,o),
(347,19,cs)
);
}
);
width = 694;
}
);
note = Odieresis;
unicode = 214;
},
{
glyphname = Ograve;
kernLeft = C;
kernRight = D;
lastChange = "2022-11-17 08:20:49 +0000";
layers = (
{
layerId = m01;
shapes = (
{
closed = 1;
nodes = (
(353,760,l),
(327,940,l),
(246,940,l),
(341,760,l)
);
},
{
closed = 1;
nodes = (
(547,-11,o),
(694,141,o),
(694,357,cs),
(694,572,o),
(547,724,o),
(347,724,cs),
(147,724,o),
(0,572,o),
(0,357,cs),
(0,141,o),
(147,-11,o),
(347,-11,cs)
);
},
{
closed = 1;
nodes = (
(174,19,o),
(102,147,o),
(102,357,cs),
(102,566,o),
(174,694,o),
(347,694,cs),
(520,694,o),
(592,566,o),
(592,357,cs),
(592,147,o),
(520,19,o),
(347,19,cs)
);
}
);
width = 694;
}
);
note = Ograve;
unicode = 210;
},
{
glyphname = Ohungarumlaut;
kernLeft = C;
kernRight = D;
lastChange = "2022-11-17 08:20:49 +0000";
layers = (
{
layerId = m01;
shapes = (
{
closed = 1;
nodes = (
(397,761,l),
(409,761,l),
(504,941,l),
(423,941,l)
);
},
{
closed = 1;
nodes = (
(264,760,l),
(276,760,l),
(371,940,l),
(290,940,l)
);
},
{
closed = 1;
nodes = (
(547,-11,o),
(694,141,o),
(694,357,cs),
(694,572,o),
(547,724,o),
(347,724,cs),
(147,724,o),
(0,572,o),
(0,357,cs),
(0,141,o),
(147,-11,o),
(347,-11,cs)
);
},
{
closed = 1;
nodes = (
(174,19,o),
(102,147,o),
(102,357,cs),
(102,566,o),
(174,694,o),
(347,694,cs),
(520,694,o),
(592,566,o),
(592,357,cs),
(592,147,o),
(520,19,o),
(347,19,cs)
);
}
);
width = 694;
}
);
note = Ohungarumlaut;
unicode = 336;
},
{
glyphname = Omacron;
kernLeft = C;
kernRight = D;
lastChange = "2022-11-17 08:20:49 +0000";
layers = (
{
layerId = m01;
shapes = (
{
closed = 1;
nodes = (
(230,834,l),
(457,834,l),
(457,874,l),
(230,874,l)
);
},
{
closed = 1;
nodes = (
(547,-11,o),
(694,141,o),
(694,357,cs),
(694,572,o),
(547,724,o),
(347,724,cs),
(147,724,o),
(0,572,o),
(0,357,cs),
(0,141,o),
(147,-11,o),
(347,-11,cs)
);
},
{
closed = 1;
nodes = (
(174,19,o),
(102,147,o),
(102,357,cs),
(102,566,o),
(174,694,o),
(347,694,cs),
(520,694,o),
(592,566,o),
(592,357,cs),
(592,147,o),
(520,19,o),
(347,19,cs)
);
}
);
width = 694;
}
);
note = Omacron;
unicode = 332;
},
{
glyphname = Oslash;
kernLeft = C;
kernRight = D;
lastChange = "2022-11-17 08:20:49 +0000";
layers = (
{
layerId = m01;
shapes = (
{
closed = 1;
nodes = (
(1,-15,l),
(57,-15,l),
(127,65,l),
(186,17,o),
(262,-11,o),
(347,-11,cs),
(547,-11,o),
(694,141,o),
(694,357,cs),
(694,460,o),
(660,548,o),
(603,613,c),
(701,725,l),
(645,725,l),
(573,642,l),
(514,694,o),
(435,724,o),
(347,724,cs),
(147,724,o),
(0,572,o),
(0,357,cs),
(0,250,o),
(36,159,o),
(96,94,c)
);
},
{
closed = 1;
nodes = (
(102,566,o),
(174,694,o),
(347,694,cs),
(435,694,o),
(497,661,o),
(537,600,c),
(140,144,l),
(114,200,o),
(102,272,o),
(102,357,cs)
);
},
{
closed = 1;
nodes = (
(262,19,o),
(202,50,o),
(162,106,c),
(558,561,l),
(581,507,o),
(592,438,o),
(592,357,cs),
(592,147,o),
(520,19,o),
(347,19,cs)
);
}
);
width = 701;
}
);
note = Oslash;
unicode = 216;
},
{
glyphname = Otilde;
kernLeft = C;
kernRight = D;
lastChange = "2022-11-17 08:20:49 +0000";
layers = (
{
layerId = m01;
shapes = (
{
closed = 1;
nodes = (
(462,801,o),
(496,840,o),
(503,900,c),
(484,900,l),
(475,872,o),
(457,849,o),
(430,849,cs),
(412,849,o),
(389,862,o),
(379,868,cs),
(342,890,ls),
(329,898,o),
(300,916,o),
(275,916,cs),
(214,916,o),
(189,841,o),
(189,812,c),
(208,812,l),
(214,836,o),
(238,868,o),
(267,868,cs),
(285,868,o),
(304,857,o),
(328,842,cs),
(354,826,ls),
(371,816,o),
(397,801,o),
(422,801,cs)
);
},
{
closed = 1;
nodes = (
(547,-11,o),
(694,141,o),
(694,357,cs),
(694,572,o),
(547,724,o),
(347,724,cs),
(147,724,o),
(0,572,o),
(0,357,cs),
(0,141,o),
(147,-11,o),
(347,-11,cs)
);
},
{
closed = 1;
nodes = (
(174,19,o),
(102,147,o),
(102,357,cs),
(102,566,o),
(174,694,o),
(347,694,cs),
(520,694,o),
(592,566,o),
(592,357,cs),
(592,147,o),
(520,19,o),
(347,19,cs)
);
}
);
width = 694;
}
);
note = Otilde;
unicode = 213;
},
{
glyphname = OE;
lastChange = "2022-11-17 08:20:49 +0000";
layers = (
{
layerId = m01;
shapes = (
{
closed = 1;
nodes = (
(369,-11,o),
(396,-8,o),
(422,-2,c),
(507,0,l),
(898,0,l),
(901,90,l),
(908,210,l),
(883,210,l),
(870,52,o),
(838,25,o),
(712,25,cs),
(620,25,ls),
(567,25,o),
(552,54,o),
(552,107,cs),
(552,362,l),
(632,362,ls),
(678,362,o),
(703,324,o),
(703,226,c),
(728,226,l),
(725,374,l),
(728,508,l),
(703,508,l),
(698,408,o),
(671,387,o),
(632,387,cs),
(552,387,l),
(552,683,l),
(652,683,ls),
(800,683,o),
(832,669,o),
(851,546,c),
(875,546,l),
(867,638,l),
(865,710,l),
(449,710,l),
(418,719,o),
(385,725,o),
(352,725,cs),
(165,725,o),
(0,572,o),
(0,355,cs),
(0,141,o),
(147,-11,o),
(342,-11,cs)
);
},
{
closed = 1;
nodes = (
(181,19,o),
(102,145,o),
(102,355,cs),
(102,558,o),
(180,695,o),
(352,695,cs),
(427,695,o),
(466,672,o),
(466,577,cs),
(466,133,ls),
(466,37,o),
(435,19,o),
(342,19,cs)
);
}
);
width = 908;
}
);
note = OE;
unicode = 338;
},
{
glyphname = P;
kernLeft = B;
kernRight = P;
lastChange = "2022-11-17 08:20:49 +0000";
layers = (
{
layerId = m01;
shapes = (
{
closed = 1;
nodes = (
(0,-3,l),
(145,0,l),
(314,-3,l),
(314,22,l),
(292,24,ls),
(211,32,o),
(191,34,o),
(191,133,cs),
(191,315,l),
(308,315,ls),
(479,315,o),
(570,395,o),
(570,514,cs),
(570,680,o),
(445,710,o),
(284,710,cs),
(148,710,l),
(0,713,l),
(0,688,l),
(20,686,ls),
(89,678,o),
(106,676,o),
(106,577,cs),
(106,133,ls),
(106,34,o),
(89,32,o),
(20,24,cs),
(0,22,l)
);
},
{
closed = 1;
nodes = (
(323,682,ls),
(385,682,o),
(475,666,o),
(475,514,cs),
(475,408,o),
(446,345,o),
(308,345,cs),
(191,345,l),
(191,682,l)
);
}
);
width = 570;
}
);
note = P;
unicode = 80;
},
{
glyphname = Thorn;
lastChange = "2022-11-17 08:20:49 +0000";
layers = (
{
layerId = m01;
shapes = (
{
closed = 1;
nodes = (
(1,-3,l),
(151,0,l),
(293,-3,l),
(293,22,l),
(273,24,ls),
(204,32,o),
(186,34,o),
(186,133,cs),
(186,179,l),
(258,179,ls),
(429,179,o),
(525,256,o),
(525,370,cs),
(525,539,o),
(380,556,o),
(273,556,cs),
(186,556,l),
(186,577,ls),
(186,676,o),
(203,678,o),
(272,686,cs),
(292,688,l),
(292,713,l),
(147,710,l),
(0,713,l),
(0,688,l),
(20,686,ls),
(89,678,o),
(106,676,o),
(106,577,cs),
(106,133,ls),
(106,34,o),
(90,32,o),
(21,24,cs),
(1,22,l)
);
},
{
closed = 1;
nodes = (
(273,531,ls),
(386,531,o),
(425,490,o),
(425,370,cs),
(425,267,o),
(396,205,o),
(258,205,cs),
(186,205,l),
(186,531,l)
);
}
);
width = 525;
}
);
note = Thorn;
unicode = 222;
},
{
glyphname = Q;
kernLeft = C;
kernRight = D;
lastChange = "2022-11-17 08:20:49 +0000";
layers = (
{
layerId = m01;
shapes = (
{
closed = 1;
nodes = (
(681,-294,o),
(722,-233,o),
(732,-124,c),
(712,-124,l),
(701,-200,o),
(657,-221,o),
(612,-221,cs),
(561,-221,o),
(511,-187,o),
(462,-147,cs),
(408,-103,o),
(354,-65,o),
(269,-65,cs),
(267,-65,o),
(264,-65,o),
(262,-65,c),
(382,-9,l),
(564,8,o),
(694,154,o),
(694,357,cs),
(694,572,o),
(547,724,o),
(347,724,cs),
(147,724,o),
(0,572,o),
(0,357,cs),
(0,149,o),
(136,0,o),
(325,-10,c),
(180,-77,l),
(91,-77,o),
(27,-103,o),
(27,-152,cs),
(27,-174,o),
(39,-185,o),
(56,-185,cs),
(78,-185,o),
(99,-170,o),
(118,-151,cs),
(137,-132,o),
(159,-116,o),
(185,-100,c),
(262,-104,o),
(320,-138,o),
(397,-202,cs),
(443,-240,o),
(496,-294,o),
(591,-294,cs)
);
},
{
closed = 1;
nodes = (
(174,19,o),
(102,147,o),
(102,357,cs),
(102,566,o),
(174,694,o),
(347,694,cs),
(520,694,o),
(592,566,o),
(592,357,cs),
(592,147,o),
(520,19,o),
(347,19,cs)
);
}
);
width = 732;
}
);
note = Q;
unicode = 81;
},
{
glyphname = R;
kernLeft = B;
kernRight = R;
lastChange = "2022-11-17 08:20:49 +0000";
layers = (
{
layerId = m01;
shapes = (
{
closed = 1;
nodes = (
(604,-11,o),
(644,1,o),
(665,12,c),
(658,37,l),
(647,31,o),
(633,25,o),
(618,25,cs),
(584,25,o),
(549,56,o),
(532,169,cs),
(514,286,o),
(450,347,o),
(352,353,c),
(454,368,o),
(543,416,o),
(543,535,cs),
(543,670,o),
(423,710,o),
(288,710,cs),
(148,710,l),
(0,713,l),
(0,688,l),
(20,686,ls),
(89,678,o),
(106,676,o),
(106,577,cs),
(106,133,ls),
(106,34,o),
(89,32,o),
(20,24,cs),
(0,22,l),
(0,-3,l),
(148,0,l),
(149,0,l),
(297,-3,l),
(297,22,l),
(277,24,ls),
(208,32,o),
(191,34,o),
(191,133,cs),
(191,346,l),
(234,346,ls),
(408,346,o),
(437,226,o),
(451,119,cs),
(461,45,o),
(493,-11,o),
(567,-11,cs)
);
},
{
closed = 1;
nodes = (
(290,684,ls),
(407,684,o),
(448,627,o),
(448,529,cs),
(448,425,o),
(403,373,o),
(275,373,cs),
(191,373,l),
(191,684,l)
);
}
);
width = 665;
}
);
note = R;
unicode = 82;
},
{
glyphname = Racute;
kernLeft = B;
kernRight = R;
lastChange = "2022-11-17 08:20:49 +0000";
layers = (
{
layerId = m01;
shapes = (
{
closed = 1;
nodes = (
(268,760,l),
(280,760,l),
(375,940,l),
(294,940,l)
);
},
{
closed = 1;
nodes = (
(604,-11,o),
(644,1,o),
(665,12,c),
(658,37,l),
(647,31,o),
(633,25,o),
(618,25,cs),
(584,25,o),
(549,56,o),
(532,169,cs),
(514,286,o),
(450,347,o),
(352,353,c),
(454,368,o),
(543,416,o),
(543,535,cs),
(543,670,o),
(423,710,o),
(288,710,cs),
(148,710,l),
(0,713,l),
(0,688,l),
(20,686,ls),
(89,678,o),
(106,676,o),
(106,577,cs),
(106,133,ls),
(106,34,o),
(89,32,o),
(20,24,cs),
(0,22,l),
(0,-3,l),
(148,0,l),
(149,0,l),
(297,-3,l),
(297,22,l),
(277,24,ls),
(208,32,o),
(191,34,o),
(191,133,cs),
(191,346,l),
(234,346,ls),
(408,346,o),
(437,226,o),
(451,119,cs),
(461,45,o),
(493,-11,o),
(567,-11,cs)
);
},
{
closed = 1;
nodes = (
(290,684,ls),
(407,684,o),
(448,627,o),
(448,529,cs),
(448,425,o),
(403,373,o),
(275,373,cs),
(191,373,l),
(191,684,l)
);
}
);
width = 665;
}
);
note = Racute;
unicode = 340;
},
{
glyphname = Rcaron;
kernLeft = B;
kernRight = R;
lastChange = "2022-11-17 08:20:49 +0000";
layers = (
{
layerId = m01;
shapes = (
{
closed = 1;
nodes = (
(169,940,l),
(263,760,l),
(285,760,l),
(379,940,l),
(355,940,l),
(277,847,l),
(271,847,l),
(193,940,l)
);
},
{
closed = 1;
nodes = (
(604,-11,o),
(644,1,o),
(665,12,c),
(658,37,l),
(647,31,o),
(633,25,o),
(618,25,cs),
(584,25,o),
(549,56,o),
(532,169,cs),
(514,286,o),
(450,347,o),
(352,353,c),
(454,368,o),
(543,416,o),
(543,535,cs),
(543,670,o),
(423,710,o),
(288,710,cs),
(148,710,l),
(0,713,l),
(0,688,l),
(20,686,ls),
(89,678,o),
(106,676,o),
(106,577,cs),
(106,133,ls),
(106,34,o),
(89,32,o),
(20,24,cs),
(0,22,l),
(0,-3,l),
(148,0,l),
(149,0,l),
(297,-3,l),
(297,22,l),
(277,24,ls),
(208,32,o),
(191,34,o),
(191,133,cs),
(191,346,l),
(234,346,ls),
(408,346,o),
(437,226,o),
(451,119,cs),
(461,45,o),
(493,-11,o),
(567,-11,cs)
);
},
{
closed = 1;
nodes = (
(290,684,ls),
(407,684,o),
(448,627,o),
(448,529,cs),
(448,425,o),
(403,373,o),
(275,373,cs),
(191,373,l),
(191,684,l)
);
}
);
width = 665;
}
);
note = Rcaron;
unicode = 344;
},
{
glyphname = uni0156;
kernLeft = B;
kernRight = R;
lastChange = "2022-11-17 08:20:49 +0000";
layers = (
{
layerId = m01;
shapes = (
{
closed = 1;
nodes = (
(604,-11,o),
(644,1,o),
(665,12,c),
(658,37,l),
(647,31,o),
(633,25,o),
(618,25,cs),
(584,25,o),
(549,56,o),
(532,169,cs),
(514,286,o),
(450,347,o),
(352,353,c),
(454,368,o),
(543,416,o),
(543,535,cs),
(543,670,o),
(423,710,o),
(288,710,cs),
(148,710,l),
(0,713,l),
(0,688,l),
(20,686,ls),
(89,678,o),
(106,676,o),
(106,577,cs),
(106,133,ls),
(106,34,o),
(89,32,o),
(20,24,cs),
(0,22,l),
(0,-3,l),
(148,0,l),
(149,0,l),
(297,-3,l),
(297,22,l),
(277,24,ls),
(208,32,o),
(191,34,o),
(191,133,cs),
(191,346,l),
(234,346,ls),
(408,346,o),
(437,226,o),
(451,119,cs),
(461,45,o),
(493,-11,o),
(567,-11,cs)
);
},
{
closed = 1;
nodes = (
(290,684,ls),
(407,684,o),
(448,627,o),
(448,529,cs),
(448,425,o),
(403,373,o),
(275,373,cs),
(191,373,l),
(191,684,l)
);
},
{
closed = 1;
nodes = (
(355,-288,l),
(398,-260,o),
(430,-230,o),
(430,-169,cs),
(430,-119,o),
(406,-87,o),
(370,-87,cs),
(341,-87,o),
(321,-107,o),
(321,-136,cs),
(321,-163,o),
(339,-181,o),
(366,-181,cs),
(384,-181,o),
(401,-167,o),
(401,-153,cs),
(401,-146,o),
(398,-141,o),
(398,-138,c),
(398,-138,o),
(398,-137,o),
(399,-136,c),
(409,-132,o),
(414,-153,o),
(414,-171,cs),
(414,-218,o),
(381,-248,o),
(345,-273,c)
);
}
);
width = 665;
}
);
note = uni0156;
unicode = 342;
},
{
glyphname = S;
kernLeft = S;
kernRight = S;
lastChange = "2022-11-17 08:20:49 +0000";
layers = (
{
layerId = m01;
shapes = (
{
closed = 1;
nodes = (
(359,-11,o),
(446,68,o),
(446,187,cs),
(446,300,o),
(379,350,o),
(269,404,cs),
(228,424,ls),
(149,462,o),
(95,499,o),
(95,575,cs),
(95,646,o),
(148,696,o),
(227,696,cs),
(306,696,o),
(381,630,o),
(394,519,c),
(419,519,l),
(417,616,l),
(420,712,l),
(395,712,l),
(393,690,o),
(388,681,o),
(376,681,cs),
(365,681,o),
(353,685,o),
(335,694,cs),
(314,705,o),
(276,724,o),
(222,724,cs),
(104,724,o),
(20,649,o),
(20,543,cs),
(20,452,o),
(68,400,o),
(168,352,cs),
(210,332,ls),
(313,283,o),
(374,235,o),
(374,146,cs),
(374,56,o),
(310,18,o),
(249,18,cs),
(137,18,o),
(59,111,o),
(38,200,cs),
(27,247,l),
(2,247,l),
(5,118,l),
(0,0,l),
(25,0,l),
(28,15,ls),
(32,33,o),
(37,52,o),
(56,52,cs),
(70,52,o),
(88,44,o),
(118,28,cs),
(152,10,o),
(196,-11,o),
(249,-11,cs)
);
}
);
width = 446;
}
);
note = S;
unicode = 83;
},
{
glyphname = Sacute;
kernLeft = S;
kernRight = S;
lastChange = "2022-11-17 08:20:49 +0000";
layers = (
{
layerId = m01;
shapes = (
{
closed = 1;
nodes = (
(220,760,l),
(232,760,l),
(327,940,l),
(246,940,l)
);
},
{
closed = 1;
nodes = (
(359,-11,o),
(446,68,o),
(446,187,cs),
(446,300,o),
(379,350,o),
(269,404,cs),
(228,424,ls),
(149,462,o),
(95,499,o),
(95,575,cs),
(95,646,o),
(148,696,o),
(227,696,cs),
(306,696,o),
(381,630,o),
(394,519,c),
(419,519,l),
(417,616,l),
(420,712,l),
(395,712,l),
(393,690,o),
(388,681,o),
(376,681,cs),
(365,681,o),
(353,685,o),
(335,694,cs),
(314,705,o),
(276,724,o),
(222,724,cs),
(104,724,o),
(20,649,o),
(20,543,cs),
(20,452,o),
(68,400,o),
(168,352,cs),
(210,332,ls),
(313,283,o),
(374,235,o),
(374,146,cs),
(374,56,o),
(310,18,o),
(249,18,cs),
(137,18,o),
(59,111,o),
(38,200,cs),
(27,247,l),
(2,247,l),
(5,118,l),
(0,0,l),
(25,0,l),
(28,15,ls),
(32,33,o),
(37,52,o),
(56,52,cs),
(70,52,o),
(88,44,o),
(118,28,cs),
(152,10,o),
(196,-11,o),
(249,-11,cs)
);
}
);
width = 446;
}
);
note = Sacute;
unicode = 346;
},
{
glyphname = Scaron;
kernLeft = S;
kernRight = S;
lastChange = "2022-11-17 08:20:49 +0000";
layers = (
{
layerId = m01;
shapes = (
{
closed = 1;
nodes = (
(121,940,l),
(215,760,l),
(237,760,l),
(331,940,l),
(307,940,l),
(229,847,l),
(223,847,l),
(145,940,l)
);
},
{
closed = 1;
nodes = (
(359,-11,o),
(446,68,o),
(446,187,cs),
(446,300,o),
(379,350,o),
(269,404,cs),
(228,424,ls),
(149,462,o),
(95,499,o),
(95,575,cs),
(95,646,o),
(148,696,o),
(227,696,cs),
(306,696,o),
(381,630,o),
(394,519,c),
(419,519,l),
(417,616,l),
(420,712,l),
(395,712,l),
(393,690,o),
(388,681,o),
(376,681,cs),
(365,681,o),
(353,685,o),
(335,694,cs),
(314,705,o),
(276,724,o),
(222,724,cs),
(104,724,o),
(20,649,o),
(20,543,cs),
(20,452,o),
(68,400,o),
(168,352,cs),
(210,332,ls),
(313,283,o),
(374,235,o),
(374,146,cs),
(374,56,o),
(310,18,o),
(249,18,cs),
(137,18,o),
(59,111,o),
(38,200,cs),
(27,247,l),
(2,247,l),
(5,118,l),
(0,0,l),
(25,0,l),
(28,15,ls),
(32,33,o),
(37,52,o),
(56,52,cs),
(70,52,o),
(88,44,o),
(118,28,cs),
(152,10,o),
(196,-11,o),
(249,-11,cs)
);
}
);
width = 446;
}
);
note = Scaron;
unicode = 352;
},
{
glyphname = Scedilla;
kernLeft = S;
kernRight = S;
lastChange = "2022-11-17 08:20:49 +0000";
layers = (
{
layerId = m01;
shapes = (
{
closed = 1;
nodes = (
(279,-292,o),
(333,-243,o),
(333,-169,cs),
(333,-115,o),
(298,-72,o),
(249,-60,c),
(266,-10,l),
(368,-2,o),
(446,74,o),
(446,187,cs),
(446,300,o),
(379,350,o),
(269,404,cs),
(228,424,ls),
(149,462,o),
(95,499,o),
(95,575,cs),
(95,646,o),
(148,696,o),
(227,696,cs),
(306,696,o),
(381,630,o),
(394,519,c),
(419,519,l),
(417,616,l),
(420,712,l),
(395,712,l),
(393,690,o),
(388,681,o),
(376,681,cs),
(365,681,o),
(353,685,o),
(335,694,cs),
(314,705,o),
(276,724,o),
(222,724,cs),
(104,724,o),
(20,649,o),
(20,543,cs),
(20,452,o),
(68,400,o),
(168,352,cs),
(210,332,ls),
(313,283,o),
(374,235,o),
(374,146,cs),
(374,56,o),
(310,18,o),
(249,18,cs),
(137,18,o),
(59,111,o),
(38,200,cs),
(27,247,l),
(2,247,l),
(5,118,l),
(0,0,l),
(25,0,l),
(28,15,ls),
(32,33,o),
(37,52,o),
(56,52,cs),
(70,52,o),
(88,44,o),
(118,28,cs),
(149,11,o),
(189,-8,o),
(236,-11,c),
(221,-57,l),
(185,-57,o),
(151,-75,o),
(132,-109,c),
(152,-122,l),
(167,-99,o),
(191,-82,o),
(214,-82,cs),
(258,-82,o),
(282,-120,o),
(282,-166,cs),
(282,-214,o),
(258,-264,o),
(211,-264,cs),
(170,-264,o),
(142,-234,o),
(136,-203,c),
(114,-210,l),
(123,-249,o),
(157,-292,o),
(217,-292,cs)
);
}
);
width = 446;
}
);
note = Scedilla;
unicode = 350;
},
{
glyphname = uni0218;
kernLeft = S;
kernRight = S;
lastChange = "2022-11-17 08:20:49 +0000";
layers = (
{
layerId = m01;
shapes = (
{
closed = 1;
nodes = (
(359,-11,o),
(446,68,o),
(446,187,cs),
(446,300,o),
(379,350,o),
(269,404,cs),
(228,424,ls),
(149,462,o),
(95,499,o),
(95,575,cs),
(95,646,o),
(148,696,o),
(227,696,cs),
(306,696,o),
(381,630,o),
(394,519,c),
(419,519,l),
(417,616,l),
(420,712,l),
(395,712,l),
(393,690,o),
(388,681,o),
(376,681,cs),
(365,681,o),
(353,685,o),
(335,694,cs),
(314,705,o),
(276,724,o),
(222,724,cs),
(104,724,o),
(20,649,o),
(20,543,cs),
(20,452,o),
(68,400,o),
(168,352,cs),
(210,332,ls),
(313,283,o),
(374,235,o),
(374,146,cs),
(374,56,o),
(310,18,o),
(249,18,cs),
(137,18,o),
(59,111,o),
(38,200,cs),
(27,247,l),
(2,247,l),
(5,118,l),
(0,0,l),
(25,0,l),
(28,15,ls),
(32,33,o),
(37,52,o),
(56,52,cs),
(70,52,o),
(88,44,o),
(118,28,cs),
(152,10,o),
(196,-11,o),
(249,-11,cs)
);
},
{
closed = 1;
nodes = (
(247,-288,l),
(290,-260,o),
(322,-230,o),
(322,-169,cs),
(322,-119,o),
(298,-87,o),
(262,-87,cs),
(233,-87,o),
(213,-107,o),
(213,-136,cs),
(213,-163,o),
(231,-181,o),
(258,-181,cs),
(276,-181,o),
(293,-167,o),
(293,-153,cs),
(293,-146,o),
(290,-141,o),
(290,-138,c),
(290,-138,o),
(290,-137,o),
(291,-136,c),
(301,-132,o),
(306,-153,o),
(306,-171,cs),
(306,-218,o),
(273,-248,o),
(237,-273,c)
);
}
);
width = 446;
}
);
note = uni0218;
unicode = 536;
},
{
glyphname = T;
kernLeft = T;
kernRight = T;
lastChange = "2022-11-17 08:20:49 +0000";
layers = (
{
layerId = m01;
shapes = (
{
closed = 1;
nodes = (
(203,-3,l),
(371,0,l),
(534,-3,l),
(534,22,l),
(512,24,ls),
(431,32,o),
(411,34,o),
(411,133,cs),
(411,683,l),
(559,683,ls),
(645,683,o),
(670,620,o),
(716,504,c),
(738,510,l),
(713,633,l),
(702,713,l),
(416,710,l),
(321,710,l),
(36,713,l),
(25,633,l),
(0,510,l),
(21,505,l),
(73,635,o),
(93,683,o),
(185,683,cs),
(326,683,l),
(326,133,ls),
(326,34,o),
(306,32,o),
(225,24,cs),
(203,22,l)
);
}
);
width = 738;
}
);
note = T;
unicode = 84;
},
{
glyphname = Tbar;
kernLeft = T;
kernRight = T;
lastChange = "2022-11-17 08:20:49 +0000";
layers = (
{
layerId = m01;
shapes = (
{
closed = 1;
nodes = (
(203,-3,l),
(371,0,l),
(534,-3,l),
(534,22,l),
(512,24,ls),
(431,32,o),
(411,34,o),
(411,133,cs),
(411,339,l),
(586,339,l),
(586,371,l),
(411,371,l),
(411,683,l),
(559,683,ls),
(645,683,o),
(670,620,o),
(716,504,c),
(738,510,l),
(713,633,l),
(702,713,l),
(416,710,l),
(321,710,l),
(36,713,l),
(25,633,l),
(0,510,l),
(21,505,l),
(73,635,o),
(93,683,o),
(185,683,cs),
(326,683,l),
(326,371,l),
(146,371,l),
(146,339,l),
(326,339,l),
(326,133,ls),
(326,34,o),
(306,32,o),
(225,24,cs),
(203,22,l)
);
}
);
width = 738;
}
);
note = Tbar;
unicode = 358;
},
{
glyphname = Tcaron;
kernLeft = T;
kernRight = T;
lastChange = "2022-11-17 08:20:49 +0000";
layers = (
{
layerId = m01;
shapes = (
{
closed = 1;
nodes = (
(270,940,l),
(364,760,l),
(386,760,l),
(480,940,l),
(456,940,l),
(378,847,l),
(372,847,l),
(294,940,l)
);
},
{
closed = 1;
nodes = (
(203,-3,l),
(371,0,l),
(534,-3,l),
(534,22,l),
(512,24,ls),
(431,32,o),
(411,34,o),
(411,133,cs),
(411,683,l),
(559,683,ls),
(645,683,o),
(670,620,o),
(716,504,c),
(738,510,l),
(713,633,l),
(702,713,l),
(416,710,l),
(321,710,l),
(36,713,l),
(25,633,l),
(0,510,l),
(21,505,l),
(73,635,o),
(93,683,o),
(185,683,cs),
(326,683,l),
(326,133,ls),
(326,34,o),
(306,32,o),
(225,24,cs),
(203,22,l)
);
}
);
width = 738;
}
);
note = Tcaron;
unicode = 356;
},
{
glyphname = uni0162;
kernLeft = T;
kernRight = T;
lastChange = "2022-11-17 08:20:49 +0000";
layers = (
{
layerId = m01;
shapes = (
{
closed = 1;
nodes = (
(203,-3,l),
(371,0,l),
(534,-3,l),
(534,22,l),
(512,24,ls),
(431,32,o),
(411,34,o),
(411,133,cs),
(411,683,l),
(559,683,ls),
(645,683,o),
(670,620,o),
(716,504,c),
(738,510,l),
(713,633,l),
(702,713,l),
(416,710,l),
(321,710,l),
(36,713,l),
(25,633,l),
(0,510,l),
(21,505,l),
(73,635,o),
(93,683,o),
(185,683,cs),
(326,683,l),
(326,133,ls),
(326,34,o),
(306,32,o),
(225,24,cs),
(203,22,l)
);
},
{
closed = 1;
nodes = (
(365,-288,l),
(408,-260,o),
(440,-230,o),
(440,-169,cs),
(440,-119,o),
(416,-87,o),
(380,-87,cs),
(351,-87,o),
(331,-107,o),
(331,-136,cs),
(331,-163,o),
(349,-181,o),
(376,-181,cs),
(394,-181,o),
(411,-167,o),
(411,-153,cs),
(411,-146,o),
(408,-141,o),
(408,-138,c),
(408,-138,o),
(408,-137,o),
(409,-136,c),
(419,-132,o),
(424,-153,o),
(424,-171,cs),
(424,-218,o),
(391,-248,o),
(355,-273,c)
);
}
);
width = 738;
}
);
note = uni0162;
unicode = 354;
},
{
glyphname = uni021A;
kernLeft = T;
kernRight = T;
lastChange = "2022-11-17 08:20:49 +0000";
layers = (
{
layerId = m01;
shapes = (
{
closed = 1;
nodes = (
(203,-3,l),
(371,0,l),
(534,-3,l),
(534,22,l),
(512,24,ls),
(431,32,o),
(411,34,o),
(411,133,cs),
(411,683,l),
(559,683,ls),
(645,683,o),
(670,620,o),
(716,504,c),
(738,510,l),
(713,633,l),
(702,713,l),
(416,710,l),
(321,710,l),
(36,713,l),
(25,633,l),
(0,510,l),
(21,505,l),
(73,635,o),
(93,683,o),
(185,683,cs),
(326,683,l),
(326,133,ls),
(326,34,o),
(306,32,o),
(225,24,cs),
(203,22,l)
);
},
{
closed = 1;
nodes = (
(365,-288,l),
(408,-260,o),
(440,-230,o),
(440,-169,cs),
(440,-119,o),
(416,-87,o),
(380,-87,cs),
(351,-87,o),
(331,-107,o),
(331,-136,cs),
(331,-163,o),
(349,-181,o),
(376,-181,cs),
(394,-181,o),
(411,-167,o),
(411,-153,cs),
(411,-146,o),
(408,-141,o),
(408,-138,c),
(408,-138,o),
(408,-137,o),
(409,-136,c),
(419,-132,o),
(424,-153,o),
(424,-171,cs),
(424,-218,o),
(391,-248,o),
(355,-273,c)
);
}
);
width = 738;
}
);
note = uni021A;
unicode = 538;
},
{
glyphname = U;
kernLeft = U;
kernRight = U;
lastChange = "2022-11-17 08:20:49 +0000";
layers = (
{
layerId = m01;
shapes = (
{
closed = 1;
nodes = (
(533,-11,o),
(614,74,o),
(614,229,cs),
(614,577,ls),
(614,676,o),
(631,678,o),
(700,686,cs),
(720,688,l),
(720,713,l),
(621,711,l),
(473,713,l),
(473,688,l),
(493,686,ls),
(562,678,o),
(579,676,o),
(579,577,cs),
(579,229,ls),
(579,101,o),
(522,22,o),
(388,22,cs),
(272,22,o),
(191,88,o),
(191,223,cs),
(191,577,ls),
(191,676,o),
(208,678,o),
(277,686,cs),
(297,688,l),
(297,713,l),
(149,710,l),
(148,710,l),
(0,713,l),
(0,688,l),
(20,686,ls),
(89,678,o),
(106,676,o),
(106,577,cs),
(106,223,ls),
(106,57,o),
(202,-11,o),
(369,-11,cs)
);
}
);
width = 720;
}
);
note = U;
unicode = 85;
},
{
glyphname = Uacute;
kernLeft = U;
kernRight = U;
lastChange = "2022-11-17 08:20:49 +0000";
layers = (
{
layerId = m01;
shapes = (
{
closed = 1;
nodes = (
(379,760,l),
(391,760,l),
(486,940,l),
(405,940,l)
);
},
{
closed = 1;
nodes = (
(533,-11,o),
(614,74,o),
(614,229,cs),
(614,577,ls),
(614,676,o),
(631,678,o),
(700,686,cs),
(720,688,l),
(720,713,l),
(621,711,l),
(473,713,l),
(473,688,l),
(493,686,ls),
(562,678,o),
(579,676,o),
(579,577,cs),
(579,229,ls),
(579,101,o),
(522,22,o),
(388,22,cs),
(272,22,o),
(191,88,o),
(191,223,cs),
(191,577,ls),
(191,676,o),
(208,678,o),
(277,686,cs),
(297,688,l),
(297,713,l),
(149,710,l),
(148,710,l),
(0,713,l),
(0,688,l),
(20,686,ls),
(89,678,o),
(106,676,o),
(106,577,cs),
(106,223,ls),
(106,57,o),
(202,-11,o),
(369,-11,cs)
);
}
);
width = 720;
}
);
note = Uacute;
unicode = 218;
},
{
glyphname = uni01D3;
kernLeft = U;
kernRight = U;
lastChange = "2022-11-17 08:20:49 +0000";
layers = (
{
layerId = m01;
shapes = (
{
closed = 1;
nodes = (
(280,940,l),
(374,760,l),
(396,760,l),
(490,940,l),
(466,940,l),
(388,847,l),
(382,847,l),
(304,940,l)
);
},
{
closed = 1;
nodes = (
(533,-11,o),
(614,74,o),
(614,229,cs),
(614,577,ls),
(614,676,o),
(631,678,o),
(700,686,cs),
(720,688,l),
(720,713,l),
(621,711,l),
(473,713,l),
(473,688,l),
(493,686,ls),
(562,678,o),
(579,676,o),
(579,577,cs),
(579,229,ls),
(579,101,o),
(522,22,o),
(388,22,cs),
(272,22,o),
(191,88,o),
(191,223,cs),
(191,577,ls),
(191,676,o),
(208,678,o),
(277,686,cs),
(297,688,l),
(297,713,l),
(149,710,l),
(148,710,l),
(0,713,l),
(0,688,l),
(20,686,ls),
(89,678,o),
(106,676,o),
(106,577,cs),
(106,223,ls),
(106,57,o),
(202,-11,o),
(369,-11,cs)
);
}
);
width = 720;
}
);
note = uni01D3;
unicode = 467;
},
{
glyphname = Ucircumflex;
kernLeft = U;
kernRight = U;
lastChange = "2022-11-17 08:20:49 +0000";
layers = (
{
layerId = m01;
shapes = (
{
closed = 1;
nodes = (
(278,761,l),
(302,761,l),
(380,853,l),
(386,853,l),
(464,761,l),
(488,761,l),
(394,940,l),
(372,940,l)
);
},
{
closed = 1;
nodes = (
(533,-11,o),
(614,74,o),
(614,229,cs),
(614,577,ls),
(614,676,o),
(631,678,o),
(700,686,cs),
(720,688,l),
(720,713,l),
(621,711,l),
(473,713,l),
(473,688,l),
(493,686,ls),
(562,678,o),
(579,676,o),
(579,577,cs),
(579,229,ls),
(579,101,o),
(522,22,o),
(388,22,cs),
(272,22,o),
(191,88,o),
(191,223,cs),
(191,577,ls),
(191,676,o),
(208,678,o),
(277,686,cs),
(297,688,l),
(297,713,l),
(149,710,l),
(148,710,l),
(0,713,l),
(0,688,l),
(20,686,ls),
(89,678,o),
(106,676,o),
(106,577,cs),
(106,223,ls),
(106,57,o),
(202,-11,o),
(369,-11,cs)
);
}
);
width = 720;
}
);
note = Ucircumflex;
unicode = 219;
},
{
glyphname = Udieresis;
kernLeft = U;
kernRight = U;
lastChange = "2022-11-17 08:20:49 +0000";
layers = (
{
layerId = m01;
shapes = (
{
closed = 1;
nodes = (
(327,822,o),
(343,847,o),
(343,879,cs),
(343,910,o),
(327,935,o),
(293,935,cs),
(261,935,o),
(242,910,o),
(242,879,cs),
(242,847,o),
(261,822,o),
(293,822,cs)
);
},
{
closed = 1;
nodes = (
(517,822,o),
(533,847,o),
(533,879,cs),
(533,910,o),
(517,935,o),
(483,935,cs),
(451,935,o),
(432,910,o),
(432,879,cs),
(432,847,o),
(451,822,o),
(483,822,cs)
);
},
{
closed = 1;
nodes = (
(533,-11,o),
(614,74,o),
(614,229,cs),
(614,577,ls),
(614,676,o),
(631,678,o),
(700,686,cs),
(720,688,l),
(720,713,l),
(621,711,l),
(473,713,l),
(473,688,l),
(493,686,ls),
(562,678,o),
(579,676,o),
(579,577,cs),
(579,229,ls),
(579,101,o),
(522,22,o),
(388,22,cs),
(272,22,o),
(191,88,o),
(191,223,cs),
(191,577,ls),
(191,676,o),
(208,678,o),
(277,686,cs),
(297,688,l),
(297,713,l),
(149,710,l),
(148,710,l),
(0,713,l),
(0,688,l),
(20,686,ls),
(89,678,o),
(106,676,o),
(106,577,cs),
(106,223,ls),
(106,57,o),
(202,-11,o),
(369,-11,cs)
);
}
);
width = 720;
}
);
note = Udieresis;
unicode = 220;
},
{
glyphname = uni01D7;
kernLeft = U;
kernRight = U;
lastChange = "2022-11-17 08:20:49 +0000";
layers = (
{
layerId = m01;
shapes = (
{
closed = 1;
nodes = (
(382,958,l),
(394,958,l),
(489,1138,l),
(408,1138,l)
);
},
{
closed = 1;
nodes = (
(327,822,o),
(343,847,o),
(343,879,cs),
(343,910,o),
(327,935,o),
(293,935,cs),
(261,935,o),
(242,910,o),
(242,879,cs),
(242,847,o),
(261,822,o),
(293,822,cs)
);
},
{
closed = 1;
nodes = (
(517,822,o),
(533,847,o),
(533,879,cs),
(533,910,o),
(517,935,o),
(483,935,cs),
(451,935,o),
(432,910,o),
(432,879,cs),
(432,847,o),
(451,822,o),
(483,822,cs)
);
},
{
closed = 1;
nodes = (
(533,-11,o),
(614,74,o),
(614,229,cs),
(614,577,ls),
(614,676,o),
(631,678,o),
(700,686,cs),
(720,688,l),
(720,713,l),
(621,711,l),
(473,713,l),
(473,688,l),
(493,686,ls),
(562,678,o),
(579,676,o),
(579,577,cs),
(579,229,ls),
(579,101,o),
(522,22,o),
(388,22,cs),
(272,22,o),
(191,88,o),
(191,223,cs),
(191,577,ls),
(191,676,o),
(208,678,o),
(277,686,cs),
(297,688,l),
(297,713,l),
(149,710,l),
(148,710,l),
(0,713,l),
(0,688,l),
(20,686,ls),
(89,678,o),
(106,676,o),
(106,577,cs),
(106,223,ls),
(106,57,o),
(202,-11,o),
(369,-11,cs)
);
}
);
width = 720;
}
);
note = uni01D7;
unicode = 471;
},
{
glyphname = uni01D9;
kernLeft = U;
kernRight = U;
lastChange = "2022-11-17 08:20:49 +0000";
layers = (
{
layerId = m01;
shapes = (
{
closed = 1;
nodes = (
(283,1138,l),
(377,958,l),
(399,958,l),
(493,1138,l),
(469,1138,l),
(391,1045,l),
(385,1045,l),
(307,1138,l)
);
},
{
closed = 1;
nodes = (
(327,822,o),
(343,847,o),
(343,879,cs),
(343,910,o),
(327,935,o),
(293,935,cs),
(261,935,o),
(242,910,o),
(242,879,cs),
(242,847,o),
(261,822,o),
(293,822,cs)
);
},
{
closed = 1;
nodes = (
(517,822,o),
(533,847,o),
(533,879,cs),
(533,910,o),
(517,935,o),
(483,935,cs),
(451,935,o),
(432,910,o),
(432,879,cs),
(432,847,o),
(451,822,o),
(483,822,cs)
);
},
{
closed = 1;
nodes = (
(533,-11,o),
(614,74,o),
(614,229,cs),
(614,577,ls),
(614,676,o),
(631,678,o),
(700,686,cs),
(720,688,l),
(720,713,l),
(621,711,l),
(473,713,l),
(473,688,l),
(493,686,ls),
(562,678,o),
(579,676,o),
(579,577,cs),
(579,229,ls),
(579,101,o),
(522,22,o),
(388,22,cs),
(272,22,o),
(191,88,o),
(191,223,cs),
(191,577,ls),
(191,676,o),
(208,678,o),
(277,686,cs),
(297,688,l),
(297,713,l),
(149,710,l),
(148,710,l),
(0,713,l),
(0,688,l),
(20,686,ls),
(89,678,o),
(106,676,o),
(106,577,cs),
(106,223,ls),
(106,57,o),
(202,-11,o),
(369,-11,cs)
);
}
);
width = 720;
}
);
note = uni01D9;
unicode = 473;
},
{
glyphname = uni01DB;
kernLeft = U;
kernRight = U;
lastChange = "2022-11-17 08:20:49 +0000";
layers = (
{
layerId = m01;
shapes = (
{
closed = 1;
nodes = (
(393,958,l),
(367,1138,l),
(286,1138,l),
(381,958,l)
);
},
{
closed = 1;
nodes = (
(327,822,o),
(343,847,o),
(343,879,cs),
(343,910,o),
(327,935,o),
(293,935,cs),
(261,935,o),
(242,910,o),
(242,879,cs),
(242,847,o),
(261,822,o),
(293,822,cs)
);
},
{
closed = 1;
nodes = (
(517,822,o),
(533,847,o),
(533,879,cs),
(533,910,o),
(517,935,o),
(483,935,cs),
(451,935,o),
(432,910,o),
(432,879,cs),
(432,847,o),
(451,822,o),
(483,822,cs)
);
},
{
closed = 1;
nodes = (
(533,-11,o),
(614,74,o),
(614,229,cs),
(614,577,ls),
(614,676,o),
(631,678,o),
(700,686,cs),
(720,688,l),
(720,713,l),
(621,711,l),
(473,713,l),
(473,688,l),
(493,686,ls),
(562,678,o),
(579,676,o),
(579,577,cs),
(579,229,ls),
(579,101,o),
(522,22,o),
(388,22,cs),
(272,22,o),
(191,88,o),
(191,223,cs),
(191,577,ls),
(191,676,o),
(208,678,o),
(277,686,cs),
(297,688,l),
(297,713,l),
(149,710,l),
(148,710,l),
(0,713,l),
(0,688,l),
(20,686,ls),
(89,678,o),
(106,676,o),
(106,577,cs),
(106,223,ls),
(106,57,o),
(202,-11,o),
(369,-11,cs)
);
}
);
width = 720;
}
);
note = uni01DB;
unicode = 475;
},
{
glyphname = uni01D5;
kernLeft = U;
kernRight = U;
lastChange = "2022-11-17 08:20:49 +0000";
layers = (
{
layerId = m01;
shapes = (
{
closed = 1;
nodes = (
(270,1032,l),
(497,1032,l),
(497,1072,l),
(270,1072,l)
);
},
{
closed = 1;
nodes = (
(327,822,o),
(343,847,o),
(343,879,cs),
(343,910,o),
(327,935,o),
(293,935,cs),
(261,935,o),
(242,910,o),
(242,879,cs),
(242,847,o),
(261,822,o),
(293,822,cs)
);
},
{
closed = 1;
nodes = (
(517,822,o),
(533,847,o),
(533,879,cs),
(533,910,o),
(517,935,o),
(483,935,cs),
(451,935,o),
(432,910,o),
(432,879,cs),
(432,847,o),
(451,822,o),
(483,822,cs)
);
},
{
closed = 1;
nodes = (
(533,-11,o),
(614,74,o),
(614,229,cs),
(614,577,ls),
(614,676,o),
(631,678,o),
(700,686,cs),
(720,688,l),
(720,713,l),
(621,711,l),
(473,713,l),
(473,688,l),
(493,686,ls),
(562,678,o),
(579,676,o),
(579,577,cs),
(579,229,ls),
(579,101,o),
(522,22,o),
(388,22,cs),
(272,22,o),
(191,88,o),
(191,223,cs),
(191,577,ls),
(191,676,o),
(208,678,o),
(277,686,cs),
(297,688,l),
(297,713,l),
(149,710,l),
(148,710,l),
(0,713,l),
(0,688,l),
(20,686,ls),
(89,678,o),
(106,676,o),
(106,577,cs),
(106,223,ls),
(106,57,o),
(202,-11,o),
(369,-11,cs)
);
}
);
width = 720;
}
);
note = uni01D5;
unicode = 469;
},
{
glyphname = Ugrave;
kernLeft = U;
kernRight = U;
lastChange = "2022-11-17 08:20:49 +0000";
layers = (
{
layerId = m01;
shapes = (
{
closed = 1;
nodes = (
(390,760,l),
(364,940,l),
(283,940,l),
(378,760,l)
);
},
{
closed = 1;
nodes = (
(533,-11,o),
(614,74,o),
(614,229,cs),
(614,577,ls),
(614,676,o),
(631,678,o),
(700,686,cs),
(720,688,l),
(720,713,l),
(621,711,l),
(473,713,l),
(473,688,l),
(493,686,ls),
(562,678,o),
(579,676,o),
(579,577,cs),
(579,229,ls),
(579,101,o),
(522,22,o),
(388,22,cs),
(272,22,o),
(191,88,o),
(191,223,cs),
(191,577,ls),
(191,676,o),
(208,678,o),
(277,686,cs),
(297,688,l),
(297,713,l),
(149,710,l),
(148,710,l),
(0,713,l),
(0,688,l),
(20,686,ls),
(89,678,o),
(106,676,o),
(106,577,cs),
(106,223,ls),
(106,57,o),
(202,-11,o),
(369,-11,cs)
);
}
);
width = 720;
}
);
note = Ugrave;
unicode = 217;
},
{
glyphname = Uhungarumlaut;
kernLeft = U;
kernRight = U;
lastChange = "2022-11-17 08:20:49 +0000";
layers = (
{
layerId = m01;
shapes = (
{
closed = 1;
nodes = (
(434,761,l),
(446,761,l),
(541,941,l),
(460,941,l)
);
},
{
closed = 1;
nodes = (
(301,760,l),
(313,760,l),
(408,940,l),
(327,940,l)
);
},
{
closed = 1;
nodes = (
(533,-11,o),
(614,74,o),
(614,229,cs),
(614,577,ls),
(614,676,o),
(631,678,o),
(700,686,cs),
(720,688,l),
(720,713,l),
(621,711,l),
(473,713,l),
(473,688,l),
(493,686,ls),
(562,678,o),
(579,676,o),
(579,577,cs),
(579,229,ls),
(579,101,o),
(522,22,o),
(388,22,cs),
(272,22,o),
(191,88,o),
(191,223,cs),
(191,577,ls),
(191,676,o),
(208,678,o),
(277,686,cs),
(297,688,l),
(297,713,l),
(149,710,l),
(148,710,l),
(0,713,l),
(0,688,l),
(20,686,ls),
(89,678,o),
(106,676,o),
(106,577,cs),
(106,223,ls),
(106,57,o),
(202,-11,o),
(369,-11,cs)
);
}
);
width = 720;
}
);
note = Uhungarumlaut;
unicode = 368;
},
{
glyphname = Umacron;
kernLeft = U;
kernRight = U;
lastChange = "2022-11-17 08:20:49 +0000";
layers = (
{
layerId = m01;
shapes = (
{
closed = 1;
nodes = (
(267,834,l),
(494,834,l),
(494,874,l),
(267,874,l)
);
},
{
closed = 1;
nodes = (
(533,-11,o),
(614,74,o),
(614,229,cs),
(614,577,ls),
(614,676,o),
(631,678,o),
(700,686,cs),
(720,688,l),
(720,713,l),
(621,711,l),
(473,713,l),
(473,688,l),
(493,686,ls),
(562,678,o),
(579,676,o),
(579,577,cs),
(579,229,ls),
(579,101,o),
(522,22,o),
(388,22,cs),
(272,22,o),
(191,88,o),
(191,223,cs),
(191,577,ls),
(191,676,o),
(208,678,o),
(277,686,cs),
(297,688,l),
(297,713,l),
(149,710,l),
(148,710,l),
(0,713,l),
(0,688,l),
(20,686,ls),
(89,678,o),
(106,676,o),
(106,577,cs),
(106,223,ls),
(106,57,o),
(202,-11,o),
(369,-11,cs)
);
}
);
width = 720;
}
);
note = Umacron;
unicode = 362;
},
{
glyphname = Uogonek;
kernLeft = U;
kernRight = U;
lastChange = "2022-11-17 08:20:49 +0000";
layers = (
{
layerId = m01;
shapes = (
{
closed = 1;
nodes = (
(403,-11,o),
(433,-7,o),
(460,0,c),
(410,-57,o),
(348,-125,o),
(348,-192,cs),
(348,-250,o),
(395,-294,o),
(456,-294,cs),
(542,-294,o),
(579,-234,o),
(586,-183,c),
(569,-170,l),
(550,-212,o),
(514,-239,o),
(477,-239,cs),
(429,-239,o),
(398,-210,o),
(398,-154,cs),
(398,-96,o),
(443,-47,o),
(498,13,c),
(575,48,o),
(614,122,o),
(614,229,cs),
(614,577,ls),
(614,676,o),
(631,678,o),
(700,686,cs),
(720,688,l),
(720,713,l),
(621,711,l),
(473,713,l),
(473,688,l),
(493,686,ls),
(562,678,o),
(579,676,o),
(579,577,cs),
(579,229,ls),
(579,101,o),
(522,22,o),
(388,22,cs),
(272,22,o),
(191,88,o),
(191,223,cs),
(191,577,ls),
(191,676,o),
(208,678,o),
(277,686,cs),
(297,688,l),
(297,713,l),
(149,710,l),
(148,710,l),
(0,713,l),
(0,688,l),
(20,686,ls),
(89,678,o),
(106,676,o),
(106,577,cs),
(106,223,ls),
(106,57,o),
(202,-11,o),
(369,-11,cs)
);
}
);
width = 720;
}
);
note = Uogonek;
unicode = 370;
},
{
glyphname = Uring;
kernLeft = U;
kernRight = U;
lastChange = "2022-11-17 08:20:49 +0000";
layers = (
{
layerId = m01;
shapes = (
{
closed = 1;
nodes = (
(426,766,o),
(469,792,o),
(469,851,cs),
(469,888,o),
(444,936,o),
(385,936,cs),
(330,936,o),
(300,893,o),
(300,851,cs),
(300,804,o),
(334,766,o),
(386,766,cs)
);
},
{
closed = 1;
nodes = (
(358,797,o),
(333,817,o),
(333,851,cs),
(333,889,o),
(362,905,o),
(385,905,cs),
(411,905,o),
(436,886,o),
(436,851,cs),
(436,815,o),
(411,797,o),
(386,797,cs)
);
},
{
closed = 1;
nodes = (
(533,-11,o),
(614,74,o),
(614,229,cs),
(614,577,ls),
(614,676,o),
(631,678,o),
(700,686,cs),
(720,688,l),
(720,713,l),
(621,711,l),
(473,713,l),
(473,688,l),
(493,686,ls),
(562,678,o),
(579,676,o),
(579,577,cs),
(579,229,ls),
(579,101,o),
(522,22,o),
(388,22,cs),
(272,22,o),
(191,88,o),
(191,223,cs),
(191,577,ls),
(191,676,o),
(208,678,o),
(277,686,cs),
(297,688,l),
(297,713,l),
(149,710,l),
(148,710,l),
(0,713,l),
(0,688,l),
(20,686,ls),
(89,678,o),
(106,676,o),
(106,577,cs),
(106,223,ls),
(106,57,o),
(202,-11,o),
(369,-11,cs)
);
}
);
width = 720;
}
);
note = Uring;
unicode = 366;
},
{
glyphname = Utilde;
kernLeft = U;
kernRight = U;
lastChange = "2022-11-17 08:20:49 +0000";
layers = (
{
layerId = m01;
shapes = (
{
closed = 1;
nodes = (
(499,801,o),
(533,840,o),
(540,900,c),
(521,900,l),
(512,872,o),
(494,849,o),
(467,849,cs),
(449,849,o),
(426,862,o),
(416,868,cs),
(379,890,ls),
(366,898,o),
(337,916,o),
(312,916,cs),
(251,916,o),
(226,841,o),
(226,812,c),
(245,812,l),
(251,836,o),
(275,868,o),
(304,868,cs),
(322,868,o),
(341,857,o),
(365,842,cs),
(391,826,ls),
(408,816,o),
(434,801,o),
(459,801,cs)
);
},
{
closed = 1;
nodes = (
(533,-11,o),
(614,74,o),
(614,229,cs),
(614,577,ls),
(614,676,o),
(631,678,o),
(700,686,cs),
(720,688,l),
(720,713,l),
(621,711,l),
(473,713,l),
(473,688,l),
(493,686,ls),
(562,678,o),
(579,676,o),
(579,577,cs),
(579,229,ls),
(579,101,o),
(522,22,o),
(388,22,cs),
(272,22,o),
(191,88,o),
(191,223,cs),
(191,577,ls),
(191,676,o),
(208,678,o),
(277,686,cs),
(297,688,l),
(297,713,l),
(149,710,l),
(148,710,l),
(0,713,l),
(0,688,l),
(20,686,ls),
(89,678,o),
(106,676,o),
(106,577,cs),
(106,223,ls),
(106,57,o),
(202,-11,o),
(369,-11,cs)
);
}
);
width = 720;
}
);
note = Utilde;
unicode = 360;
},
{
glyphname = V;
kernLeft = V;
kernRight = V;
lastChange = "2022-11-17 08:20:49 +0000";
layers = (
{
layerId = m01;
shapes = (
{
closed = 1;
nodes = (
(371,-10,l),
(403,-10,l),
(643,587,ls),
(666,644,o),
(689,673,o),
(740,684,cs),
(763,689,l),
(763,713,l),
(663,710,l),
(523,713,l),
(523,688,l),
(558,684,ls),
(595,680,o),
(618,666,o),
(618,634,cs),
(618,622,o),
(615,607,o),
(607,588,cs),
(413,108,l),
(211,587,ls),
(204,604,o),
(200,619,o),
(200,632,cs),
(200,665,o),
(226,681,o),
(268,685,cs),
(298,688,l),
(298,713,l),
(149,710,l),
(0,713,l),
(0,688,l),
(20,684,ls),
(69,674,o),
(92,648,o),
(109,607,cs)
);
}
);
width = 763;
}
);
note = V;
unicode = 86;
},
{
glyphname = W;
kernLeft = V;
kernRight = V;
lastChange = "2022-11-17 08:20:49 +0000";
layers = (
{
layerId = m01;
shapes = (
{
closed = 1;
nodes = (
(310,-9,l),
(342,-9,l),
(541,530,l),
(743,-9,l),
(775,-9,l),
(967,621,ls),
(978,658,o),
(1011,676,o),
(1055,683,cs),
(1079,687,l),
(1079,713,l),
(973,710,l),
(841,713,l),
(841,687,l),
(874,683,ls),
(912,678,o),
(933,668,o),
(933,639,cs),
(933,631,o),
(931,621,o),
(928,610,cs),
(781,129,l),
(614,582,ls),
(607,600,o),
(604,616,o),
(604,629,cs),
(604,662,o),
(626,681,o),
(669,684,cs),
(707,687,l),
(705,713,l),
(668,711,ls),
(632,709,o),
(588,704,o),
(567,664,c),
(557,688,o),
(529,703,o),
(479,708,cs),
(437,713,l),
(433,687,l),
(473,681,ls),
(512,675,o),
(536,660,o),
(536,629,cs),
(536,621,o),
(534,611,o),
(530,599,cs),
(356,126,l),
(203,598,ls),
(198,612,o),
(196,623,o),
(196,633,cs),
(196,674,o),
(234,681,o),
(270,685,cs),
(298,688,l),
(298,713,l),
(150,710,l),
(0,713,l),
(0,688,l),
(23,683,ls),
(66,674,o),
(96,651,o),
(114,594,cs)
);
}
);
width = 1079;
}
);
note = W;
unicode = 87;
},
{
glyphname = Wacute;
kernLeft = V;
kernRight = V;
lastChange = "2022-11-17 08:20:49 +0000";
layers = (
{
layerId = m01;
shapes = (
{
closed = 1;
nodes = (
(524,794,l),
(546,794,l),
(620,913,ls),
(630,929,o),
(637,946,o),
(637,962,cs),
(637,986,o),
(622,998,o),
(606,998,cs),
(590,998,o),
(574,984,o),
(563,942,cs)
);
},
{
closed = 1;
nodes = (
(310,-9,l),
(342,-9,l),
(541,530,l),
(743,-9,l),
(775,-9,l),
(967,621,ls),
(978,658,o),
(1011,676,o),
(1055,683,cs),
(1079,687,l),
(1079,713,l),
(973,710,l),
(841,713,l),
(841,687,l),
(874,683,ls),
(912,678,o),
(933,668,o),
(933,639,cs),
(933,631,o),
(931,621,o),
(928,610,cs),
(781,129,l),
(614,582,ls),
(607,600,o),
(604,616,o),
(604,629,cs),
(604,662,o),
(626,681,o),
(669,684,cs),
(707,687,l),
(705,713,l),
(668,711,ls),
(632,709,o),
(588,704,o),
(567,664,c),
(557,688,o),
(529,703,o),
(479,708,cs),
(437,713,l),
(433,687,l),
(473,681,ls),
(512,675,o),
(536,660,o),
(536,629,cs),
(536,621,o),
(534,611,o),
(530,599,cs),
(356,126,l),
(203,598,ls),
(198,612,o),
(196,623,o),
(196,633,cs),
(196,674,o),
(234,681,o),
(270,685,cs),
(298,688,l),
(298,713,l),
(150,710,l),
(0,713,l),
(0,688,l),
(23,683,ls),
(66,674,o),
(96,651,o),
(114,594,cs)
);
}
);
width = 1079;
}
);
note = Wacute;
unicode = 7810;
},
{
glyphname = Wcircumflex;
kernLeft = V;
kernRight = V;
lastChange = "2022-11-17 08:20:49 +0000";
layers = (
{
layerId = m01;
shapes = (
{
closed = 1;
nodes = (
(453,761,l),
(477,761,l),
(555,853,l),
(561,853,l),
(639,761,l),
(663,761,l),
(569,940,l),
(547,940,l)
);
},
{
closed = 1;
nodes = (
(310,-9,l),
(342,-9,l),
(541,530,l),
(743,-9,l),
(775,-9,l),
(967,621,ls),
(978,658,o),
(1011,676,o),
(1055,683,cs),
(1079,687,l),
(1079,713,l),
(973,710,l),
(841,713,l),
(841,687,l),
(874,683,ls),
(912,678,o),
(933,668,o),
(933,639,cs),
(933,631,o),
(931,621,o),
(928,610,cs),
(781,129,l),
(614,582,ls),
(607,600,o),
(604,616,o),
(604,629,cs),
(604,662,o),
(626,681,o),
(669,684,cs),
(707,687,l),
(705,713,l),
(668,711,ls),
(632,709,o),
(588,704,o),
(567,664,c),
(557,688,o),
(529,703,o),
(479,708,cs),
(437,713,l),
(433,687,l),
(473,681,ls),
(512,675,o),
(536,660,o),
(536,629,cs),
(536,621,o),
(534,611,o),
(530,599,cs),
(356,126,l),
(203,598,ls),
(198,612,o),
(196,623,o),
(196,633,cs),
(196,674,o),
(234,681,o),
(270,685,cs),
(298,688,l),
(298,713,l),
(150,710,l),
(0,713,l),
(0,688,l),
(23,683,ls),
(66,674,o),
(96,651,o),
(114,594,cs)
);
}
);
width = 1079;
}
);
note = Wcircumflex;
unicode = 372;
},
{
glyphname = Wdieresis;
kernLeft = V;
kernRight = V;
lastChange = "2022-11-17 08:20:49 +0000";
layers = (
{
layerId = m01;
shapes = (
{
closed = 1;
nodes = (
(502,822,o),
(518,847,o),
(518,879,cs),
(518,910,o),
(502,935,o),
(468,935,cs),
(436,935,o),
(417,910,o),
(417,879,cs),
(417,847,o),
(436,822,o),
(468,822,cs)
);
},
{
closed = 1;
nodes = (
(692,822,o),
(708,847,o),
(708,879,cs),
(708,910,o),
(692,935,o),
(658,935,cs),
(626,935,o),
(607,910,o),
(607,879,cs),
(607,847,o),
(626,822,o),
(658,822,cs)
);
},
{
closed = 1;
nodes = (
(310,-9,l),
(342,-9,l),
(541,530,l),
(743,-9,l),
(775,-9,l),
(967,621,ls),
(978,658,o),
(1011,676,o),
(1055,683,cs),
(1079,687,l),
(1079,713,l),
(973,710,l),
(841,713,l),
(841,687,l),
(874,683,ls),
(912,678,o),
(933,668,o),
(933,639,cs),
(933,631,o),
(931,621,o),
(928,610,cs),
(781,129,l),
(614,582,ls),
(607,600,o),
(604,616,o),
(604,629,cs),
(604,662,o),
(626,681,o),
(669,684,cs),
(707,687,l),
(705,713,l),
(668,711,ls),
(632,709,o),
(588,704,o),
(567,664,c),
(557,688,o),
(529,703,o),
(479,708,cs),
(437,713,l),
(433,687,l),
(473,681,ls),
(512,675,o),
(536,660,o),
(536,629,cs),
(536,621,o),
(534,611,o),
(530,599,cs),
(356,126,l),
(203,598,ls),
(198,612,o),
(196,623,o),
(196,633,cs),
(196,674,o),
(234,681,o),
(270,685,cs),
(298,688,l),
(298,713,l),
(150,710,l),
(0,713,l),
(0,688,l),
(23,683,ls),
(66,674,o),
(96,651,o),
(114,594,cs)
);
}
);
width = 1079;
}
);
note = Wdieresis;
unicode = 7812;
},
{
glyphname = Wgrave;
kernLeft = V;
kernRight = V;
lastChange = "2022-11-17 08:20:49 +0000";
layers = (
{
layerId = m01;
shapes = (
{
closed = 1;
nodes = (
(592,794,l),
(553,942,ls),
(542,984,o),
(526,998,o),
(510,998,cs),
(494,998,o),
(479,986,o),
(479,962,cs),
(479,946,o),
(486,929,o),
(496,913,cs),
(570,794,l)
);
},
{
closed = 1;
nodes = (
(310,-9,l),
(342,-9,l),
(541,530,l),
(743,-9,l),
(775,-9,l),
(967,621,ls),
(978,658,o),
(1011,676,o),
(1055,683,cs),
(1079,687,l),
(1079,713,l),
(973,710,l),
(841,713,l),
(841,687,l),
(874,683,ls),
(912,678,o),
(933,668,o),
(933,639,cs),
(933,631,o),
(931,621,o),
(928,610,cs),
(781,129,l),
(614,582,ls),
(607,600,o),
(604,616,o),
(604,629,cs),
(604,662,o),
(626,681,o),
(669,684,cs),
(707,687,l),
(705,713,l),
(668,711,ls),
(632,709,o),
(588,704,o),
(567,664,c),
(557,688,o),
(529,703,o),
(479,708,cs),
(437,713,l),
(433,687,l),
(473,681,ls),
(512,675,o),
(536,660,o),
(536,629,cs),
(536,621,o),
(534,611,o),
(530,599,cs),
(356,126,l),
(203,598,ls),
(198,612,o),
(196,623,o),
(196,633,cs),
(196,674,o),
(234,681,o),
(270,685,cs),
(298,688,l),
(298,713,l),
(150,710,l),
(0,713,l),
(0,688,l),
(23,683,ls),
(66,674,o),
(96,651,o),
(114,594,cs)
);
}
);
width = 1079;
}
);
note = Wgrave;
unicode = 7808;
},
{
glyphname = X;
kernLeft = X;
kernRight = X;
lastChange = "2022-11-17 08:20:49 +0000";
layers = (
{
layerId = m01;
shapes = (
{
closed = 1;
nodes = (
(0,-3,l),
(124,0,l),
(248,-3,l),
(248,22,l),
(210,26,ls),
(188,28,o),
(176,42,o),
(176,62,cs),
(176,75,o),
(180,92,o),
(192,109,cs),
(343,319,l),
(469,129,ls),
(486,103,o),
(495,81,o),
(495,64,cs),
(495,43,o),
(480,29,o),
(448,26,cs),
(407,22,l),
(407,-3,l),
(578,0,l),
(727,-3,l),
(727,22,l),
(697,27,ls),
(655,34,o),
(618,56,o),
(576,119,cs),
(402,380,l),
(549,583,ls),
(602,657,o),
(649,682,o),
(687,686,cs),
(708,688,l),
(708,713,l),
(592,710,l),
(460,713,l),
(460,688,l),
(493,684,ls),
(524,680,o),
(537,666,o),
(537,646,cs),
(537,633,o),
(531,617,o),
(519,600,cs),
(382,409,l),
(270,577,ls),
(250,607,o),
(240,630,o),
(240,647,cs),
(240,668,o),
(257,679,o),
(292,683,cs),
(334,688,l),
(334,713,l),
(179,710,l),
(14,713,l),
(14,688,l),
(34,684,ls),
(85,674,o),
(114,664,o),
(160,594,cs),
(324,348,l),
(162,126,ls),
(100,40,o),
(60,31,o),
(21,25,cs),
(0,22,l)
);
}
);
width = 727;
}
);
note = X;
unicode = 88;
},
{
glyphname = Y;
kernLeft = Y;
kernRight = Y;
lastChange = "2022-11-17 08:20:49 +0000";
layers = (
{
layerId = m01;
shapes = (
{
closed = 1;
nodes = (
(208,-3,l),
(356,0,l),
(357,0,l),
(505,-3,l),
(505,22,l),
(485,24,ls),
(416,32,o),
(399,34,o),
(399,133,cs),
(399,288,l),
(581,606,ls),
(609,655,o),
(632,675,o),
(675,683,cs),
(702,688,l),
(702,713,l),
(596,708,l),
(464,713,l),
(464,688,l),
(493,685,ls),
(526,682,o),
(550,672,o),
(550,644,cs),
(550,629,o),
(543,609,o),
(528,582,cs),
(383,328,l),
(237,582,ls),
(222,608,o),
(215,628,o),
(215,643,cs),
(215,670,o),
(237,682,o),
(270,685,cs),
(302,688,l),
(302,713,l),
(152,710,l),
(0,713,l),
(0,688,l),
(29,682,ls),
(83,671,o),
(108,647,o),
(139,593,cs),
(314,287,l),
(314,133,ls),
(314,34,o),
(297,32,o),
(228,24,cs),
(208,22,l)
);
}
);
width = 702;
}
);
note = Y;
unicode = 89;
},
{
glyphname = Yacute;
kernLeft = Y;
kernRight = Y;
lastChange = "2022-11-17 08:20:49 +0000";
layers = (
{
layerId = m01;
shapes = (
{
closed = 1;
nodes = (
(360,794,l),
(382,794,l),
(456,913,ls),
(466,929,o),
(473,946,o),
(473,962,cs),
(473,986,o),
(458,998,o),
(442,998,cs),
(426,998,o),
(410,984,o),
(399,942,cs)
);
},
{
closed = 1;
nodes = (
(208,-3,l),
(356,0,l),
(357,0,l),
(505,-3,l),
(505,22,l),
(485,24,ls),
(416,32,o),
(399,34,o),
(399,133,cs),
(399,288,l),
(581,606,ls),
(609,655,o),
(632,675,o),
(675,683,cs),
(702,688,l),
(702,713,l),
(596,708,l),
(464,713,l),
(464,688,l),
(493,685,ls),
(526,682,o),
(550,672,o),
(550,644,cs),
(550,629,o),
(543,609,o),
(528,582,cs),
(383,328,l),
(237,582,ls),
(222,608,o),
(215,628,o),
(215,643,cs),
(215,670,o),
(237,682,o),
(270,685,cs),
(302,688,l),
(302,713,l),
(152,710,l),
(0,713,l),
(0,688,l),
(29,682,ls),
(83,671,o),
(108,647,o),
(139,593,cs),
(314,287,l),
(314,133,ls),
(314,34,o),
(297,32,o),
(228,24,cs),
(208,22,l)
);
}
);
width = 702;
}
);
note = Yacute;
unicode = 221;
},
{
glyphname = Ycircumflex;
kernLeft = Y;
kernRight = Y;
lastChange = "2022-11-17 08:20:49 +0000";
layers = (
{
layerId = m01;
shapes = (
{
closed = 1;
nodes = (
(290,794,l),
(314,794,l),
(392,892,l),
(398,892,l),
(476,794,l),
(500,794,l),
(406,984,l),
(384,984,l)
);
},
{
closed = 1;
nodes = (
(208,-3,l),
(356,0,l),
(357,0,l),
(505,-3,l),
(505,22,l),
(485,24,ls),
(416,32,o),
(399,34,o),
(399,133,cs),
(399,288,l),
(581,606,ls),
(609,655,o),
(632,675,o),
(675,683,cs),
(702,688,l),
(702,713,l),
(596,708,l),
(464,713,l),
(464,688,l),
(493,685,ls),
(526,682,o),
(550,672,o),
(550,644,cs),
(550,629,o),
(543,609,o),
(528,582,cs),
(383,328,l),
(237,582,ls),
(222,608,o),
(215,628,o),
(215,643,cs),
(215,670,o),
(237,682,o),
(270,685,cs),
(302,688,l),
(302,713,l),
(152,710,l),
(0,713,l),
(0,688,l),
(29,682,ls),
(83,671,o),
(108,647,o),
(139,593,cs),
(314,287,l),
(314,133,ls),
(314,34,o),
(297,32,o),
(228,24,cs),
(208,22,l)
);
}
);
width = 702;
}
);
note = Ycircumflex;
unicode = 374;
},
{
glyphname = Ydieresis;
kernLeft = Y;
kernRight = Y;
lastChange = "2022-11-17 08:20:49 +0000";
layers = (
{
layerId = m01;
shapes = (
{
closed = 1;
nodes = (
(338,822,o),
(354,847,o),
(354,879,cs),
(354,910,o),
(338,935,o),
(304,935,cs),
(272,935,o),
(253,910,o),
(253,879,cs),
(253,847,o),
(272,822,o),
(304,822,cs)
);
},
{
closed = 1;
nodes = (
(528,822,o),
(544,847,o),
(544,879,cs),
(544,910,o),
(528,935,o),
(494,935,cs),
(462,935,o),
(443,910,o),
(443,879,cs),
(443,847,o),
(462,822,o),
(494,822,cs)
);
},
{
closed = 1;
nodes = (
(208,-3,l),
(356,0,l),
(357,0,l),
(505,-3,l),
(505,22,l),
(485,24,ls),
(416,32,o),
(399,34,o),
(399,133,cs),
(399,288,l),
(581,606,ls),
(609,655,o),
(632,675,o),
(675,683,cs),
(702,688,l),
(702,713,l),
(596,708,l),
(464,713,l),
(464,688,l),
(493,685,ls),
(526,682,o),
(550,672,o),
(550,644,cs),
(550,629,o),
(543,609,o),
(528,582,cs),
(383,328,l),
(237,582,ls),
(222,608,o),
(215,628,o),
(215,643,cs),
(215,670,o),
(237,682,o),
(270,685,cs),
(302,688,l),
(302,713,l),
(152,710,l),
(0,713,l),
(0,688,l),
(29,682,ls),
(83,671,o),
(108,647,o),
(139,593,cs),
(314,287,l),
(314,133,ls),
(314,34,o),
(297,32,o),
(228,24,cs),
(208,22,l)
);
}
);
width = 702;
}
);
note = Ydieresis;
unicode = 376;
},
{
glyphname = Ygrave;
kernLeft = Y;
kernRight = Y;
lastChange = "2022-11-17 08:20:49 +0000";
layers = (
{
layerId = m01;
shapes = (
{
closed = 1;
nodes = (
(428,794,l),
(389,942,ls),
(378,984,o),
(362,998,o),
(346,998,cs),
(330,998,o),
(315,986,o),
(315,962,cs),
(315,946,o),
(322,929,o),
(332,913,cs),
(406,794,l)
);
},
{
closed = 1;
nodes = (
(208,-3,l),
(356,0,l),
(357,0,l),
(505,-3,l),
(505,22,l),
(485,24,ls),
(416,32,o),
(399,34,o),
(399,133,cs),
(399,288,l),
(581,606,ls),
(609,655,o),
(632,675,o),
(675,683,cs),
(702,688,l),
(702,713,l),
(596,708,l),
(464,713,l),
(464,688,l),
(493,685,ls),
(526,682,o),
(550,672,o),
(550,644,cs),
(550,629,o),
(543,609,o),
(528,582,cs),
(383,328,l),
(237,582,ls),
(222,608,o),
(215,628,o),
(215,643,cs),
(215,670,o),
(237,682,o),
(270,685,cs),
(302,688,l),
(302,713,l),
(152,710,l),
(0,713,l),
(0,688,l),
(29,682,ls),
(83,671,o),
(108,647,o),
(139,593,cs),
(314,287,l),
(314,133,ls),
(314,34,o),
(297,32,o),
(228,24,cs),
(208,22,l)
);
}
);
width = 702;
}
);
note = Ygrave;
unicode = 7922;
},
{
glyphname = uni1EF8;
kernLeft = Y;
kernRight = Y;
lastChange = "2022-11-17 08:20:49 +0000";
layers = (
{
layerId = m01;
shapes = (
{
closed = 1;
nodes = (
(510,801,o),
(544,840,o),
(551,900,c),
(532,900,l),
(523,872,o),
(505,849,o),
(478,849,cs),
(460,849,o),
(437,862,o),
(427,868,cs),
(390,890,ls),
(377,898,o),
(348,916,o),
(323,916,cs),
(262,916,o),
(237,841,o),
(237,812,c),
(256,812,l),
(262,836,o),
(286,868,o),
(315,868,cs),
(333,868,o),
(352,857,o),
(376,842,cs),
(402,826,ls),
(419,816,o),
(445,801,o),
(470,801,cs)
);
},
{
closed = 1;
nodes = (
(208,-3,l),
(356,0,l),
(357,0,l),
(505,-3,l),
(505,22,l),
(485,24,ls),
(416,32,o),
(399,34,o),
(399,133,cs),
(399,288,l),
(581,606,ls),
(609,655,o),
(632,675,o),
(675,683,cs),
(702,688,l),
(702,713,l),
(596,708,l),
(464,713,l),
(464,688,l),
(493,685,ls),
(526,682,o),
(550,672,o),
(550,644,cs),
(550,629,o),
(543,609,o),
(528,582,cs),
(383,328,l),
(237,582,ls),
(222,608,o),
(215,628,o),
(215,643,cs),
(215,670,o),
(237,682,o),
(270,685,cs),
(302,688,l),
(302,713,l),
(152,710,l),
(0,713,l),
(0,688,l),
(29,682,ls),
(83,671,o),
(108,647,o),
(139,593,cs),
(314,287,l),
(314,133,ls),
(314,34,o),
(297,32,o),
(228,24,cs),
(208,22,l)
);
}
);
width = 702;
}
);
note = uni1EF8;
unicode = 7928;
},
{
glyphname = Z;
kernLeft = B;
kernRight = E;
lastChange = "2022-11-17 08:20:49 +0000";
layers = (
{
layerId = m01;
shapes = (
{
closed = 1;
nodes = (
(559,-3,l),
(559,100,l),
(569,267,l),
(545,267,l),
(524,115,o),
(499,33,o),
(348,32,cs),
(104,30,l),
(555,679,l),
(555,713,l),
(331,710,l),
(36,712,l),
(34,659,l),
(23,526,l),
(47,526,l),
(63,640,o),
(77,676,o),
(259,678,cs),
(455,680,l),
(0,26,l),
(0,0,l),
(353,0,l)
);
}
);
width = 569;
}
);
note = Z;
unicode = 90;
},
{
glyphname = Zacute;
kernLeft = B;
kernRight = E;
lastChange = "2022-11-17 08:20:49 +0000";
layers = (
{
layerId = m01;
shapes = (
{
closed = 1;
nodes = (
(244,794,l),
(266,794,l),
(340,913,ls),
(350,929,o),
(357,946,o),
(357,962,cs),
(357,986,o),
(342,998,o),
(326,998,cs),
(310,998,o),
(294,984,o),
(283,942,cs)
);
},
{
closed = 1;
nodes = (
(559,-3,l),
(559,100,l),
(569,267,l),
(545,267,l),
(524,115,o),
(499,33,o),
(348,32,cs),
(104,30,l),
(555,679,l),
(555,713,l),
(331,710,l),
(36,712,l),
(34,659,l),
(23,526,l),
(47,526,l),
(63,640,o),
(77,676,o),
(259,678,cs),
(455,680,l),
(0,26,l),
(0,0,l),
(353,0,l)
);
}
);
width = 569;
}
);
note = Zacute;
unicode = 377;
},
{
glyphname = Zcaron;
kernLeft = B;
kernRight = E;
lastChange = "2022-11-17 08:20:49 +0000";
layers = (
{
layerId = m01;
shapes = (
{
closed = 1;
nodes = (
(175,940,l),
(269,760,l),
(291,760,l),
(385,940,l),
(361,940,l),
(283,847,l),
(277,847,l),
(199,940,l)
);
},
{
closed = 1;
nodes = (
(559,-3,l),
(559,100,l),
(569,267,l),
(545,267,l),
(524,115,o),
(499,33,o),
(348,32,cs),
(104,30,l),
(555,679,l),
(555,713,l),
(331,710,l),
(36,712,l),
(34,659,l),
(23,526,l),
(47,526,l),
(63,640,o),
(77,676,o),
(259,678,cs),
(455,680,l),
(0,26,l),
(0,0,l),
(353,0,l)
);
}
);
width = 569;
}
);
note = Zcaron;
unicode = 381;
},
{
glyphname = Zdotaccent;
kernLeft = B;
kernRight = E;
lastChange = "2022-11-17 08:20:49 +0000";
layers = (
{
layerId = m01;
shapes = (
{
closed = 1;
nodes = (
(314,839,o),
(332,866,o),
(332,900,cs),
(332,934,o),
(314,961,o),
(276,961,cs),
(241,961,o),
(220,934,o),
(220,900,cs),
(220,866,o),
(241,839,o),
(276,839,cs)
);
},
{
closed = 1;
nodes = (
(559,-3,l),
(559,100,l),
(569,267,l),
(545,267,l),
(524,115,o),
(499,33,o),
(348,32,cs),
(104,30,l),
(555,679,l),
(555,713,l),
(331,710,l),
(36,712,l),
(34,659,l),
(23,526,l),
(47,526,l),
(63,640,o),
(77,676,o),
(259,678,cs),
(455,680,l),
(0,26,l),
(0,0,l),
(353,0,l)
);
}
);
width = 569;
}
);
note = Zdotaccent;
unicode = 379;
},
{
glyphname = a;
kernLeft = a;
kernRight = a;
lastChange = "2022-11-17 08:20:49 +0000";
layers = (
{
layerId = m01;
shapes = (
{
closed = 1;
nodes = (
(179,-11,o),
(239,22,o),
(276,82,c),
(279,26,o),
(297,-11,o),
(355,-11,cs),
(403,-11,o),
(429,13,o),
(440,52,c),
(422,59,l),
(416,41,o),
(401,24,o),
(381,24,cs),
(350,24,o),
(345,57,o),
(345,116,cs),
(345,296,ls),
(345,408,o),
(298,454,o),
(191,454,cs),
(116,454,o),
(19,427,o),
(19,356,cs),
(19,331,o),
(37,310,o),
(61,310,cs),
(86,310,o),
(107,325,o),
(107,350,cs),
(107,360,o),
(105,369,o),
(102,377,cs),
(100,383,o),
(98,390,o),
(98,396,cs),
(98,421,o),
(141,429,o),
(177,429,cs),
(253,429,o),
(275,393,o),
(275,320,cs),
(275,288,l),
(237,273,o),
(182,252,o),
(130,223,cs),
(61,185,o),
(0,141,o),
(0,82,cs),
(0,23,o),
(47,-11,o),
(111,-11,cs)
);
},
{
closed = 1;
nodes = (
(78,168,o),
(187,231,o),
(275,268,c),
(275,122,l),
(256,73,o),
(201,26,o),
(143,26,cs),
(100,26,o),
(78,50,o),
(78,87,cs)
);
}
);
width = 440;
}
);
note = a;
unicode = 97;
},
{
glyphname = aacute;
kernLeft = a;
kernRight = a;
lastChange = "2022-11-17 08:20:49 +0000";
layers = (
{
layerId = m01;
shapes = (
{
closed = 1;
nodes = (
(156,517,l),
(178,517,l),
(252,636,ls),
(262,652,o),
(269,669,o),
(269,685,cs),
(269,709,o),
(254,721,o),
(238,721,cs),
(222,721,o),
(206,707,o),
(195,665,cs)
);
},
{
closed = 1;
nodes = (
(179,-11,o),
(239,22,o),
(276,82,c),
(279,26,o),
(297,-11,o),
(355,-11,cs),
(403,-11,o),
(429,13,o),
(440,52,c),
(422,59,l),
(416,41,o),
(401,24,o),
(381,24,cs),
(350,24,o),
(345,57,o),
(345,116,cs),
(345,296,ls),
(345,408,o),
(298,454,o),
(191,454,cs),
(116,454,o),
(19,427,o),
(19,356,cs),
(19,331,o),
(37,310,o),
(61,310,cs),
(86,310,o),
(107,325,o),
(107,350,cs),
(107,360,o),
(105,369,o),
(102,377,cs),
(100,383,o),
(98,390,o),
(98,396,cs),
(98,421,o),
(141,429,o),
(177,429,cs),
(253,429,o),
(275,393,o),
(275,320,cs),
(275,288,l),
(237,273,o),
(182,252,o),
(130,223,cs),
(61,185,o),
(0,141,o),
(0,82,cs),
(0,23,o),
(47,-11,o),
(111,-11,cs)
);
},
{
closed = 1;
nodes = (
(78,168,o),
(187,231,o),
(275,268,c),
(275,122,l),
(256,73,o),
(201,26,o),
(143,26,cs),
(100,26,o),
(78,50,o),
(78,87,cs)
);
}
);
width = 440;
}
);
note = aacute;
unicode = 225;
},
{
glyphname = abreve;
kernLeft = a;
kernRight = a;
lastChange = "2022-11-17 08:20:49 +0000";
layers = (
{
layerId = m01;
shapes = (
{
closed = 1;
nodes = (
(259,544,o),
(293,595,o),
(293,660,cs),
(293,693,l),
(268,693,l),
(268,688,ls),
(268,622,o),
(240,604,o),
(192,604,cs),
(144,604,o),
(116,622,o),
(116,688,cs),
(116,693,l),
(91,693,l),
(91,660,ls),
(91,595,o),
(125,544,o),
(192,544,cs)
);
},
{
closed = 1;
nodes = (
(179,-11,o),
(239,22,o),
(276,82,c),
(279,26,o),
(297,-11,o),
(355,-11,cs),
(403,-11,o),
(429,13,o),
(440,52,c),
(422,59,l),
(416,41,o),
(401,24,o),
(381,24,cs),
(350,24,o),
(345,57,o),
(345,116,cs),
(345,296,ls),
(345,408,o),
(298,454,o),
(191,454,cs),
(116,454,o),
(19,427,o),
(19,356,cs),
(19,331,o),
(37,310,o),
(61,310,cs),
(86,310,o),
(107,325,o),
(107,350,cs),
(107,360,o),
(105,369,o),
(102,377,cs),
(100,383,o),
(98,390,o),
(98,396,cs),
(98,421,o),
(141,429,o),
(177,429,cs),
(253,429,o),
(275,393,o),
(275,320,cs),
(275,288,l),
(237,273,o),
(182,252,o),
(130,223,cs),
(61,185,o),
(0,141,o),
(0,82,cs),
(0,23,o),
(47,-11,o),
(111,-11,cs)
);
},
{
closed = 1;
nodes = (
(78,168,o),
(187,231,o),
(275,268,c),
(275,122,l),
(256,73,o),
(201,26,o),
(143,26,cs),
(100,26,o),
(78,50,o),
(78,87,cs)
);
}
);
width = 440;
}
);
note = abreve;
unicode = 259;
},
{
glyphname = uni01CE;
kernLeft = a;
kernRight = a;
lastChange = "2022-11-17 08:20:49 +0000";
layers = (
{
layerId = m01;
shapes = (
{
closed = 1;
nodes = (
(87,708,l),
(181,518,l),
(203,518,l),
(297,708,l),
(273,708,l),
(195,610,l),
(189,610,l),
(111,708,l)
);
},
{
closed = 1;
nodes = (
(179,-11,o),
(239,22,o),
(276,82,c),
(279,26,o),
(297,-11,o),
(355,-11,cs),
(403,-11,o),
(429,13,o),
(440,52,c),
(422,59,l),
(416,41,o),
(401,24,o),
(381,24,cs),
(350,24,o),
(345,57,o),
(345,116,cs),
(345,296,ls),
(345,408,o),
(298,454,o),
(191,454,cs),
(116,454,o),
(19,427,o),
(19,356,cs),
(19,331,o),
(37,310,o),
(61,310,cs),
(86,310,o),
(107,325,o),
(107,350,cs),
(107,360,o),
(105,369,o),
(102,377,cs),
(100,383,o),
(98,390,o),
(98,396,cs),
(98,421,o),
(141,429,o),
(177,429,cs),
(253,429,o),
(275,393,o),
(275,320,cs),
(275,288,l),
(237,273,o),
(182,252,o),
(130,223,cs),
(61,185,o),
(0,141,o),
(0,82,cs),
(0,23,o),
(47,-11,o),
(111,-11,cs)
);
},
{
closed = 1;
nodes = (
(78,168,o),
(187,231,o),
(275,268,c),
(275,122,l),
(256,73,o),
(201,26,o),
(143,26,cs),
(100,26,o),
(78,50,o),
(78,87,cs)
);
}
);
width = 440;
}
);
note = uni01CE;
unicode = 462;
},
{
glyphname = acircumflex;
kernLeft = a;
kernRight = a;
lastChange = "2022-11-17 08:20:49 +0000";
layers = (
{
layerId = m01;
shapes = (
{
closed = 1;
nodes = (
(86,517,l),
(110,517,l),
(188,615,l),
(194,615,l),
(272,517,l),
(296,517,l),
(202,707,l),
(180,707,l)
);
},
{
closed = 1;
nodes = (
(179,-11,o),
(239,22,o),
(276,82,c),
(279,26,o),
(297,-11,o),
(355,-11,cs),
(403,-11,o),
(429,13,o),
(440,52,c),
(422,59,l),
(416,41,o),
(401,24,o),
(381,24,cs),
(350,24,o),
(345,57,o),
(345,116,cs),
(345,296,ls),
(345,408,o),
(298,454,o),
(191,454,cs),
(116,454,o),
(19,427,o),
(19,356,cs),
(19,331,o),
(37,310,o),
(61,310,cs),
(86,310,o),
(107,325,o),
(107,350,cs),
(107,360,o),
(105,369,o),
(102,377,cs),
(100,383,o),
(98,390,o),
(98,396,cs),
(98,421,o),
(141,429,o),
(177,429,cs),
(253,429,o),
(275,393,o),
(275,320,cs),
(275,288,l),
(237,273,o),
(182,252,o),
(130,223,cs),
(61,185,o),
(0,141,o),
(0,82,cs),
(0,23,o),
(47,-11,o),
(111,-11,cs)
);
},
{
closed = 1;
nodes = (
(78,168,o),
(187,231,o),
(275,268,c),
(275,122,l),
(256,73,o),
(201,26,o),
(143,26,cs),
(100,26,o),
(78,50,o),
(78,87,cs)
);
}
);
width = 440;
}
);
note = acircumflex;
unicode = 226;
},
{
glyphname = adieresis;
kernLeft = a;
kernRight = a;
lastChange = "2022-11-17 08:20:49 +0000";
layers = (
{
layerId = m01;
shapes = (
{
closed = 1;
nodes = (
(128,564,o),
(144,589,o),
(144,621,cs),
(144,652,o),
(128,677,o),
(94,677,cs),
(62,677,o),
(43,652,o),
(43,621,cs),
(43,589,o),
(62,564,o),
(94,564,cs)
);
},
{
closed = 1;
nodes = (
(318,564,o),
(334,589,o),
(334,621,cs),
(334,652,o),
(318,677,o),
(284,677,cs),
(252,677,o),
(233,652,o),
(233,621,cs),
(233,589,o),
(252,564,o),
(284,564,cs)
);
},
{
closed = 1;
nodes = (
(179,-11,o),
(239,22,o),
(276,82,c),
(279,26,o),
(297,-11,o),
(355,-11,cs),
(403,-11,o),
(429,13,o),
(440,52,c),
(422,59,l),
(416,41,o),
(401,24,o),
(381,24,cs),
(350,24,o),
(345,57,o),
(345,116,cs),
(345,296,ls),
(345,408,o),
(298,454,o),
(191,454,cs),
(116,454,o),
(19,427,o),
(19,356,cs),
(19,331,o),
(37,310,o),
(61,310,cs),
(86,310,o),
(107,325,o),
(107,350,cs),
(107,360,o),
(105,369,o),
(102,377,cs),
(100,383,o),
(98,390,o),
(98,396,cs),
(98,421,o),
(141,429,o),
(177,429,cs),
(253,429,o),
(275,393,o),
(275,320,cs),
(275,288,l),
(237,273,o),
(182,252,o),
(130,223,cs),
(61,185,o),
(0,141,o),
(0,82,cs),
(0,23,o),
(47,-11,o),
(111,-11,cs)
);
},
{
closed = 1;
nodes = (
(78,168,o),
(187,231,o),
(275,268,c),
(275,122,l),
(256,73,o),
(201,26,o),
(143,26,cs),
(100,26,o),
(78,50,o),
(78,87,cs)
);
}
);
width = 440;
}
);
note = adieresis;
unicode = 228;
},
{
glyphname = agrave;
kernLeft = a;
kernRight = a;
lastChange = "2022-11-17 08:20:49 +0000";
layers = (
{
layerId = m01;
shapes = (
{
closed = 1;
nodes = (
(224,517,l),
(185,665,ls),
(174,707,o),
(158,721,o),
(142,721,cs),
(126,721,o),
(111,709,o),
(111,685,cs),
(111,669,o),
(118,652,o),
(128,636,cs),
(202,517,l)
);
},
{
closed = 1;
nodes = (
(179,-11,o),
(239,22,o),
(276,82,c),
(279,26,o),
(297,-11,o),
(355,-11,cs),
(403,-11,o),
(429,13,o),
(440,52,c),
(422,59,l),
(416,41,o),
(401,24,o),
(381,24,cs),
(350,24,o),
(345,57,o),
(345,116,cs),
(345,296,ls),
(345,408,o),
(298,454,o),
(191,454,cs),
(116,454,o),
(19,427,o),
(19,356,cs),
(19,331,o),
(37,310,o),
(61,310,cs),
(86,310,o),
(107,325,o),
(107,350,cs),
(107,360,o),
(105,369,o),
(102,377,cs),
(100,383,o),
(98,390,o),
(98,396,cs),
(98,421,o),
(141,429,o),
(177,429,cs),
(253,429,o),
(275,393,o),
(275,320,cs),
(275,288,l),
(237,273,o),
(182,252,o),
(130,223,cs),
(61,185,o),
(0,141,o),
(0,82,cs),
(0,23,o),
(47,-11,o),
(111,-11,cs)
);
},
{
closed = 1;
nodes = (
(78,168,o),
(187,231,o),
(275,268,c),
(275,122,l),
(256,73,o),
(201,26,o),
(143,26,cs),
(100,26,o),
(78,50,o),
(78,87,cs)
);
}
);
width = 440;
}
);
note = agrave;
unicode = 224;
},
{
glyphname = amacron;
kernLeft = a;
kernRight = a;
lastChange = "2022-11-17 08:20:49 +0000";
layers = (
{
layerId = m01;
shapes = (
{
closed = 1;
nodes = (
(77,598,l),
(304,598,l),
(304,638,l),
(77,638,l)
);
},
{
closed = 1;
nodes = (
(179,-11,o),
(239,22,o),
(276,82,c),
(279,26,o),
(297,-11,o),
(355,-11,cs),
(403,-11,o),
(429,13,o),
(440,52,c),
(422,59,l),
(416,41,o),
(401,24,o),
(381,24,cs),
(350,24,o),
(345,57,o),
(345,116,cs),
(345,296,ls),
(345,408,o),
(298,454,o),
(191,454,cs),
(116,454,o),
(19,427,o),
(19,356,cs),
(19,331,o),
(37,310,o),
(61,310,cs),
(86,310,o),
(107,325,o),
(107,350,cs),
(107,360,o),
(105,369,o),
(102,377,cs),
(100,383,o),
(98,390,o),
(98,396,cs),
(98,421,o),
(141,429,o),
(177,429,cs),
(253,429,o),
(275,393,o),
(275,320,cs),
(275,288,l),
(237,273,o),
(182,252,o),
(130,223,cs),
(61,185,o),
(0,141,o),
(0,82,cs),
(0,23,o),
(47,-11,o),
(111,-11,cs)
);
},
{
closed = 1;
nodes = (
(78,168,o),
(187,231,o),
(275,268,c),
(275,122,l),
(256,73,o),
(201,26,o),
(143,26,cs),
(100,26,o),
(78,50,o),
(78,87,cs)
);
}
);
width = 440;
}
);
note = amacron;
unicode = 257;
},
{
glyphname = aogonek;
kernLeft = a;
kernRight = a;
lastChange = "2022-11-17 08:20:49 +0000";
layers = (
{
layerId = m01;
shapes = (
{
closed = 1;
nodes = (
(179,-11,o),
(239,22,o),
(276,82,c),
(279,26,o),
(297,-11,o),
(355,-11,cs),
(358,-11,o),
(361,-11,o),
(365,-11,c),
(302,-72,o),
(260,-132,o),
(260,-187,cs),
(260,-251,o),
(306,-294,o),
(363,-294,cs),
(452,-294,o),
(504,-229,o),
(511,-178,c),
(491,-170,l),
(472,-206,o),
(442,-229,o),
(399,-229,cs),
(355,-229,o),
(320,-206,o),
(320,-157,cs),
(320,-103,o),
(354,-61,o),
(404,1,c),
(419,10,o),
(429,23,o),
(436,40,cs),
(437,44,o),
(439,48,o),
(440,52,c),
(422,59,l),
(416,41,o),
(401,24,o),
(381,24,cs),
(350,24,o),
(345,57,o),
(345,116,cs),
(345,296,ls),
(345,408,o),
(298,454,o),
(191,454,cs),
(116,454,o),
(19,427,o),
(19,356,cs),
(19,331,o),
(37,310,o),
(61,310,cs),
(86,310,o),
(107,325,o),
(107,350,cs),
(107,360,o),
(105,369,o),
(102,377,cs),
(100,383,o),
(98,390,o),
(98,396,cs),
(98,421,o),
(141,429,o),
(177,429,cs),
(253,429,o),
(275,393,o),
(275,320,cs),
(275,288,l),
(237,273,o),
(182,252,o),
(130,223,cs),
(61,185,o),
(0,141,o),
(0,82,cs),
(0,23,o),
(47,-11,o),
(111,-11,cs)
);
},
{
closed = 1;
nodes = (
(78,168,o),
(187,231,o),
(275,268,c),
(275,122,l),
(256,73,o),
(201,26,o),
(143,26,cs),
(100,26,o),
(78,50,o),
(78,87,cs)
);
}
);
width = 511;
}
);
note = aogonek;
unicode = 261;
},
{
glyphname = aring;
kernLeft = a;
kernRight = a;
lastChange = "2022-11-17 08:20:49 +0000";
layers = (
{
layerId = m01;
shapes = (
{
closed = 1;
nodes = (
(230,527,o),
(273,553,o),
(273,612,cs),
(273,649,o),
(248,697,o),
(189,697,cs),
(134,697,o),
(104,654,o),
(104,612,cs),
(104,565,o),
(138,527,o),
(190,527,cs)
);
},
{
closed = 1;
nodes = (
(162,558,o),
(137,578,o),
(137,612,cs),
(137,650,o),
(166,666,o),
(189,666,cs),
(215,666,o),
(240,647,o),
(240,612,cs),
(240,576,o),
(215,558,o),
(190,558,cs)
);
},
{
closed = 1;
nodes = (
(179,-11,o),
(239,22,o),
(276,82,c),
(279,26,o),
(297,-11,o),
(355,-11,cs),
(403,-11,o),
(429,13,o),
(440,52,c),
(422,59,l),
(416,41,o),
(401,24,o),
(381,24,cs),
(350,24,o),
(345,57,o),
(345,116,cs),
(345,296,ls),
(345,408,o),
(298,454,o),
(191,454,cs),
(116,454,o),
(19,427,o),
(19,356,cs),
(19,331,o),
(37,310,o),
(61,310,cs),
(86,310,o),
(107,325,o),
(107,350,cs),
(107,360,o),
(105,369,o),
(102,377,cs),
(100,383,o),
(98,390,o),
(98,396,cs),
(98,421,o),
(141,429,o),
(177,429,cs),
(253,429,o),
(275,393,o),
(275,320,cs),
(275,288,l),
(237,273,o),
(182,252,o),
(130,223,cs),
(61,185,o),
(0,141,o),
(0,82,cs),
(0,23,o),
(47,-11,o),
(111,-11,cs)
);
},
{
closed = 1;
nodes = (
(78,168,o),
(187,231,o),
(275,268,c),
(275,122,l),
(256,73,o),
(201,26,o),
(143,26,cs),
(100,26,o),
(78,50,o),
(78,87,cs)
);
}
);
width = 440;
}
);
note = aring;
unicode = 229;
},
{
glyphname = atilde;
kernLeft = a;
kernRight = a;
lastChange = "2022-11-17 08:20:49 +0000";
layers = (
{
layerId = m01;
shapes = (
{
closed = 1;
nodes = (
(307,550,o),
(341,589,o),
(348,649,c),
(329,649,l),
(320,621,o),
(302,598,o),
(275,598,cs),
(257,598,o),
(234,611,o),
(224,617,cs),
(187,639,ls),
(174,647,o),
(145,665,o),
(120,665,cs),
(59,665,o),
(34,590,o),
(34,561,c),
(53,561,l),
(59,585,o),
(83,617,o),
(112,617,cs),
(130,617,o),
(149,606,o),
(173,591,cs),
(199,575,ls),
(216,565,o),
(242,550,o),
(267,550,cs)
);
},
{
closed = 1;
nodes = (
(179,-11,o),
(239,22,o),
(276,82,c),
(279,26,o),
(297,-11,o),
(355,-11,cs),
(403,-11,o),
(429,13,o),
(440,52,c),
(422,59,l),
(416,41,o),
(401,24,o),
(381,24,cs),
(350,24,o),
(345,57,o),
(345,116,cs),
(345,296,ls),
(345,408,o),
(298,454,o),
(191,454,cs),
(116,454,o),
(19,427,o),
(19,356,cs),
(19,331,o),
(37,310,o),
(61,310,cs),
(86,310,o),
(107,325,o),
(107,350,cs),
(107,360,o),
(105,369,o),
(102,377,cs),
(100,383,o),
(98,390,o),
(98,396,cs),
(98,421,o),
(141,429,o),
(177,429,cs),
(253,429,o),
(275,393,o),
(275,320,cs),
(275,288,l),
(237,273,o),
(182,252,o),
(130,223,cs),
(61,185,o),
(0,141,o),
(0,82,cs),
(0,23,o),
(47,-11,o),
(111,-11,cs)
);
},
{
closed = 1;
nodes = (
(78,168,o),
(187,231,o),
(275,268,c),
(275,122,l),
(256,73,o),
(201,26,o),
(143,26,cs),
(100,26,o),
(78,50,o),
(78,87,cs)
);
}
);
width = 440;
}
);
note = atilde;
unicode = 227;
},
{
glyphname = ae;
kernLeft = a;
kernRight = ae;
lastChange = "2022-11-17 08:20:49 +0000";
layers = (
{
layerId = m01;
shapes = (
{
closed = 1;
nodes = (
(180,-11,o),
(247,27,o),
(287,93,c),
(328,32,o),
(395,-11,o),
(486,-11,cs),
(574,-11,o),
(633,31,o),
(661,117,c),
(637,124,l),
(611,55,o),
(559,21,o),
(500,21,cs),
(404,21,o),
(345,105,o),
(345,222,cs),
(345,245,l),
(647,245,l),
(649,251,o),
(652,262,o),
(652,275,cs),
(652,383,o),
(588,454,o),
(488,454,cs),
(416,454,o),
(364,421,o),
(331,379,c),
(313,421,o),
(275,454,o),
(193,454,cs),
(116,454,o),
(19,424,o),
(19,353,cs),
(19,328,o),
(37,310,o),
(60,310,cs),
(86,310,o),
(107,325,o),
(107,350,cs),
(107,360,o),
(105,369,o),
(102,377,cs),
(100,383,o),
(98,390,o),
(98,396,cs),
(98,421,o),
(152,429,o),
(188,429,cs),
(267,429,o),
(275,373,o),
(275,306,cs),
(275,288,l),
(187,255,o),
(0,179,o),
(0,83,cs),
(0,18,o),
(50,-11,o),
(119,-11,cs)
);
},
{
closed = 1;
nodes = (
(535,429,o),
(586,393,o),
(586,335,cs),
(586,305,o),
(567,268,o),
(474,268,cs),
(346,268,l),
(354,358,o),
(409,429,o),
(488,429,cs)
);
},
{
closed = 1;
nodes = (
(78,168,o),
(187,231,o),
(275,268,c),
(275,121,l),
(256,72,o),
(196,24,o),
(149,24,cs),
(109,24,o),
(78,49,o),
(78,87,cs)
);
}
);
width = 661;
}
);
note = ae;
unicode = 230;
},
{
glyphname = b;
kernLeft = b;
kernRight = ae;
lastChange = "2022-11-17 08:20:49 +0000";
layers = (
{
layerId = m01;
shapes = (
{
closed = 1;
nodes = (
(88,-11,l),
(104,-11,l),
(157,48,l),
(187,17,o),
(236,-11,o),
(293,-11,cs),
(412,-11,o),
(500,91,o),
(500,220,cs),
(500,351,o),
(412,454,o),
(297,454,cs),
(240,454,o),
(193,429,o),
(158,391,c),
(158,725,l),
(103,715,o),
(55,713,o),
(0,713,c),
(0,690,l),
(7,690,ls),
(57,690,o),
(88,678,o),
(88,609,cs)
);
},
{
closed = 1;
nodes = (
(376,424,o),
(420,336,o),
(420,220,cs),
(420,106,o),
(376,19,o),
(284,19,cs),
(229,19,o),
(180,53,o),
(158,87,c),
(158,357,l),
(188,394,o),
(230,424,o),
(287,424,cs)
);
}
);
width = 500;
}
);
note = b;
unicode = 98;
},
{
glyphname = c;
kernLeft = c;
kernRight = ae;
lastChange = "2022-11-17 08:20:49 +0000";
layers = (
{
layerId = m01;
shapes = (
{
closed = 1;
nodes = (
(297,-11,o),
(370,23,o),
(395,115,c),
(371,123,l),
(348,47,o),
(292,19,o),
(236,19,cs),
(134,19,o),
(80,110,o),
(80,216,cs),
(80,344,o),
(141,429,o),
(234,429,cs),
(254,429,o),
(290,424,o),
(290,406,cs),
(290,398,o),
(288,391,o),
(286,384,cs),
(284,377,o),
(282,369,o),
(282,359,cs),
(282,339,o),
(299,314,o),
(334,314,cs),
(360,314,o),
(382,335,o),
(382,365,cs),
(382,423,o),
(299,454,o),
(235,454,cs),
(101,454,o),
(0,351,o),
(0,211,cs),
(0,83,o),
(86,-11,o),
(221,-11,cs)
);
}
);
width = 395;
}
);
note = c;
unicode = 99;
},
{
glyphname = cacute;
kernLeft = c;
kernRight = ae;
lastChange = "2022-11-17 08:20:49 +0000";
layers = (
{
layerId = m01;
shapes = (
{
closed = 1;
nodes = (
(182,517,l),
(204,517,l),
(278,636,ls),
(288,652,o),
(295,669,o),
(295,685,cs),
(295,709,o),
(280,721,o),
(264,721,cs),
(248,721,o),
(232,707,o),
(221,665,cs)
);
},
{
closed = 1;
nodes = (
(297,-11,o),
(370,23,o),
(395,115,c),
(371,123,l),
(348,47,o),
(292,19,o),
(236,19,cs),
(134,19,o),
(80,110,o),
(80,216,cs),
(80,344,o),
(141,429,o),
(234,429,cs),
(254,429,o),
(290,424,o),
(290,406,cs),
(290,398,o),
(288,391,o),
(286,384,cs),
(284,377,o),
(282,369,o),
(282,359,cs),
(282,339,o),
(299,314,o),
(334,314,cs),
(360,314,o),
(382,335,o),
(382,365,cs),
(382,423,o),
(299,454,o),
(235,454,cs),
(101,454,o),
(0,351,o),
(0,211,cs),
(0,83,o),
(86,-11,o),
(221,-11,cs)
);
}
);
width = 395;
}
);
note = cacute;
unicode = 263;
},
{
glyphname = ccaron;
kernLeft = c;
kernRight = ae;
lastChange = "2022-11-17 08:20:49 +0000";
layers = (
{
layerId = m01;
shapes = (
{
closed = 1;
nodes = (
(113,708,l),
(207,518,l),
(229,518,l),
(323,708,l),
(299,708,l),
(221,610,l),
(215,610,l),
(137,708,l)
);
},
{
closed = 1;
nodes = (
(297,-11,o),
(370,23,o),
(395,115,c),
(371,123,l),
(348,47,o),
(292,19,o),
(236,19,cs),
(134,19,o),
(80,110,o),
(80,216,cs),
(80,344,o),
(141,429,o),
(234,429,cs),
(254,429,o),
(290,424,o),
(290,406,cs),
(290,398,o),
(288,391,o),
(286,384,cs),
(284,377,o),
(282,369,o),
(282,359,cs),
(282,339,o),
(299,314,o),
(334,314,cs),
(360,314,o),
(382,335,o),
(382,365,cs),
(382,423,o),
(299,454,o),
(235,454,cs),
(101,454,o),
(0,351,o),
(0,211,cs),
(0,83,o),
(86,-11,o),
(221,-11,cs)
);
}
);
width = 395;
}
);
note = ccaron;
unicode = 269;
},
{
glyphname = ccedilla;
kernLeft = c;
kernRight = ae;
lastChange = "2022-11-17 08:20:49 +0000";
layers = (
{
layerId = m01;
shapes = (
{
closed = 1;
nodes = (
(241,-292,o),
(295,-243,o),
(295,-169,cs),
(295,-115,o),
(260,-72,o),
(211,-60,c),
(228,-11,l),
(302,-9,o),
(371,26,o),
(395,115,c),
(371,123,l),
(348,47,o),
(292,19,o),
(236,19,cs),
(134,19,o),
(80,110,o),
(80,216,cs),
(80,344,o),
(141,429,o),
(234,429,cs),
(254,429,o),
(290,424,o),
(290,406,cs),
(290,398,o),
(288,391,o),
(286,384,cs),
(284,377,o),
(282,369,o),
(282,359,cs),
(282,339,o),
(299,314,o),
(334,314,cs),
(360,314,o),
(382,335,o),
(382,365,cs),
(382,423,o),
(299,454,o),
(235,454,cs),
(101,454,o),
(0,351,o),
(0,211,cs),
(0,90,o),
(77,0,o),
(199,-10,c),
(183,-57,l),
(147,-57,o),
(113,-75,o),
(94,-109,c),
(114,-122,l),
(129,-99,o),
(153,-82,o),
(176,-82,cs),
(220,-82,o),
(244,-120,o),
(244,-166,cs),
(244,-214,o),
(220,-264,o),
(173,-264,cs),
(132,-264,o),
(104,-234,o),
(98,-203,c),
(76,-210,l),
(85,-249,o),
(119,-292,o),
(179,-292,cs)
);
}
);
width = 395;
}
);
note = ccedilla;
unicode = 231;
},
{
glyphname = cdotaccent;
kernLeft = c;
kernRight = ae;
lastChange = "2022-11-17 08:20:49 +0000";
layers = (
{
layerId = m01;
shapes = (
{
closed = 1;
nodes = (
(252,562,o),
(270,589,o),
(270,623,cs),
(270,657,o),
(252,684,o),
(214,684,cs),
(179,684,o),
(158,657,o),
(158,623,cs),
(158,589,o),
(179,562,o),
(214,562,cs)
);
},
{
closed = 1;
nodes = (
(297,-11,o),
(370,23,o),
(395,115,c),
(371,123,l),
(348,47,o),
(292,19,o),
(236,19,cs),
(134,19,o),
(80,110,o),
(80,216,cs),
(80,344,o),
(141,429,o),
(234,429,cs),
(254,429,o),
(290,424,o),
(290,406,cs),
(290,398,o),
(288,391,o),
(286,384,cs),
(284,377,o),
(282,369,o),
(282,359,cs),
(282,339,o),
(299,314,o),
(334,314,cs),
(360,314,o),
(382,335,o),
(382,365,cs),
(382,423,o),
(299,454,o),
(235,454,cs),
(101,454,o),
(0,351,o),
(0,211,cs),
(0,83,o),
(86,-11,o),
(221,-11,cs)
);
}
);
width = 395;
}
);
note = cdotaccent;
unicode = 267;
},
{
glyphname = d;
kernLeft = c;
lastChange = "2022-11-17 08:20:49 +0000";
layers = (
{
layerId = m01;
shapes = (
{
closed = 1;
nodes = (
(265,-11,o),
(315,19,o),
(351,62,c),
(364,-8,l),
(399,-1,o),
(424,0,o),
(454,0,cs),
(495,0,l),
(495,23,l),
(441,23,o),
(412,34,o),
(412,109,cs),
(412,725,l),
(357,715,o),
(309,713,o),
(254,713,c),
(254,690,l),
(261,690,ls),
(311,690,o),
(342,678,o),
(342,609,cs),
(342,397,l),
(312,427,o),
(263,454,o),
(207,454,cs),
(88,454,o),
(0,352,o),
(0,223,cs),
(0,92,o),
(88,-11,o),
(203,-11,cs)
);
},
{
closed = 1;
nodes = (
(80,337,o),
(124,424,o),
(216,424,cs),
(271,424,o),
(320,390,o),
(342,356,c),
(342,86,l),
(312,49,o),
(270,19,o),
(213,19,cs),
(124,19,o),
(80,107,o),
(80,223,cs)
);
}
);
width = 495;
}
);
note = d;
unicode = 100;
},
{
glyphname = eth;
kernLeft = c;
kernRight = D;
lastChange = "2022-11-17 08:20:49 +0000";
layers = (
{
layerId = m01;
shapes = (
{
closed = 1;
nodes = (
(359,-11,o),
(460,92,o),
(460,237,cs),
(460,367,o),
(390,515,o),
(266,620,c),
(374,661,l),
(365,684,l),
(244,638,l),
(198,674,o),
(145,703,o),
(86,724,c),
(76,702,l),
(123,681,o),
(165,654,o),
(202,622,c),
(85,578,l),
(93,555,l),
(223,604,l),
(278,552,o),
(321,489,o),
(349,421,c),
(314,442,o),
(274,454,o),
(230,454,cs),
(101,454,o),
(0,351,o),
(0,220,cs),
(0,92,o),
(101,-11,o),
(230,-11,cs)
);
},
{
closed = 1;
nodes = (
(122,14,o),
(80,104,o),
(80,220,cs),
(80,339,o),
(122,429,o),
(230,429,cs),
(338,429,o),
(380,339,o),
(380,220,cs),
(380,104,o),
(338,14,o),
(230,14,cs)
);
}
);
width = 460;
}
);
note = eth;
unicode = 240;
},
{
glyphname = dcaron;
kernLeft = c;
kernRight = dcaron;
lastChange = "2022-11-17 08:20:49 +0000";
layers = (
{
layerId = m01;
shapes = (
{
closed = 1;
nodes = (
(265,-11,o),
(315,19,o),
(351,62,c),
(364,-8,l),
(399,-1,o),
(424,0,o),
(454,0,cs),
(495,0,l),
(495,23,l),
(441,23,o),
(412,34,o),
(412,109,cs),
(412,725,l),
(357,715,o),
(309,713,o),
(254,713,c),
(254,690,l),
(261,690,ls),
(311,690,o),
(342,678,o),
(342,609,cs),
(342,397,l),
(312,427,o),
(263,454,o),
(207,454,cs),
(88,454,o),
(0,352,o),
(0,223,cs),
(0,92,o),
(88,-11,o),
(203,-11,cs)
);
},
{
closed = 1;
nodes = (
(459,533,l),
(493,533,l),
(555,710,l),
(479,710,l)
);
},
{
closed = 1;
nodes = (
(80,337,o),
(124,424,o),
(216,424,cs),
(271,424,o),
(320,390,o),
(342,356,c),
(342,86,l),
(312,49,o),
(270,19,o),
(213,19,cs),
(124,19,o),
(80,107,o),
(80,223,cs)
);
}
);
width = 555;
}
);
note = dcaron;
unicode = 271;
},
{
glyphname = dcroat;
kernLeft = c;
lastChange = "2022-11-17 08:20:49 +0000";
layers = (
{
layerId = m01;
shapes = (
{
closed = 1;
nodes = (
(265,-11,o),
(315,19,o),
(351,62,c),
(364,-8,l),
(399,-1,o),
(424,0,o),
(454,0,cs),
(495,0,l),
(495,23,l),
(441,23,o),
(412,34,o),
(412,109,cs),
(412,554,l),
(467,554,l),
(467,579,l),
(412,579,l),
(412,725,l),
(357,715,o),
(309,713,o),
(254,713,c),
(254,690,l),
(261,690,ls),
(311,690,o),
(342,678,o),
(342,609,cs),
(342,579,l),
(212,579,l),
(212,554,l),
(342,554,l),
(342,397,l),
(312,427,o),
(263,454,o),
(207,454,cs),
(88,454,o),
(0,352,o),
(0,223,cs),
(0,92,o),
(88,-11,o),
(203,-11,cs)
);
},
{
closed = 1;
nodes = (
(80,337,o),
(124,424,o),
(216,424,cs),
(271,424,o),
(320,390,o),
(342,356,c),
(342,86,l),
(312,49,o),
(270,19,o),
(213,19,cs),
(124,19,o),
(80,107,o),
(80,223,cs)
);
}
);
width = 495;
}
);
note = dcroat;
unicode = 273;
},
{
glyphname = e;
kernLeft = c;
kernRight = ae;
lastChange = "2022-11-17 08:20:49 +0000";
layers = (
{
layerId = m01;
shapes = (
{
closed = 1;
nodes = (
(310,-11,o),
(369,31,o),
(397,115,c),
(373,124,l),
(346,54,o),
(295,19,o),
(233,19,cs),
(132,19,o),
(80,110,o),
(80,217,cs),
(80,227,o),
(80,236,o),
(81,245,c),
(383,245,l),
(384,249,o),
(386,260,o),
(386,276,cs),
(386,382,o),
(324,454,o),
(222,454,cs),
(100,454,o),
(0,351,o),
(0,212,cs),
(0,81,o),
(87,-11,o),
(219,-11,cs)
);
},
{
closed = 1;
nodes = (
(271,429,o),
(319,393,o),
(319,335,cs),
(319,305,o),
(300,268,o),
(210,268,cs),
(83,268,l),
(94,365,o),
(140,429,o),
(222,429,cs)
);
}
);
width = 397;
}
);
note = e;
unicode = 101;
},
{
glyphname = eacute;
kernLeft = c;
kernRight = ae;
lastChange = "2022-11-17 08:20:49 +0000";
layers = (
{
layerId = m01;
shapes = (
{
closed = 1;
nodes = (
(186,520,l),
(208,520,l),
(282,639,ls),
(292,655,o),
(299,672,o),
(299,688,cs),
(299,712,o),
(284,724,o),
(268,724,cs),
(252,724,o),
(236,710,o),
(225,668,cs)
);
},
{
closed = 1;
nodes = (
(310,-11,o),
(369,31,o),
(397,115,c),
(373,124,l),
(346,54,o),
(295,19,o),
(233,19,cs),
(132,19,o),
(80,110,o),
(80,217,cs),
(80,227,o),
(80,236,o),
(81,245,c),
(383,245,l),
(384,249,o),
(386,260,o),
(386,276,cs),
(386,382,o),
(324,454,o),
(222,454,cs),
(100,454,o),
(0,351,o),
(0,212,cs),
(0,81,o),
(87,-11,o),
(219,-11,cs)
);
},
{
closed = 1;
nodes = (
(271,429,o),
(319,393,o),
(319,335,cs),
(319,305,o),
(300,268,o),
(210,268,cs),
(83,268,l),
(94,365,o),
(140,429,o),
(222,429,cs)
);
}
);
width = 397;
}
);
note = eacute;
unicode = 233;
},
{
glyphname = ecaron;
kernLeft = c;
kernRight = ae;
lastChange = "2022-11-17 08:20:49 +0000";
layers = (
{
layerId = m01;
shapes = (
{
closed = 1;
nodes = (
(117,711,l),
(211,521,l),
(233,521,l),
(327,711,l),
(303,711,l),
(225,613,l),
(219,613,l),
(141,711,l)
);
},
{
closed = 1;
nodes = (
(310,-11,o),
(369,31,o),
(397,115,c),
(373,124,l),
(346,54,o),
(295,19,o),
(233,19,cs),
(132,19,o),
(80,110,o),
(80,217,cs),
(80,227,o),
(80,236,o),
(81,245,c),
(383,245,l),
(384,249,o),
(386,260,o),
(386,276,cs),
(386,382,o),
(324,454,o),
(222,454,cs),
(100,454,o),
(0,351,o),
(0,212,cs),
(0,81,o),
(87,-11,o),
(219,-11,cs)
);
},
{
closed = 1;
nodes = (
(271,429,o),
(319,393,o),
(319,335,cs),
(319,305,o),
(300,268,o),
(210,268,cs),
(83,268,l),
(94,365,o),
(140,429,o),
(222,429,cs)
);
}
);
width = 397;
}
);
note = ecaron;
unicode = 283;
},
{
glyphname = ecircumflex;
kernLeft = c;
kernRight = ae;
lastChange = "2022-11-17 08:20:49 +0000";
layers = (
{
layerId = m01;
shapes = (
{
closed = 1;
nodes = (
(116,520,l),
(140,520,l),
(218,618,l),
(224,618,l),
(302,520,l),
(326,520,l),
(232,710,l),
(210,710,l)
);
},
{
closed = 1;
nodes = (
(310,-11,o),
(369,31,o),
(397,115,c),
(373,124,l),
(346,54,o),
(295,19,o),
(233,19,cs),
(132,19,o),
(80,110,o),
(80,217,cs),
(80,227,o),
(80,236,o),
(81,245,c),
(383,245,l),
(384,249,o),
(386,260,o),
(386,276,cs),
(386,382,o),
(324,454,o),
(222,454,cs),
(100,454,o),
(0,351,o),
(0,212,cs),
(0,81,o),
(87,-11,o),
(219,-11,cs)
);
},
{
closed = 1;
nodes = (
(271,429,o),
(319,393,o),
(319,335,cs),
(319,305,o),
(300,268,o),
(210,268,cs),
(83,268,l),
(94,365,o),
(140,429,o),
(222,429,cs)
);
}
);
width = 397;
}
);
note = ecircumflex;
unicode = 234;
},
{
glyphname = edieresis;
kernLeft = c;
kernRight = ae;
lastChange = "2022-11-17 08:20:49 +0000";
layers = (
{
layerId = m01;
shapes = (
{
closed = 1;
nodes = (
(158,567,o),
(174,592,o),
(174,624,cs),
(174,655,o),
(158,680,o),
(124,680,cs),
(92,680,o),
(73,655,o),
(73,624,cs),
(73,592,o),
(92,567,o),
(124,567,cs)
);
},
{
closed = 1;
nodes = (
(348,567,o),
(364,592,o),
(364,624,cs),
(364,655,o),
(348,680,o),
(314,680,cs),
(282,680,o),
(263,655,o),
(263,624,cs),
(263,592,o),
(282,567,o),
(314,567,cs)
);
},
{
closed = 1;
nodes = (
(310,-11,o),
(369,31,o),
(397,115,c),
(373,124,l),
(346,54,o),
(295,19,o),
(233,19,cs),
(132,19,o),
(80,110,o),
(80,217,cs),
(80,227,o),
(80,236,o),
(81,245,c),
(383,245,l),
(384,249,o),
(386,260,o),
(386,276,cs),
(386,382,o),
(324,454,o),
(222,454,cs),
(100,454,o),
(0,351,o),
(0,212,cs),
(0,81,o),
(87,-11,o),
(219,-11,cs)
);
},
{
closed = 1;
nodes = (
(271,429,o),
(319,393,o),
(319,335,cs),
(319,305,o),
(300,268,o),
(210,268,cs),
(83,268,l),
(94,365,o),
(140,429,o),
(222,429,cs)
);
}
);
width = 397;
}
);
note = edieresis;
unicode = 235;
},
{
glyphname = edotaccent;
kernLeft = c;
kernRight = ae;
lastChange = "2022-11-17 08:20:49 +0000";
layers = (
{
layerId = m01;
shapes = (
{
closed = 1;
nodes = (
(256,565,o),
(274,592,o),
(274,626,cs),
(274,660,o),
(256,687,o),
(218,687,cs),
(183,687,o),
(162,660,o),
(162,626,cs),
(162,592,o),
(183,565,o),
(218,565,cs)
);
},
{
closed = 1;
nodes = (
(310,-11,o),
(369,31,o),
(397,115,c),
(373,124,l),
(346,54,o),
(295,19,o),
(233,19,cs),
(132,19,o),
(80,110,o),
(80,217,cs),
(80,227,o),
(80,236,o),
(81,245,c),
(383,245,l),
(384,249,o),
(386,260,o),
(386,276,cs),
(386,382,o),
(324,454,o),
(222,454,cs),
(100,454,o),
(0,351,o),
(0,212,cs),
(0,81,o),
(87,-11,o),
(219,-11,cs)
);
},
{
closed = 1;
nodes = (
(271,429,o),
(319,393,o),
(319,335,cs),
(319,305,o),
(300,268,o),
(210,268,cs),
(83,268,l),
(94,365,o),
(140,429,o),
(222,429,cs)
);
}
);
width = 397;
}
);
note = edotaccent;
unicode = 279;
},
{
glyphname = egrave;
kernLeft = c;
kernRight = ae;
lastChange = "2022-11-17 08:20:49 +0000";
layers = (
{
layerId = m01;
shapes = (
{
closed = 1;
nodes = (
(254,520,l),
(215,668,ls),
(204,710,o),
(188,724,o),
(172,724,cs),
(156,724,o),
(141,712,o),
(141,688,cs),
(141,672,o),
(148,655,o),
(158,639,cs),
(232,520,l)
);
},
{
closed = 1;
nodes = (
(310,-11,o),
(369,31,o),
(397,115,c),
(373,124,l),
(346,54,o),
(295,19,o),
(233,19,cs),
(132,19,o),
(80,110,o),
(80,217,cs),
(80,227,o),
(80,236,o),
(81,245,c),
(383,245,l),
(384,249,o),
(386,260,o),
(386,276,cs),
(386,382,o),
(324,454,o),
(222,454,cs),
(100,454,o),
(0,351,o),
(0,212,cs),
(0,81,o),
(87,-11,o),
(219,-11,cs)
);
},
{
closed = 1;
nodes = (
(271,429,o),
(319,393,o),
(319,335,cs),
(319,305,o),
(300,268,o),
(210,268,cs),
(83,268,l),
(94,365,o),
(140,429,o),
(222,429,cs)
);
}
);
width = 397;
}
);
note = egrave;
unicode = 232;
},
{
glyphname = emacron;
kernLeft = c;
kernRight = ae;
lastChange = "2022-11-17 08:20:49 +0000";
layers = (
{
layerId = m01;
shapes = (
{
closed = 1;
nodes = (
(107,601,l),
(334,601,l),
(334,641,l),
(107,641,l)
);
},
{
closed = 1;
nodes = (
(310,-11,o),
(369,31,o),
(397,115,c),
(373,124,l),
(346,54,o),
(295,19,o),
(233,19,cs),
(132,19,o),
(80,110,o),
(80,217,cs),
(80,227,o),
(80,236,o),
(81,245,c),
(383,245,l),
(384,249,o),
(386,260,o),
(386,276,cs),
(386,382,o),
(324,454,o),
(222,454,cs),
(100,454,o),
(0,351,o),
(0,212,cs),
(0,81,o),
(87,-11,o),
(219,-11,cs)
);
},
{
closed = 1;
nodes = (
(271,429,o),
(319,393,o),
(319,335,cs),
(319,305,o),
(300,268,o),
(210,268,cs),
(83,268,l),
(94,365,o),
(140,429,o),
(222,429,cs)
);
}
);
width = 397;
}
);
note = emacron;
unicode = 275;
},
{
glyphname = eogonek;
kernLeft = c;
kernRight = ae;
lastChange = "2022-11-17 08:20:49 +0000";
layers = (
{
layerId = m01;
shapes = (
{
closed = 1;
nodes = (
(247,-11,o),
(273,-7,o),
(295,1,c),
(225,-65,o),
(178,-128,o),
(178,-187,cs),
(178,-251,o),
(224,-294,o),
(281,-294,cs),
(370,-294,o),
(422,-229,o),
(429,-178,c),
(409,-170,l),
(390,-206,o),
(360,-229,o),
(317,-229,cs),
(273,-229,o),
(238,-206,o),
(238,-157,cs),
(238,-92,o),
(286,-45,o),
(354,40,c),
(372,59,o),
(387,84,o),
(397,115,c),
(373,124,l),
(346,54,o),
(295,19,o),
(233,19,cs),
(132,19,o),
(80,110,o),
(80,217,cs),
(80,227,o),
(80,236,o),
(81,245,c),
(383,245,l),
(384,249,o),
(386,260,o),
(386,276,cs),
(386,382,o),
(324,454,o),
(222,454,cs),
(100,454,o),
(0,351,o),
(0,212,cs),
(0,81,o),
(87,-11,o),
(219,-11,cs)
);
},
{
closed = 1;
nodes = (
(271,429,o),
(319,393,o),
(319,335,cs),
(319,305,o),
(300,268,o),
(210,268,cs),
(83,268,l),
(94,365,o),
(140,429,o),
(222,429,cs)
);
}
);
width = 429;
}
);
note = eogonek;
unicode = 281;
},
{
glyphname = f;
kernLeft = f;
kernRight = f;
lastChange = "2022-11-17 08:20:49 +0000";
layers = (
{
layerId = m01;
shapes = (
{
closed = 1;
nodes = (
(0,-3,l),
(123,0,l),
(246,-3,l),
(246,20,l),
(230,22,ls),
(172,29,o),
(158,31,o),
(158,121,cs),
(158,411,l),
(261,411,l),
(261,436,l),
(158,436,l),
(158,550,ls),
(158,632,o),
(172,699,o),
(248,699,cs),
(265,699,o),
(283,692,o),
(283,675,cs),
(283,671,o),
(282,667,o),
(280,662,cs),
(277,654,o),
(274,645,o),
(274,632,cs),
(274,611,o),
(293,590,o),
(318,590,cs),
(345,590,o),
(367,608,o),
(367,643,cs),
(367,696,o),
(316,724,o),
(248,724,cs),
(143,724,o),
(88,672,o),
(88,550,cs),
(88,436,l),
(2,436,l),
(2,411,l),
(88,411,l),
(88,121,ls),
(88,31,o),
(74,29,o),
(16,22,cs),
(0,20,l)
);
}
);
width = 367;
}
);
note = f;
unicode = 102;
},
{
glyphname = g;
kernLeft = g;
kernRight = g;
lastChange = "2022-11-17 08:20:49 +0000";
layers = (
{
layerId = m01;
shapes = (
{
closed = 1;
nodes = (
(346,132,o),
(427,203,o),
(427,293,cs),
(427,340,o),
(404,382,o),
(368,412,c),
(380,430,o),
(399,448,o),
(420,448,cs),
(437,448,o),
(445,436,o),
(448,420,cs),
(453,394,o),
(470,378,o),
(493,378,cs),
(514,378,o),
(536,394,o),
(536,422,cs),
(536,456,o),
(501,479,o),
(460,479,cs),
(420,479,o),
(377,463,o),
(349,425,c),
(319,443,o),
(282,454,o),
(242,454,cs),
(138,454,o),
(57,384,o),
(57,293,cs),
(57,232,o),
(93,181,o),
(147,154,c),
(94,139,o),
(42,98,o),
(42,46,cs),
(42,-28,o),
(124,-39,o),
(185,-42,cs),
(287,-47,ls),
(386,-52,o),
(432,-77,o),
(432,-137,cs),
(432,-223,o),
(344,-269,o),
(242,-269,cs),
(150,-269,o),
(72,-245,o),
(72,-176,cs),
(72,-142,o),
(97,-133,o),
(97,-99,cs),
(97,-74,o),
(78,-61,o),
(56,-61,cs),
(22,-61,o),
(0,-93,o),
(0,-135,cs),
(0,-245,o),
(117,-294,o),
(242,-294,cs),
(365,-294,o),
(478,-230,o),
(478,-116,cs),
(478,7,o),
(377,24,o),
(252,30,cs),
(208,32,ls),
(152,35,o),
(102,41,o),
(102,83,cs),
(102,115,o),
(139,134,o),
(176,142,c),
(197,136,o),
(219,132,o),
(242,132,cs)
);
},
{
closed = 1;
nodes = (
(164,157,o),
(134,216,o),
(134,293,cs),
(134,370,o),
(164,429,o),
(242,429,cs),
(320,429,o),
(350,370,o),
(350,293,cs),
(350,216,o),
(320,157,o),
(242,157,cs)
);
}
);
width = 536;
}
);
note = g;
unicode = 103;
},
{
glyphname = gbreve;
kernLeft = g;
kernRight = g;
lastChange = "2022-11-17 08:20:49 +0000";
layers = (
{
layerId = m01;
shapes = (
{
closed = 1;
nodes = (
(309,547,o),
(343,598,o),
(343,663,cs),
(343,696,l),
(318,696,l),
(318,691,ls),
(318,625,o),
(290,607,o),
(242,607,cs),
(194,607,o),
(166,625,o),
(166,691,cs),
(166,696,l),
(141,696,l),
(141,663,ls),
(141,598,o),
(175,547,o),
(242,547,cs)
);
},
{
closed = 1;
nodes = (
(346,132,o),
(427,203,o),
(427,293,cs),
(427,340,o),
(404,382,o),
(368,412,c),
(380,430,o),
(399,448,o),
(420,448,cs),
(437,448,o),
(445,436,o),
(448,420,cs),
(453,394,o),
(470,378,o),
(493,378,cs),
(514,378,o),
(536,394,o),
(536,422,cs),
(536,456,o),
(501,479,o),
(460,479,cs),
(420,479,o),
(377,463,o),
(349,425,c),
(319,443,o),
(282,454,o),
(242,454,cs),
(138,454,o),
(57,384,o),
(57,293,cs),
(57,232,o),
(93,181,o),
(147,154,c),
(94,139,o),
(42,98,o),
(42,46,cs),
(42,-28,o),
(124,-39,o),
(185,-42,cs),
(287,-47,ls),
(386,-52,o),
(432,-77,o),
(432,-137,cs),
(432,-223,o),
(344,-269,o),
(242,-269,cs),
(150,-269,o),
(72,-245,o),
(72,-176,cs),
(72,-142,o),
(97,-133,o),
(97,-99,cs),
(97,-74,o),
(78,-61,o),
(56,-61,cs),
(22,-61,o),
(0,-93,o),
(0,-135,cs),
(0,-245,o),
(117,-294,o),
(242,-294,cs),
(365,-294,o),
(478,-230,o),
(478,-116,cs),
(478,7,o),
(377,24,o),
(252,30,cs),
(208,32,ls),
(152,35,o),
(102,41,o),
(102,83,cs),
(102,115,o),
(139,134,o),
(176,142,c),
(197,136,o),
(219,132,o),
(242,132,cs)
);
},
{
closed = 1;
nodes = (
(164,157,o),
(134,216,o),
(134,293,cs),
(134,370,o),
(164,429,o),
(242,429,cs),
(320,429,o),
(350,370,o),
(350,293,cs),
(350,216,o),
(320,157,o),
(242,157,cs)
);
}
);
width = 536;
}
);
note = gbreve;
unicode = 287;
},
{
glyphname = uni0123;
kernLeft = g;
kernRight = g;
lastChange = "2022-11-17 08:20:49 +0000";
layers = (
{
layerId = m01;
shapes = (
{
closed = 1;
nodes = (
(247,711,l),
(204,683,o),
(172,653,o),
(172,592,cs),
(172,542,o),
(196,510,o),
(232,510,cs),
(261,510,o),
(281,530,o),
(281,559,cs),
(281,586,o),
(263,604,o),
(236,604,cs),
(218,604,o),
(201,590,o),
(201,576,cs),
(201,569,o),
(204,564,o),
(204,561,c),
(204,561,o),
(204,560,o),
(203,559,c),
(193,555,o),
(188,576,o),
(188,594,cs),
(188,641,o),
(221,671,o),
(257,696,c)
);
},
{
closed = 1;
nodes = (
(346,132,o),
(427,203,o),
(427,293,cs),
(427,340,o),
(404,382,o),
(368,412,c),
(380,430,o),
(399,448,o),
(420,448,cs),
(437,448,o),
(445,436,o),
(448,420,cs),
(453,394,o),
(470,378,o),
(493,378,cs),
(514,378,o),
(536,394,o),
(536,422,cs),
(536,456,o),
(501,479,o),
(460,479,cs),
(420,479,o),
(377,463,o),
(349,425,c),
(319,443,o),
(282,454,o),
(242,454,cs),
(138,454,o),
(57,384,o),
(57,293,cs),
(57,232,o),
(93,181,o),
(147,154,c),
(94,139,o),
(42,98,o),
(42,46,cs),
(42,-28,o),
(124,-39,o),
(185,-42,cs),
(287,-47,ls),
(386,-52,o),
(432,-77,o),
(432,-137,cs),
(432,-223,o),
(344,-269,o),
(242,-269,cs),
(150,-269,o),
(72,-245,o),
(72,-176,cs),
(72,-142,o),
(97,-133,o),
(97,-99,cs),
(97,-74,o),
(78,-61,o),
(56,-61,cs),
(22,-61,o),
(0,-93,o),
(0,-135,cs),
(0,-245,o),
(117,-294,o),
(242,-294,cs),
(365,-294,o),
(478,-230,o),
(478,-116,cs),
(478,7,o),
(377,24,o),
(252,30,cs),
(208,32,ls),
(152,35,o),
(102,41,o),
(102,83,cs),
(102,115,o),
(139,134,o),
(176,142,c),
(197,136,o),
(219,132,o),
(242,132,cs)
);
},
{
closed = 1;
nodes = (
(164,157,o),
(134,216,o),
(134,293,cs),
(134,370,o),
(164,429,o),
(242,429,cs),
(320,429,o),
(350,370,o),
(350,293,cs),
(350,216,o),
(320,157,o),
(242,157,cs)
);
}
);
width = 536;
}
);
note = uni0123;
unicode = 291;
},
{
glyphname = gdotaccent;
kernLeft = g;
kernRight = g;
lastChange = "2022-11-17 08:20:49 +0000";
layers = (
{
layerId = m01;
shapes = (
{
closed = 1;
nodes = (
(276,565,o),
(294,592,o),
(294,626,cs),
(294,660,o),
(276,687,o),
(238,687,cs),
(203,687,o),
(182,660,o),
(182,626,cs),
(182,592,o),
(203,565,o),
(238,565,cs)
);
},
{
closed = 1;
nodes = (
(346,132,o),
(427,203,o),
(427,293,cs),
(427,340,o),
(404,382,o),
(368,412,c),
(380,430,o),
(399,448,o),
(420,448,cs),
(437,448,o),
(445,436,o),
(448,420,cs),
(453,394,o),
(470,378,o),
(493,378,cs),
(514,378,o),
(536,394,o),
(536,422,cs),
(536,456,o),
(501,479,o),
(460,479,cs),
(420,479,o),
(377,463,o),
(349,425,c),
(319,443,o),
(282,454,o),
(242,454,cs),
(138,454,o),
(57,384,o),
(57,293,cs),
(57,232,o),
(93,181,o),
(147,154,c),
(94,139,o),
(42,98,o),
(42,46,cs),
(42,-28,o),
(124,-39,o),
(185,-42,cs),
(287,-47,ls),
(386,-52,o),
(432,-77,o),
(432,-137,cs),
(432,-223,o),
(344,-269,o),
(242,-269,cs),
(150,-269,o),
(72,-245,o),
(72,-176,cs),
(72,-142,o),
(97,-133,o),
(97,-99,cs),
(97,-74,o),
(78,-61,o),
(56,-61,cs),
(22,-61,o),
(0,-93,o),
(0,-135,cs),
(0,-245,o),
(117,-294,o),
(242,-294,cs),
(365,-294,o),
(478,-230,o),
(478,-116,cs),
(478,7,o),
(377,24,o),
(252,30,cs),
(208,32,ls),
(152,35,o),
(102,41,o),
(102,83,cs),
(102,115,o),
(139,134,o),
(176,142,c),
(197,136,o),
(219,132,o),
(242,132,cs)
);
},
{
closed = 1;
nodes = (
(164,157,o),
(134,216,o),
(134,293,cs),
(134,370,o),
(164,429,o),
(242,429,cs),
(320,429,o),
(350,370,o),
(350,293,cs),
(350,216,o),
(320,157,o),
(242,157,cs)
);
}
);
width = 536;
}
);
note = gdotaccent;
unicode = 289;
},
{
glyphname = h;
kernLeft = f;
kernRight = h;
lastChange = "2022-11-17 08:20:49 +0000";
layers = (
{
layerId = m01;
shapes = (
{
closed = 1;
nodes = (
(0,-3,l),
(123,0,l),
(246,-3,l),
(246,20,l),
(230,22,ls),
(172,29,o),
(158,31,o),
(158,121,cs),
(158,321,l),
(175,365,o),
(226,424,o),
(299,424,cs),
(362,424,o),
(398,388,o),
(398,321,cs),
(398,121,ls),
(398,31,o),
(384,29,o),
(326,22,cs),
(310,20,l),
(310,-3,l),
(433,0,l),
(556,-3,l),
(556,20,l),
(540,22,ls),
(482,29,o),
(468,31,o),
(468,121,cs),
(468,321,ls),
(468,406,o),
(412,454,o),
(321,454,cs),
(246,454,o),
(189,412,o),
(158,367,c),
(158,725,l),
(103,715,o),
(55,713,o),
(0,713,c),
(0,690,l),
(7,690,ls),
(57,690,o),
(88,678,o),
(88,609,cs),
(88,121,ls),
(88,31,o),
(74,29,o),
(16,22,cs),
(0,20,l)
);
}
);
width = 556;
}
);
note = h;
unicode = 104;
},
{
glyphname = hbar;
kernLeft = f;
kernRight = h;
lastChange = "2022-11-17 08:20:49 +0000";
layers = (
{
layerId = m01;
shapes = (
{
closed = 1;
nodes = (
(1,-3,l),
(124,0,l),
(247,-3,l),
(247,20,l),
(231,22,ls),
(173,29,o),
(159,31,o),
(159,121,cs),
(159,321,l),
(176,365,o),
(227,424,o),
(300,424,cs),
(363,424,o),
(399,388,o),
(399,321,cs),
(399,121,ls),
(399,31,o),
(385,29,o),
(327,22,cs),
(311,20,l),
(311,-3,l),
(434,0,l),
(557,-3,l),
(557,20,l),
(541,22,ls),
(483,29,o),
(469,31,o),
(469,121,cs),
(469,321,ls),
(469,406,o),
(413,454,o),
(322,454,cs),
(247,454,o),
(190,412,o),
(159,367,c),
(159,554,l),
(255,554,l),
(255,579,l),
(159,579,l),
(159,725,l),
(104,715,o),
(56,713,o),
(1,713,c),
(1,690,l),
(8,690,ls),
(58,690,o),
(89,678,o),
(89,609,cs),
(89,579,l),
(0,579,l),
(0,554,l),
(89,554,l),
(89,121,ls),
(89,31,o),
(75,29,o),
(17,22,cs),
(1,20,l)
);
}
);
width = 557;
}
);
note = hbar;
unicode = 295;
},
{
glyphname = hcircumflex;
lastChange = "2022-11-17 08:20:49 +0000";
layers = (
{
layerId = m01;
shapes = (
{
closed = 1;
nodes = (
(0,761,l),
(24,761,l),
(102,853,l),
(108,853,l),
(186,761,l),
(210,761,l),
(116,940,l),
(94,940,l)
);
},
{
closed = 1;
nodes = (
(13,-3,l),
(136,0,l),
(259,-3,l),
(259,20,l),
(243,22,ls),
(185,29,o),
(171,31,o),
(171,121,cs),
(171,321,l),
(188,365,o),
(239,424,o),
(312,424,cs),
(375,424,o),
(411,388,o),
(411,321,cs),
(411,121,ls),
(411,31,o),
(397,29,o),
(339,22,cs),
(323,20,l),
(323,-3,l),
(446,0,l),
(569,-3,l),
(569,20,l),
(553,22,ls),
(495,29,o),
(481,31,o),
(481,121,cs),
(481,321,ls),
(481,406,o),
(425,454,o),
(334,454,cs),
(259,454,o),
(202,412,o),
(171,367,c),
(171,725,l),
(116,715,o),
(68,713,o),
(13,713,c),
(13,690,l),
(20,690,ls),
(70,690,o),
(101,678,o),
(101,609,cs),
(101,121,ls),
(101,31,o),
(87,29,o),
(29,22,cs),
(13,20,l)
);
}
);
width = 569;
}
);
note = hcircumflex;
unicode = 293;
},
{
glyphname = i;
kernLeft = i;
lastChange = "2022-11-17 08:20:49 +0000";
layers = (
{
layerId = m01;
shapes = (
{
closed = 1;
nodes = (
(149,565,o),
(167,592,o),
(167,626,cs),
(167,660,o),
(149,687,o),
(111,687,cs),
(76,687,o),
(55,660,o),
(55,626,cs),
(55,592,o),
(76,565,o),
(111,565,cs)
);
},
{
closed = 1;
nodes = (
(0,-3,l),
(123,0,l),
(246,-3,l),
(246,20,l),
(230,22,ls),
(172,29,o),
(158,31,o),
(158,121,cs),
(158,448,l),
(103,438,o),
(55,436,o),
(0,436,c),
(0,413,l),
(7,413,ls),
(57,413,o),
(88,401,o),
(88,332,cs),
(88,121,ls),
(88,31,o),
(74,29,o),
(16,22,cs),
(0,20,l)
);
}
);
width = 246;
}
);
note = i;
unicode = 105;
},
{
glyphname = dotlessi;
kernLeft = i;
lastChange = "2022-11-17 08:20:49 +0000";
layers = (
{
layerId = m01;
shapes = (
{
closed = 1;
nodes = (
(0,-3,l),
(123,0,l),
(246,-3,l),
(246,20,l),
(230,22,ls),
(172,29,o),
(158,31,o),
(158,121,cs),
(158,448,l),
(103,438,o),
(55,436,o),
(0,436,c),
(0,413,l),
(7,413,ls),
(57,413,o),
(88,401,o),
(88,332,cs),
(88,121,ls),
(88,31,o),
(74,29,o),
(16,22,cs),
(0,20,l)
);
}
);
width = 246;
}
);
note = dotlessi;
unicode = 305;
},
{
glyphname = iacute;
kernLeft = i;
lastChange = "2022-11-17 08:20:49 +0000";
layers = (
{
layerId = m01;
shapes = (
{
closed = 1;
nodes = (
(79,520,l),
(101,520,l),
(175,639,ls),
(185,655,o),
(192,672,o),
(192,688,cs),
(192,712,o),
(177,724,o),
(161,724,cs),
(145,724,o),
(129,710,o),
(118,668,cs)
);
},
{
closed = 1;
nodes = (
(0,-3,l),
(123,0,l),
(246,-3,l),
(246,20,l),
(230,22,ls),
(172,29,o),
(158,31,o),
(158,121,cs),
(158,448,l),
(103,438,o),
(55,436,o),
(0,436,c),
(0,413,l),
(7,413,ls),
(57,413,o),
(88,401,o),
(88,332,cs),
(88,121,ls),
(88,31,o),
(74,29,o),
(16,22,cs),
(0,20,l)
);
}
);
width = 246;
}
);
note = iacute;
unicode = 237;
},
{
glyphname = uni01D0;
kernLeft = i;
lastChange = "2022-11-17 08:20:49 +0000";
layers = (
{
layerId = m01;
shapes = (
{
closed = 1;
nodes = (
(10,711,l),
(104,521,l),
(126,521,l),
(220,711,l),
(196,711,l),
(118,613,l),
(112,613,l),
(34,711,l)
);
},
{
closed = 1;
nodes = (
(0,-3,l),
(123,0,l),
(246,-3,l),
(246,20,l),
(230,22,ls),
(172,29,o),
(158,31,o),
(158,121,cs),
(158,448,l),
(103,438,o),
(55,436,o),
(0,436,c),
(0,413,l),
(7,413,ls),
(57,413,o),
(88,401,o),
(88,332,cs),
(88,121,ls),
(88,31,o),
(74,29,o),
(16,22,cs),
(0,20,l)
);
}
);
width = 246;
}
);
note = uni01D0;
unicode = 464;
},
{
glyphname = icircumflex;
kernLeft = i;
lastChange = "2022-11-17 08:20:49 +0000";
layers = (
{
layerId = m01;
shapes = (
{
closed = 1;
nodes = (
(9,520,l),
(33,520,l),
(111,618,l),
(117,618,l),
(195,520,l),
(219,520,l),
(125,710,l),
(103,710,l)
);
},
{
closed = 1;
nodes = (
(0,-3,l),
(123,0,l),
(246,-3,l),
(246,20,l),
(230,22,ls),
(172,29,o),
(158,31,o),
(158,121,cs),
(158,448,l),
(103,438,o),
(55,436,o),
(0,436,c),
(0,413,l),
(7,413,ls),
(57,413,o),
(88,401,o),
(88,332,cs),
(88,121,ls),
(88,31,o),
(74,29,o),
(16,22,cs),
(0,20,l)
);
}
);
width = 246;
}
);
note = icircumflex;
unicode = 238;
},
{
glyphname = idieresis;
kernLeft = i;
lastChange = "2022-11-17 08:20:49 +0000";
layers = (
{
layerId = m01;
shapes = (
{
closed = 1;
nodes = (
(85,565,o),
(101,590,o),
(101,622,cs),
(101,653,o),
(85,678,o),
(51,678,cs),
(19,678,o),
(0,653,o),
(0,622,cs),
(0,590,o),
(19,565,o),
(51,565,cs)
);
},
{
closed = 1;
nodes = (
(235,565,o),
(251,590,o),
(251,622,cs),
(251,653,o),
(235,678,o),
(201,678,cs),
(169,678,o),
(150,653,o),
(150,622,cs),
(150,590,o),
(169,565,o),
(201,565,cs)
);
},
{
closed = 1;
nodes = (
(14,-3,l),
(137,0,l),
(260,-3,l),
(260,20,l),
(244,22,ls),
(186,29,o),
(172,31,o),
(172,121,cs),
(172,448,l),
(117,438,o),
(69,436,o),
(14,436,c),
(14,413,l),
(21,413,ls),
(71,413,o),
(102,401,o),
(102,332,cs),
(102,121,ls),
(102,31,o),
(88,29,o),
(30,22,cs),
(14,20,l)
);
}
);
width = 260;
}
);
note = idieresis;
unicode = 239;
},
{
glyphname = i.loclTRK;
kernLeft = i;
lastChange = "2022-11-17 08:20:49 +0000";
layers = (
{
layerId = m01;
shapes = (
{
closed = 1;
nodes = (
(149,565,o),
(167,592,o),
(167,626,cs),
(167,660,o),
(149,687,o),
(111,687,cs),
(76,687,o),
(55,660,o),
(55,626,cs),
(55,592,o),
(76,565,o),
(111,565,cs)
);
},
{
closed = 1;
nodes = (
(0,-3,l),
(123,0,l),
(246,-3,l),
(246,20,l),
(230,22,ls),
(172,29,o),
(158,31,o),
(158,121,cs),
(158,448,l),
(103,438,o),
(55,436,o),
(0,436,c),
(0,413,l),
(7,413,ls),
(57,413,o),
(88,401,o),
(88,332,cs),
(88,121,ls),
(88,31,o),
(74,29,o),
(16,22,cs),
(0,20,l)
);
}
);
width = 246;
}
);
note = i.loclTRK;
},
{
glyphname = igrave;
kernLeft = i;
lastChange = "2022-11-17 08:20:49 +0000";
layers = (
{
layerId = m01;
shapes = (
{
closed = 1;
nodes = (
(147,520,l),
(108,668,ls),
(97,710,o),
(81,724,o),
(65,724,cs),
(49,724,o),
(34,712,o),
(34,688,cs),
(34,672,o),
(41,655,o),
(51,639,cs),
(125,520,l)
);
},
{
closed = 1;
nodes = (
(0,-3,l),
(123,0,l),
(246,-3,l),
(246,20,l),
(230,22,ls),
(172,29,o),
(158,31,o),
(158,121,cs),
(158,448,l),
(103,438,o),
(55,436,o),
(0,436,c),
(0,413,l),
(7,413,ls),
(57,413,o),
(88,401,o),
(88,332,cs),
(88,121,ls),
(88,31,o),
(74,29,o),
(16,22,cs),
(0,20,l)
);
}
);
width = 246;
}
);
note = igrave;
unicode = 236;
},
{
glyphname = imacron;
kernLeft = i;
lastChange = "2022-11-17 08:20:49 +0000";
layers = (
{
layerId = m01;
shapes = (
{
closed = 1;
nodes = (
(0,601,l),
(227,601,l),
(227,641,l),
(0,641,l)
);
},
{
closed = 1;
nodes = (
(0,-3,l),
(123,0,l),
(246,-3,l),
(246,20,l),
(230,22,ls),
(172,29,o),
(158,31,o),
(158,121,cs),
(158,448,l),
(103,438,o),
(55,436,o),
(0,436,c),
(0,413,l),
(7,413,ls),
(57,413,o),
(88,401,o),
(88,332,cs),
(88,121,ls),
(88,31,o),
(74,29,o),
(16,22,cs),
(0,20,l)
);
}
);
width = 246;
}
);
note = imacron;
unicode = 299;
},
{
glyphname = iogonek;
kernLeft = i;
lastChange = "2022-11-17 08:20:49 +0000";
layers = (
{
layerId = m01;
shapes = (
{
closed = 1;
nodes = (
(154,565,o),
(172,592,o),
(172,626,cs),
(172,660,o),
(154,687,o),
(116,687,cs),
(81,687,o),
(60,660,o),
(60,626,cs),
(60,592,o),
(81,565,o),
(116,565,cs)
);
},
{
closed = 1;
nodes = (
(5,-3,l),
(115,0,l),
(46,-66,o),
(0,-129,o),
(0,-187,cs),
(0,-251,o),
(46,-294,o),
(103,-294,cs),
(192,-294,o),
(244,-229,o),
(251,-178,c),
(231,-170,l),
(212,-206,o),
(182,-229,o),
(139,-229,cs),
(95,-229,o),
(60,-206,o),
(60,-157,cs),
(60,-103,o),
(93,-62,o),
(143,0,c),
(251,-3,l),
(251,20,l),
(235,22,ls),
(177,29,o),
(163,31,o),
(163,121,cs),
(163,448,l),
(108,438,o),
(60,436,o),
(5,436,c),
(5,413,l),
(12,413,ls),
(62,413,o),
(93,401,o),
(93,332,cs),
(93,121,ls),
(93,31,o),
(79,29,o),
(21,22,cs),
(5,20,l)
);
}
);
width = 251;
}
);
note = iogonek;
unicode = 303;
},
{
glyphname = j;
kernLeft = i;
lastChange = "2022-11-17 08:20:49 +0000";
layers = (
{
layerId = m01;
shapes = (
{
closed = 1;
nodes = (
(231,559,o),
(249,586,o),
(249,620,cs),
(249,654,o),
(231,681,o),
(193,681,cs),
(158,681,o),
(137,654,o),
(137,620,cs),
(137,586,o),
(158,559,o),
(193,559,cs)
);
},
{
closed = 1;
nodes = (
(178,-294,o),
(236,-237,o),
(236,-152,cs),
(236,451,l),
(181,441,o),
(133,436,o),
(78,436,c),
(78,413,l),
(132,413,o),
(166,407,o),
(166,335,cs),
(166,-152,ls),
(166,-205,o),
(161,-273,o),
(116,-273,cs),
(101,-273,o),
(88,-264,o),
(88,-246,cs),
(88,-240,o),
(89,-235,o),
(92,-226,cs),
(94,-220,o),
(96,-213,o),
(96,-207,cs),
(96,-189,o),
(83,-167,o),
(53,-167,cs),
(18,-167,o),
(0,-193,o),
(0,-223,cs),
(0,-266,o),
(36,-294,o),
(99,-294,cs)
);
}
);
width = 249;
}
);
note = j;
unicode = 106;
},
{
glyphname = uni0237;
kernLeft = i;
lastChange = "2022-11-17 08:20:49 +0000";
layers = (
{
layerId = m01;
shapes = (
{
closed = 1;
nodes = (
(178,-294,o),
(236,-237,o),
(236,-152,cs),
(236,451,l),
(181,441,o),
(133,436,o),
(78,436,c),
(78,413,l),
(132,413,o),
(166,407,o),
(166,335,cs),
(166,-152,ls),
(166,-205,o),
(161,-273,o),
(116,-273,cs),
(101,-273,o),
(88,-264,o),
(88,-246,cs),
(88,-240,o),
(89,-235,o),
(92,-226,cs),
(94,-220,o),
(96,-213,o),
(96,-207,cs),
(96,-189,o),
(83,-167,o),
(53,-167,cs),
(18,-167,o),
(0,-193,o),
(0,-223,cs),
(0,-266,o),
(36,-294,o),
(99,-294,cs)
);
}
);
width = 236;
}
);
note = uni0237;
unicode = 567;
},
{
glyphname = k;
kernLeft = f;
kernRight = k;
lastChange = "2022-11-17 08:20:49 +0000";
layers = (
{
layerId = m01;
shapes = (
{
closed = 1;
nodes = (
(0,-3,l),
(123,0,l),
(246,-3,l),
(246,20,l),
(230,22,ls),
(172,29,o),
(158,31,o),
(158,121,cs),
(158,152,l),
(209,213,l),
(398,0,l),
(509,-3,l),
(509,20,l),
(493,22,ls),
(469,24,o),
(444,53,o),
(424,76,cs),
(254,266,l),
(312,335,ls),
(345,375,o),
(383,405,o),
(443,413,cs),
(459,415,l),
(459,438,l),
(375,436,l),
(279,438,l),
(279,415,l),
(295,413,ls),
(312,411,o),
(319,405,o),
(319,395,cs),
(319,388,o),
(315,378,o),
(306,367,cs),
(158,190,l),
(158,725,l),
(103,715,o),
(55,713,o),
(0,713,c),
(0,690,l),
(7,690,ls),
(57,690,o),
(88,678,o),
(88,609,cs),
(88,121,ls),
(88,31,o),
(74,29,o),
(16,22,cs),
(0,20,l)
);
}
);
width = 509;
}
);
note = k;
unicode = 107;
},
{
glyphname = uni0137;
kernLeft = f;
kernRight = k;
lastChange = "2022-11-17 08:20:49 +0000";
layers = (
{
layerId = m01;
shapes = (
{
closed = 1;
nodes = (
(0,-3,l),
(123,0,l),
(246,-3,l),
(246,20,l),
(230,22,ls),
(172,29,o),
(158,31,o),
(158,121,cs),
(158,152,l),
(209,213,l),
(398,0,l),
(509,-3,l),
(509,20,l),
(493,22,ls),
(469,24,o),
(444,53,o),
(424,76,cs),
(254,266,l),
(312,335,ls),
(345,375,o),
(383,405,o),
(443,413,cs),
(459,415,l),
(459,438,l),
(375,436,l),
(279,438,l),
(279,415,l),
(295,413,ls),
(312,411,o),
(319,405,o),
(319,395,cs),
(319,388,o),
(315,378,o),
(306,367,cs),
(158,190,l),
(158,725,l),
(103,715,o),
(55,713,o),
(0,713,c),
(0,690,l),
(7,690,ls),
(57,690,o),
(88,678,o),
(88,609,cs),
(88,121,ls),
(88,31,o),
(74,29,o),
(16,22,cs),
(0,20,l)
);
},
{
closed = 1;
nodes = (
(301,-288,l),
(344,-260,o),
(376,-230,o),
(376,-169,cs),
(376,-119,o),
(352,-87,o),
(316,-87,cs),
(287,-87,o),
(267,-107,o),
(267,-136,cs),
(267,-163,o),
(285,-181,o),
(312,-181,cs),
(330,-181,o),
(347,-167,o),
(347,-153,cs),
(347,-146,o),
(344,-141,o),
(344,-138,c),
(344,-138,o),
(344,-137,o),
(345,-136,c),
(355,-132,o),
(360,-153,o),
(360,-171,cs),
(360,-218,o),
(327,-248,o),
(291,-273,c)
);
}
);
width = 509;
}
);
note = uni0137;
unicode = 311;
},
{
glyphname = l;
kernLeft = f;
lastChange = "2022-11-17 08:20:49 +0000";
layers = (
{
layerId = m01;
shapes = (
{
closed = 1;
nodes = (
(0,-3,l),
(123,0,l),
(246,-3,l),
(246,20,l),
(230,22,ls),
(172,29,o),
(158,31,o),
(158,121,cs),
(158,725,l),
(103,715,o),
(55,713,o),
(0,713,c),
(0,690,l),
(7,690,ls),
(57,690,o),
(88,678,o),
(88,609,cs),
(88,121,ls),
(88,31,o),
(74,29,o),
(16,22,cs),
(0,20,l)
);
}
);
width = 246;
}
);
note = l;
unicode = 108;
},
{
glyphname = lacute;
kernLeft = f;
lastChange = "2022-11-17 08:20:49 +0000";
layers = (
{
layerId = m01;
shapes = (
{
closed = 1;
nodes = (
(87,794,l),
(109,794,l),
(183,913,ls),
(193,929,o),
(200,946,o),
(200,962,cs),
(200,986,o),
(185,998,o),
(169,998,cs),
(153,998,o),
(137,984,o),
(126,942,cs)
);
},
{
closed = 1;
nodes = (
(0,-3,l),
(123,0,l),
(246,-3,l),
(246,20,l),
(230,22,ls),
(172,29,o),
(158,31,o),
(158,121,cs),
(158,725,l),
(103,715,o),
(55,713,o),
(0,713,c),
(0,690,l),
(7,690,ls),
(57,690,o),
(88,678,o),
(88,609,cs),
(88,121,ls),
(88,31,o),
(74,29,o),
(16,22,cs),
(0,20,l)
);
}
);
width = 246;
}
);
note = lacute;
unicode = 314;
},
{
glyphname = lcaron;
kernLeft = f;
kernRight = dcaron;
lastChange = "2022-11-17 08:20:49 +0000";
layers = (
{
layerId = m01;
shapes = (
{
closed = 1;
nodes = (
(0,-3,l),
(123,0,l),
(246,-3,l),
(246,20,l),
(230,22,ls),
(172,29,o),
(158,31,o),
(158,121,cs),
(158,725,l),
(103,715,o),
(55,713,o),
(0,713,c),
(0,690,l),
(7,690,ls),
(57,690,o),
(88,678,o),
(88,609,cs),
(88,121,ls),
(88,31,o),
(74,29,o),
(16,22,cs),
(0,20,l)
);
},
{
closed = 1;
nodes = (
(216,533,l),
(250,533,l),
(312,710,l),
(236,710,l)
);
}
);
width = 312;
}
);
note = lcaron;
unicode = 318;
},
{
glyphname = uni013C;
kernLeft = f;
lastChange = "2022-11-17 08:20:49 +0000";
layers = (
{
layerId = m01;
shapes = (
{
closed = 1;
nodes = (
(0,-3,l),
(123,0,l),
(246,-3,l),
(246,20,l),
(230,22,ls),
(172,29,o),
(158,31,o),
(158,121,cs),
(158,725,l),
(103,715,o),
(55,713,o),
(0,713,c),
(0,690,l),
(7,690,ls),
(57,690,o),
(88,678,o),
(88,609,cs),
(88,121,ls),
(88,31,o),
(74,29,o),
(16,22,cs),
(0,20,l)
);
},
{
closed = 1;
nodes = (
(114,-288,l),
(157,-260,o),
(189,-230,o),
(189,-169,cs),
(189,-119,o),
(165,-87,o),
(129,-87,cs),
(100,-87,o),
(80,-107,o),
(80,-136,cs),
(80,-163,o),
(98,-181,o),
(125,-181,cs),
(143,-181,o),
(160,-167,o),
(160,-153,cs),
(160,-146,o),
(157,-141,o),
(157,-138,c),
(157,-138,o),
(157,-137,o),
(158,-136,c),
(168,-132,o),
(173,-153,o),
(173,-171,cs),
(173,-218,o),
(140,-248,o),
(104,-273,c)
);
}
);
width = 246;
}
);
note = uni013C;
unicode = 316;
},
{
glyphname = ldot;
lastChange = "2022-11-17 08:20:49 +0000";
layers = (
{
layerId = m01;
shapes = (
{
closed = 1;
nodes = (
(0,-3,l),
(123,0,l),
(246,-3,l),
(246,20,l),
(230,22,ls),
(172,29,o),
(158,31,o),
(158,121,cs),
(158,725,l),
(103,715,o),
(55,713,o),
(0,713,c),
(0,690,l),
(7,690,ls),
(57,690,o),
(88,678,o),
(88,609,cs),
(88,121,ls),
(88,31,o),
(74,29,o),
(16,22,cs),
(0,20,l)
);
},
{
closed = 1;
nodes = (
(341,315,o),
(368,343,o),
(368,376,cs),
(368,408,o),
(341,435,o),
(306,435,cs),
(269,435,o),
(242,408,o),
(242,376,cs),
(242,343,o),
(269,315,o),
(306,315,cs)
);
}
);
width = 368;
}
);
note = ldot;
unicode = 320;
},
{
glyphname = lslash;
kernLeft = f;
lastChange = "2022-11-17 08:20:49 +0000";
layers = (
{
layerId = m01;
shapes = (
{
closed = 1;
nodes = (
(13,-3,l),
(136,0,l),
(259,-3,l),
(259,20,l),
(243,22,ls),
(185,29,o),
(171,31,o),
(171,121,cs),
(171,389,l),
(265,437,l),
(265,486,l),
(171,431,l),
(171,725,l),
(116,715,o),
(68,713,o),
(13,713,c),
(13,690,l),
(20,690,ls),
(70,690,o),
(101,678,o),
(101,609,cs),
(101,389,l),
(0,330,l),
(0,301,l),
(101,353,l),
(101,121,ls),
(101,31,o),
(87,29,o),
(29,22,cs),
(13,20,l)
);
}
);
width = 265;
}
);
note = lslash;
unicode = 322;
},
{
glyphname = m;
kernLeft = i;
kernRight = h;
lastChange = "2022-11-17 08:20:49 +0000";
layers = (
{
layerId = m01;
shapes = (
{
closed = 1;
nodes = (
(0,-3,l),
(123,0,l),
(236,-3,l),
(236,20,l),
(220,22,ls),
(170,29,o),
(158,31,o),
(158,121,cs),
(158,321,l),
(174,367,o),
(220,424,o),
(291,424,cs),
(349,424,o),
(383,388,o),
(383,329,cs),
(383,121,ls),
(383,31,o),
(371,29,o),
(321,22,cs),
(305,20,l),
(305,-3,l),
(418,0,l),
(531,-3,l),
(531,20,l),
(515,22,ls),
(465,29,o),
(453,31,o),
(453,121,cs),
(453,312,ls),
(453,315,o),
(453,318,o),
(453,321,c),
(469,367,o),
(515,424,o),
(586,424,cs),
(644,424,o),
(678,388,o),
(678,329,cs),
(678,121,ls),
(678,31,o),
(666,28,o),
(616,22,cs),
(600,20,l),
(600,-3,l),
(713,0,l),
(835,-3,l),
(835,20,l),
(819,22,ls),
(760,29,o),
(748,33,o),
(748,121,cs),
(748,312,ls),
(748,410,o),
(692,454,o),
(606,454,cs),
(532,454,o),
(475,410,o),
(447,361,c),
(431,425,o),
(381,454,o),
(311,454,cs),
(242,454,o),
(187,415,o),
(158,370,c),
(158,448,l),
(103,438,o),
(55,436,o),
(0,436,c),
(0,413,l),
(54,413,o),
(88,404,o),
(88,332,cs),
(88,121,ls),
(88,31,o),
(74,29,o),
(16,22,cs),
(0,20,l)
);
}
);
width = 835;
}
);
note = m;
unicode = 109;
},
{
glyphname = n;
kernLeft = i;
kernRight = h;
lastChange = "2022-11-17 08:20:49 +0000";
layers = (
{
layerId = m01;
shapes = (
{
closed = 1;
nodes = (
(0,-3,l),
(123,0,l),
(246,-3,l),
(246,20,l),
(230,22,ls),
(172,29,o),
(158,31,o),
(158,121,cs),
(158,321,l),
(175,365,o),
(226,424,o),
(299,424,cs),
(362,424,o),
(398,388,o),
(398,321,cs),
(398,121,ls),
(398,31,o),
(384,29,o),
(326,22,cs),
(310,20,l),
(310,-3,l),
(433,0,l),
(556,-3,l),
(556,20,l),
(540,22,ls),
(482,29,o),
(468,31,o),
(468,121,cs),
(468,321,ls),
(468,406,o),
(412,454,o),
(321,454,cs),
(246,454,o),
(189,412,o),
(158,367,c),
(158,448,l),
(103,438,o),
(55,436,o),
(0,436,c),
(0,413,l),
(7,413,ls),
(57,413,o),
(88,401,o),
(88,332,cs),
(88,121,ls),
(88,31,o),
(74,29,o),
(16,22,cs),
(0,20,l)
);
}
);
width = 556;
}
);
note = n;
unicode = 110;
},
{
glyphname = nacute;
kernLeft = i;
kernRight = h;
lastChange = "2022-11-17 08:20:49 +0000";
layers = (
{
layerId = m01;
shapes = (
{
closed = 1;
nodes = (
(238,520,l),
(260,520,l),
(334,639,ls),
(344,655,o),
(351,672,o),
(351,688,cs),
(351,712,o),
(336,724,o),
(320,724,cs),
(304,724,o),
(288,710,o),
(277,668,cs)
);
},
{
closed = 1;
nodes = (
(0,-3,l),
(123,0,l),
(246,-3,l),
(246,20,l),
(230,22,ls),
(172,29,o),
(158,31,o),
(158,121,cs),
(158,321,l),
(175,365,o),
(226,424,o),
(299,424,cs),
(362,424,o),
(398,388,o),
(398,321,cs),
(398,121,ls),
(398,31,o),
(384,29,o),
(326,22,cs),
(310,20,l),
(310,-3,l),
(433,0,l),
(556,-3,l),
(556,20,l),
(540,22,ls),
(482,29,o),
(468,31,o),
(468,121,cs),
(468,321,ls),
(468,406,o),
(412,454,o),
(321,454,cs),
(246,454,o),
(189,412,o),
(158,367,c),
(158,448,l),
(103,438,o),
(55,436,o),
(0,436,c),
(0,413,l),
(7,413,ls),
(57,413,o),
(88,401,o),
(88,332,cs),
(88,121,ls),
(88,31,o),
(74,29,o),
(16,22,cs),
(0,20,l)
);
}
);
width = 556;
}
);
note = nacute;
unicode = 324;
},
{
glyphname = ncaron;
kernLeft = i;
kernRight = h;
lastChange = "2022-11-17 08:20:49 +0000";
layers = (
{
layerId = m01;
shapes = (
{
closed = 1;
nodes = (
(169,711,l),
(263,521,l),
(285,521,l),
(379,711,l),
(355,711,l),
(277,613,l),
(271,613,l),
(193,711,l)
);
},
{
closed = 1;
nodes = (
(0,-3,l),
(123,0,l),
(246,-3,l),
(246,20,l),
(230,22,ls),
(172,29,o),
(158,31,o),
(158,121,cs),
(158,321,l),
(175,365,o),
(226,424,o),
(299,424,cs),
(362,424,o),
(398,388,o),
(398,321,cs),
(398,121,ls),
(398,31,o),
(384,29,o),
(326,22,cs),
(310,20,l),
(310,-3,l),
(433,0,l),
(556,-3,l),
(556,20,l),
(540,22,ls),
(482,29,o),
(468,31,o),
(468,121,cs),
(468,321,ls),
(468,406,o),
(412,454,o),
(321,454,cs),
(246,454,o),
(189,412,o),
(158,367,c),
(158,448,l),
(103,438,o),
(55,436,o),
(0,436,c),
(0,413,l),
(7,413,ls),
(57,413,o),
(88,401,o),
(88,332,cs),
(88,121,ls),
(88,31,o),
(74,29,o),
(16,22,cs),
(0,20,l)
);
}
);
width = 556;
}
);
note = ncaron;
unicode = 328;
},
{
glyphname = uni0146;
kernLeft = i;
kernRight = h;
lastChange = "2022-11-17 08:20:49 +0000";
layers = (
{
layerId = m01;
shapes = (
{
closed = 1;
nodes = (
(0,-3,l),
(123,0,l),
(246,-3,l),
(246,20,l),
(230,22,ls),
(172,29,o),
(158,31,o),
(158,121,cs),
(158,321,l),
(175,365,o),
(226,424,o),
(299,424,cs),
(362,424,o),
(398,388,o),
(398,321,cs),
(398,121,ls),
(398,31,o),
(384,29,o),
(326,22,cs),
(310,20,l),
(310,-3,l),
(433,0,l),
(556,-3,l),
(556,20,l),
(540,22,ls),
(482,29,o),
(468,31,o),
(468,121,cs),
(468,321,ls),
(468,406,o),
(412,454,o),
(321,454,cs),
(246,454,o),
(189,412,o),
(158,367,c),
(158,448,l),
(103,438,o),
(55,436,o),
(0,436,c),
(0,413,l),
(7,413,ls),
(57,413,o),
(88,401,o),
(88,332,cs),
(88,121,ls),
(88,31,o),
(74,29,o),
(16,22,cs),
(0,20,l)
);
},
{
closed = 1;
nodes = (
(267,-288,l),
(310,-260,o),
(342,-230,o),
(342,-169,cs),
(342,-119,o),
(318,-87,o),
(282,-87,cs),
(253,-87,o),
(233,-107,o),
(233,-136,cs),
(233,-163,o),
(251,-181,o),
(278,-181,cs),
(296,-181,o),
(313,-167,o),
(313,-153,cs),
(313,-146,o),
(310,-141,o),
(310,-138,c),
(310,-138,o),
(310,-137,o),
(311,-136,c),
(321,-132,o),
(326,-153,o),
(326,-171,cs),
(326,-218,o),
(293,-248,o),
(257,-273,c)
);
}
);
width = 556;
}
);
note = uni0146;
unicode = 326;
},
{
glyphname = ntilde;
kernLeft = i;
kernRight = h;
lastChange = "2022-11-17 08:20:49 +0000";
layers = (
{
layerId = m01;
shapes = (
{
closed = 1;
nodes = (
(389,553,o),
(423,592,o),
(430,652,c),
(411,652,l),
(402,624,o),
(384,601,o),
(357,601,cs),
(339,601,o),
(316,614,o),
(306,620,cs),
(269,642,ls),
(256,650,o),
(227,668,o),
(202,668,cs),
(141,668,o),
(116,593,o),
(116,564,c),
(135,564,l),
(141,588,o),
(165,620,o),
(194,620,cs),
(212,620,o),
(231,609,o),
(255,594,cs),
(281,578,ls),
(298,568,o),
(324,553,o),
(349,553,cs)
);
},
{
closed = 1;
nodes = (
(0,-3,l),
(123,0,l),
(246,-3,l),
(246,20,l),
(230,22,ls),
(172,29,o),
(158,31,o),
(158,121,cs),
(158,321,l),
(175,365,o),
(226,424,o),
(299,424,cs),
(362,424,o),
(398,388,o),
(398,321,cs),
(398,121,ls),
(398,31,o),
(384,29,o),
(326,22,cs),
(310,20,l),
(310,-3,l),
(433,0,l),
(556,-3,l),
(556,20,l),
(540,22,ls),
(482,29,o),
(468,31,o),
(468,121,cs),
(468,321,ls),
(468,406,o),
(412,454,o),
(321,454,cs),
(246,454,o),
(189,412,o),
(158,367,c),
(158,448,l),
(103,438,o),
(55,436,o),
(0,436,c),
(0,413,l),
(7,413,ls),
(57,413,o),
(88,401,o),
(88,332,cs),
(88,121,ls),
(88,31,o),
(74,29,o),
(16,22,cs),
(0,20,l)
);
}
);
width = 556;
}
);
note = ntilde;
unicode = 241;
},
{
glyphname = eng;
kernLeft = i;
kernRight = h;
lastChange = "2022-11-17 08:20:49 +0000";
layers = (
{
layerId = m01;
shapes = (
{
closed = 1;
nodes = (
(0,-3,l),
(123,0,l),
(246,-3,l),
(246,20,l),
(230,22,ls),
(172,29,o),
(158,31,o),
(158,121,cs),
(158,281,l),
(176,339,o),
(223,424,o),
(308,424,cs),
(371,424,o),
(395,388,o),
(395,330,cs),
(395,-152,ls),
(395,-205,o),
(390,-273,o),
(345,-273,cs),
(330,-273,o),
(321,-266,o),
(321,-251,cs),
(321,-236,o),
(325,-232,o),
(325,-217,cs),
(325,-194,o),
(307,-167,o),
(277,-167,cs),
(247,-167,o),
(229,-190,o),
(229,-223,cs),
(229,-269,o),
(265,-294,o),
(328,-294,cs),
(407,-294,o),
(465,-237,o),
(465,-152,cs),
(465,335,ls),
(465,406,o),
(425,454,o),
(330,454,cs),
(236,454,o),
(186,399,o),
(158,338,c),
(158,448,l),
(103,438,o),
(55,436,o),
(0,436,c),
(0,413,l),
(7,413,ls),
(57,413,o),
(88,401,o),
(88,332,cs),
(88,121,ls),
(88,31,o),
(74,29,o),
(16,22,cs),
(0,20,l)
);
}
);
width = 465;
}
);
note = eng;
unicode = 331;
},
{
glyphname = o;
kernLeft = c;
kernRight = ae;
lastChange = "2022-11-17 08:20:49 +0000";
layers = (
{
layerId = m01;
shapes = (
{
closed = 1;
nodes = (
(359,-11,o),
(460,92,o),
(460,220,cs),
(460,351,o),
(359,454,o),
(230,454,cs),
(101,454,o),
(0,351,o),
(0,220,cs),
(0,92,o),
(101,-11,o),
(230,-11,cs)
);
},
{
closed = 1;
nodes = (
(122,14,o),
(80,104,o),
(80,220,cs),
(80,339,o),
(122,429,o),
(230,429,cs),
(338,429,o),
(380,339,o),
(380,220,cs),
(380,104,o),
(338,14,o),
(230,14,cs)
);
}
);
width = 460;
}
);
note = o;
unicode = 111;
},
{
glyphname = oacute;
kernLeft = c;
kernRight = ae;
lastChange = "2022-11-17 08:20:49 +0000";
layers = (
{
layerId = m01;
shapes = (
{
closed = 1;
nodes = (
(195,513,l),
(217,513,l),
(291,632,ls),
(301,648,o),
(308,665,o),
(308,681,cs),
(308,705,o),
(293,717,o),
(277,717,cs),
(261,717,o),
(245,703,o),
(234,661,cs)
);
},
{
closed = 1;
nodes = (
(359,-11,o),
(460,92,o),
(460,220,cs),
(460,351,o),
(359,454,o),
(230,454,cs),
(101,454,o),
(0,351,o),
(0,220,cs),
(0,92,o),
(101,-11,o),
(230,-11,cs)
);
},
{
closed = 1;
nodes = (
(122,14,o),
(80,104,o),
(80,220,cs),
(80,339,o),
(122,429,o),
(230,429,cs),
(338,429,o),
(380,339,o),
(380,220,cs),
(380,104,o),
(338,14,o),
(230,14,cs)
);
}
);
width = 460;
}
);
note = oacute;
unicode = 243;
},
{
glyphname = uni01D2;
kernLeft = c;
kernRight = ae;
lastChange = "2022-11-17 08:20:49 +0000";
layers = (
{
layerId = m01;
shapes = (
{
closed = 1;
nodes = (
(126,704,l),
(220,514,l),
(242,514,l),
(336,704,l),
(312,704,l),
(234,606,l),
(228,606,l),
(150,704,l)
);
},
{
closed = 1;
nodes = (
(359,-11,o),
(460,92,o),
(460,220,cs),
(460,351,o),
(359,454,o),
(230,454,cs),
(101,454,o),
(0,351,o),
(0,220,cs),
(0,92,o),
(101,-11,o),
(230,-11,cs)
);
},
{
closed = 1;
nodes = (
(122,14,o),
(80,104,o),
(80,220,cs),
(80,339,o),
(122,429,o),
(230,429,cs),
(338,429,o),
(380,339,o),
(380,220,cs),
(380,104,o),
(338,14,o),
(230,14,cs)
);
}
);
width = 460;
}
);
note = uni01D2;
unicode = 466;
},
{
glyphname = ocircumflex;
kernLeft = c;
kernRight = ae;
lastChange = "2022-11-17 08:20:49 +0000";
layers = (
{
layerId = m01;
shapes = (
{
closed = 1;
nodes = (
(125,513,l),
(149,513,l),
(227,611,l),
(233,611,l),
(311,513,l),
(335,513,l),
(241,703,l),
(219,703,l)
);
},
{
closed = 1;
nodes = (
(359,-11,o),
(460,92,o),
(460,220,cs),
(460,351,o),
(359,454,o),
(230,454,cs),
(101,454,o),
(0,351,o),
(0,220,cs),
(0,92,o),
(101,-11,o),
(230,-11,cs)
);
},
{
closed = 1;
nodes = (
(122,14,o),
(80,104,o),
(80,220,cs),
(80,339,o),
(122,429,o),
(230,429,cs),
(338,429,o),
(380,339,o),
(380,220,cs),
(380,104,o),
(338,14,o),
(230,14,cs)
);
}
);
width = 460;
}
);
note = ocircumflex;
unicode = 244;
},
{
glyphname = odieresis;
kernLeft = c;
kernRight = ae;
lastChange = "2022-11-17 08:20:49 +0000";
layers = (
{
layerId = m01;
shapes = (
{
closed = 1;
nodes = (
(167,560,o),
(183,585,o),
(183,617,cs),
(183,648,o),
(167,673,o),
(133,673,cs),
(101,673,o),
(82,648,o),
(82,617,cs),
(82,585,o),
(101,560,o),
(133,560,cs)
);
},
{
closed = 1;
nodes = (
(357,560,o),
(373,585,o),
(373,617,cs),
(373,648,o),
(357,673,o),
(323,673,cs),
(291,673,o),
(272,648,o),
(272,617,cs),
(272,585,o),
(291,560,o),
(323,560,cs)
);
},
{
closed = 1;
nodes = (
(359,-11,o),
(460,92,o),
(460,220,cs),
(460,351,o),
(359,454,o),
(230,454,cs),
(101,454,o),
(0,351,o),
(0,220,cs),
(0,92,o),
(101,-11,o),
(230,-11,cs)
);
},
{
closed = 1;
nodes = (
(122,14,o),
(80,104,o),
(80,220,cs),
(80,339,o),
(122,429,o),
(230,429,cs),
(338,429,o),
(380,339,o),
(380,220,cs),
(380,104,o),
(338,14,o),
(230,14,cs)
);
}
);
width = 460;
}
);
note = odieresis;
unicode = 246;
},
{
glyphname = ograve;
kernLeft = c;
kernRight = ae;
lastChange = "2022-11-17 08:20:49 +0000";
layers = (
{
layerId = m01;
shapes = (
{
closed = 1;
nodes = (
(263,513,l),
(224,661,ls),
(213,703,o),
(197,717,o),
(181,717,cs),
(165,717,o),
(150,705,o),
(150,681,cs),
(150,665,o),
(157,648,o),
(167,632,cs),
(241,513,l)
);
},
{
closed = 1;
nodes = (
(359,-11,o),
(460,92,o),
(460,220,cs),
(460,351,o),
(359,454,o),
(230,454,cs),
(101,454,o),
(0,351,o),
(0,220,cs),
(0,92,o),
(101,-11,o),
(230,-11,cs)
);
},
{
closed = 1;
nodes = (
(122,14,o),
(80,104,o),
(80,220,cs),
(80,339,o),
(122,429,o),
(230,429,cs),
(338,429,o),
(380,339,o),
(380,220,cs),
(380,104,o),
(338,14,o),
(230,14,cs)
);
}
);
width = 460;
}
);
note = ograve;
unicode = 242;
},
{
glyphname = ohungarumlaut;
kernLeft = c;
kernRight = ae;
lastChange = "2022-11-17 08:20:49 +0000";
layers = (
{
layerId = m01;
shapes = (
{
closed = 1;
nodes = (
(139,513,l),
(161,513,l),
(235,632,ls),
(245,648,o),
(252,665,o),
(252,681,cs),
(252,705,o),
(237,717,o),
(221,717,cs),
(205,717,o),
(189,703,o),
(178,661,cs)
);
},
{
closed = 1;
nodes = (
(269,513,l),
(291,513,l),
(365,632,ls),
(375,648,o),
(382,665,o),
(382,681,cs),
(382,705,o),
(367,717,o),
(351,717,cs),
(335,717,o),
(319,703,o),
(308,661,cs)
);
},
{
closed = 1;
nodes = (
(359,-11,o),
(460,92,o),
(460,220,cs),
(460,351,o),
(359,454,o),
(230,454,cs),
(101,454,o),
(0,351,o),
(0,220,cs),
(0,92,o),
(101,-11,o),
(230,-11,cs)
);
},
{
closed = 1;
nodes = (
(122,14,o),
(80,104,o),
(80,220,cs),
(80,339,o),
(122,429,o),
(230,429,cs),
(338,429,o),
(380,339,o),
(380,220,cs),
(380,104,o),
(338,14,o),
(230,14,cs)
);
}
);
width = 460;
}
);
note = ohungarumlaut;
unicode = 337;
},
{
glyphname = omacron;
kernLeft = c;
kernRight = ae;
lastChange = "2022-11-17 08:20:49 +0000";
layers = (
{
layerId = m01;
shapes = (
{
closed = 1;
nodes = (
(116,594,l),
(343,594,l),
(343,634,l),
(116,634,l)
);
},
{
closed = 1;
nodes = (
(359,-11,o),
(460,92,o),
(460,220,cs),
(460,351,o),
(359,454,o),
(230,454,cs),
(101,454,o),
(0,351,o),
(0,220,cs),
(0,92,o),
(101,-11,o),
(230,-11,cs)
);
},
{
closed = 1;
nodes = (
(122,14,o),
(80,104,o),
(80,220,cs),
(80,339,o),
(122,429,o),
(230,429,cs),
(338,429,o),
(380,339,o),
(380,220,cs),
(380,104,o),
(338,14,o),
(230,14,cs)
);
}
);
width = 460;
}
);
note = omacron;
unicode = 333;
},
{
glyphname = oslash;
kernLeft = c;
kernRight = ae;
lastChange = "2022-11-17 08:20:49 +0000";
layers = (
{
layerId = m01;
shapes = (
{
closed = 1;
nodes = (
(0,-14,l),
(57,-14,l),
(102,35,l),
(140,6,o),
(188,-11,o),
(241,-11,cs),
(370,-11,o),
(471,92,o),
(471,220,cs),
(471,281,o),
(449,335,o),
(413,377,c),
(481,451,l),
(425,451,l),
(383,405,l),
(344,436,o),
(295,454,o),
(241,454,cs),
(112,454,o),
(11,351,o),
(11,220,cs),
(11,160,o),
(34,105,o),
(71,64,c)
);
},
{
closed = 1;
nodes = (
(91,339,o),
(133,429,o),
(241,429,cs),
(293,429,o),
(330,408,o),
(354,373,c),
(109,106,l),
(97,138,o),
(91,177,o),
(91,220,cs)
);
},
{
closed = 1;
nodes = (
(191,14,o),
(154,34,o),
(130,66,c),
(374,334,l),
(386,301,o),
(391,262,o),
(391,220,cs),
(391,104,o),
(349,14,o),
(241,14,cs)
);
}
);
width = 481;
}
);
note = oslash;
unicode = 248;
},
{
glyphname = otilde;
kernLeft = c;
kernRight = ae;
lastChange = "2022-11-17 08:20:49 +0000";
layers = (
{
layerId = m01;
shapes = (
{
closed = 1;
nodes = (
(346,546,o),
(380,585,o),
(387,645,c),
(368,645,l),
(359,617,o),
(341,594,o),
(314,594,cs),
(296,594,o),
(273,607,o),
(263,613,cs),
(226,635,ls),
(213,643,o),
(184,661,o),
(159,661,cs),
(98,661,o),
(73,586,o),
(73,557,c),
(92,557,l),
(98,581,o),
(122,613,o),
(151,613,cs),
(169,613,o),
(188,602,o),
(212,587,cs),
(238,571,ls),
(255,561,o),
(281,546,o),
(306,546,cs)
);
},
{
closed = 1;
nodes = (
(359,-11,o),
(460,92,o),
(460,220,cs),
(460,351,o),
(359,454,o),
(230,454,cs),
(101,454,o),
(0,351,o),
(0,220,cs),
(0,92,o),
(101,-11,o),
(230,-11,cs)
);
},
{
closed = 1;
nodes = (
(122,14,o),
(80,104,o),
(80,220,cs),
(80,339,o),
(122,429,o),
(230,429,cs),
(338,429,o),
(380,339,o),
(380,220,cs),
(380,104,o),
(338,14,o),
(230,14,cs)
);
}
);
width = 460;
}
);
note = otilde;
unicode = 245;
},
{
glyphname = oe;
kernLeft = c;
kernRight = ae;
lastChange = "2022-11-17 08:20:49 +0000";
layers = (
{
layerId = m01;
shapes = (
{
closed = 1;
nodes = (
(305,-11,o),
(371,24,o),
(413,79,c),
(450,23,o),
(514,-11,o),
(594,-11,cs),
(685,-11,o),
(744,31,o),
(772,115,c),
(748,124,l),
(721,54,o),
(670,19,o),
(608,19,cs),
(518,19,o),
(467,91,o),
(457,182,c),
(459,194,o),
(460,207,o),
(460,220,cs),
(460,229,o),
(460,237,o),
(459,245,c),
(758,245,l),
(759,249,o),
(761,260,o),
(761,276,cs),
(761,382,o),
(699,454,o),
(597,454,cs),
(524,454,o),
(458,417,o),
(418,357,c),
(376,416,o),
(308,454,o),
(230,454,cs),
(101,454,o),
(0,351,o),
(0,220,cs),
(0,92,o),
(101,-11,o),
(230,-11,cs)
);
},
{
closed = 1;
nodes = (
(122,14,o),
(80,104,o),
(80,220,cs),
(80,339,o),
(122,429,o),
(230,429,cs),
(327,429,o),
(370,357,o),
(379,257,c),
(376,242,o),
(375,227,o),
(375,212,cs),
(375,199,o),
(376,186,o),
(378,174,c),
(367,81,o),
(323,14,o),
(230,14,cs)
);
},
{
closed = 1;
nodes = (
(646,429,o),
(694,393,o),
(694,335,cs),
(694,305,o),
(675,268,o),
(585,268,cs),
(458,268,l),
(469,365,o),
(515,429,o),
(597,429,cs)
);
}
);
width = 772;
}
);
note = oe;
unicode = 339;
},
{
glyphname = p;
kernLeft = p;
kernRight = ae;
lastChange = "2022-11-17 08:20:49 +0000";
layers = (
{
layerId = m01;
shapes = (
{
closed = 1;
nodes = (
(0,-283,l),
(123,-280,l),
(246,-283,l),
(246,-260,l),
(230,-258,ls),
(172,-251,o),
(158,-249,o),
(158,-159,cs),
(158,46,l),
(188,16,o),
(237,-11,o),
(293,-11,cs),
(412,-11,o),
(500,91,o),
(500,220,cs),
(500,351,o),
(412,454,o),
(297,454,cs),
(236,454,o),
(188,425,o),
(151,383,c),
(158,451,l),
(103,441,o),
(55,436,o),
(0,436,c),
(0,413,l),
(54,413,o),
(88,407,o),
(88,335,cs),
(88,-159,ls),
(88,-249,o),
(74,-251,o),
(16,-258,cs),
(0,-260,l)
);
},
{
closed = 1;
nodes = (
(376,424,o),
(420,336,o),
(420,220,cs),
(420,106,o),
(376,19,o),
(284,19,cs),
(229,19,o),
(180,53,o),
(158,87,c),
(158,357,l),
(188,394,o),
(230,424,o),
(285,424,cs)
);
}
);
width = 500;
}
);
note = p;
unicode = 112;
},
{
glyphname = thorn;
lastChange = "2022-11-17 08:20:49 +0000";
layers = (
{
layerId = m01;
shapes = (
{
closed = 1;
nodes = (
(0,-283,l),
(123,-280,l),
(246,-283,l),
(246,-260,l),
(230,-258,ls),
(172,-251,o),
(158,-249,o),
(158,-159,cs),
(158,49,l),
(191,10,o),
(235,-11,o),
(290,-11,cs),
(412,-11,o),
(500,91,o),
(500,220,cs),
(500,351,o),
(412,454,o),
(290,454,cs),
(236,454,o),
(190,432,o),
(158,394,c),
(158,724,l),
(103,714,o),
(55,709,o),
(0,709,c),
(0,686,l),
(54,686,o),
(88,680,o),
(88,608,cs),
(88,-159,ls),
(88,-249,o),
(74,-251,o),
(16,-258,cs),
(0,-260,l)
);
},
{
closed = 1;
nodes = (
(376,429,o),
(420,339,o),
(420,220,cs),
(420,106,o),
(376,19,o),
(290,19,cs),
(232,19,o),
(187,47,o),
(158,90,c),
(158,357,l),
(188,400,o),
(233,429,o),
(290,429,cs)
);
}
);
width = 500;
}
);
note = thorn;
unicode = 254;
},
{
glyphname = q;
kernLeft = c;
kernRight = h;
lastChange = "2022-11-17 08:20:49 +0000";
layers = (
{
layerId = m01;
shapes = (
{
closed = 1;
nodes = (
(260,-11,o),
(307,14,o),
(342,52,c),
(342,-159,ls),
(342,-249,o),
(328,-251,o),
(270,-258,cs),
(254,-260,l),
(254,-283,l),
(377,-280,l),
(500,-283,l),
(500,-260,l),
(484,-258,ls),
(426,-251,o),
(412,-249,o),
(412,-159,cs),
(412,449,l),
(397,449,l),
(345,393,l),
(315,425,o),
(265,454,o),
(207,454,cs),
(88,454,o),
(0,352,o),
(0,223,cs),
(0,92,o),
(88,-11,o),
(203,-11,cs)
);
},
{
closed = 1;
nodes = (
(80,337,o),
(124,424,o),
(216,424,cs),
(271,424,o),
(320,390,o),
(342,356,c),
(342,86,l),
(312,49,o),
(270,19,o),
(213,19,cs),
(124,19,o),
(80,107,o),
(80,223,cs)
);
}
);
width = 500;
}
);
note = q;
unicode = 113;
},
{
glyphname = r;
kernLeft = i;
kernRight = r;
lastChange = "2022-11-17 08:20:49 +0000";
layers = (
{
layerId = m01;
shapes = (
{
closed = 1;
nodes = (
(0,-3,l),
(123,0,l),
(246,-3,l),
(246,20,l),
(230,22,ls),
(172,29,o),
(158,31,o),
(158,121,cs),
(158,279,l),
(165,315,o),
(176,346,o),
(188,371,cs),
(203,401,o),
(225,420,o),
(244,420,cs),
(252,420,o),
(258,417,o),
(258,410,cs),
(258,403,o),
(253,390,o),
(253,377,cs),
(253,360,o),
(268,344,o),
(296,344,cs),
(325,344,o),
(344,365,o),
(344,394,cs),
(344,419,o),
(330,454,o),
(274,454,cs),
(225,454,o),
(180,422,o),
(151,333,c),
(147,333,l),
(158,448,l),
(103,440,o),
(55,436,o),
(0,436,c),
(0,413,l),
(54,413,o),
(88,407,o),
(88,329,cs),
(88,121,ls),
(88,31,o),
(74,29,o),
(16,22,cs),
(0,20,l)
);
}
);
width = 344;
}
);
note = r;
unicode = 114;
},
{
glyphname = racute;
kernLeft = i;
kernRight = r;
lastChange = "2022-11-17 08:20:49 +0000";
layers = (
{
layerId = m01;
shapes = (
{
closed = 1;
nodes = (
(126,520,l),
(148,520,l),
(222,639,ls),
(232,655,o),
(239,672,o),
(239,688,cs),
(239,712,o),
(224,724,o),
(208,724,cs),
(192,724,o),
(176,710,o),
(165,668,cs)
);
},
{
closed = 1;
nodes = (
(0,-3,l),
(123,0,l),
(246,-3,l),
(246,20,l),
(230,22,ls),
(172,29,o),
(158,31,o),
(158,121,cs),
(158,279,l),
(165,315,o),
(176,346,o),
(188,371,cs),
(203,401,o),
(225,420,o),
(244,420,cs),
(252,420,o),
(258,417,o),
(258,410,cs),
(258,403,o),
(253,390,o),
(253,377,cs),
(253,360,o),
(268,344,o),
(296,344,cs),
(325,344,o),
(344,365,o),
(344,394,cs),
(344,419,o),
(330,454,o),
(274,454,cs),
(225,454,o),
(180,422,o),
(151,333,c),
(147,333,l),
(158,448,l),
(103,440,o),
(55,436,o),
(0,436,c),
(0,413,l),
(54,413,o),
(88,407,o),
(88,329,cs),
(88,121,ls),
(88,31,o),
(74,29,o),
(16,22,cs),
(0,20,l)
);
}
);
width = 344;
}
);
note = racute;
unicode = 341;
},
{
glyphname = rcaron;
kernLeft = i;
kernRight = r;
lastChange = "2022-11-17 08:20:49 +0000";
layers = (
{
layerId = m01;
shapes = (
{
closed = 1;
nodes = (
(57,711,l),
(151,521,l),
(173,521,l),
(267,711,l),
(243,711,l),
(165,613,l),
(159,613,l),
(81,711,l)
);
},
{
closed = 1;
nodes = (
(0,-3,l),
(123,0,l),
(246,-3,l),
(246,20,l),
(230,22,ls),
(172,29,o),
(158,31,o),
(158,121,cs),
(158,279,l),
(165,315,o),
(176,346,o),
(188,371,cs),
(203,401,o),
(225,420,o),
(244,420,cs),
(252,420,o),
(258,417,o),
(258,410,cs),
(258,403,o),
(253,390,o),
(253,377,cs),
(253,360,o),
(268,344,o),
(296,344,cs),
(325,344,o),
(344,365,o),
(344,394,cs),
(344,419,o),
(330,454,o),
(274,454,cs),
(225,454,o),
(180,422,o),
(151,333,c),
(147,333,l),
(158,448,l),
(103,440,o),
(55,436,o),
(0,436,c),
(0,413,l),
(54,413,o),
(88,407,o),
(88,329,cs),
(88,121,ls),
(88,31,o),
(74,29,o),
(16,22,cs),
(0,20,l)
);
}
);
width = 344;
}
);
note = rcaron;
unicode = 345;
},
{
glyphname = uni0157;
kernLeft = i;
kernRight = r;
lastChange = "2022-11-17 08:20:49 +0000";
layers = (
{
layerId = m01;
shapes = (
{
closed = 1;
nodes = (
(0,-3,l),
(123,0,l),
(246,-3,l),
(246,20,l),
(230,22,ls),
(172,29,o),
(158,31,o),
(158,121,cs),
(158,279,l),
(165,315,o),
(176,346,o),
(188,371,cs),
(203,401,o),
(225,420,o),
(244,420,cs),
(252,420,o),
(258,417,o),
(258,410,cs),
(258,403,o),
(253,390,o),
(253,377,cs),
(253,360,o),
(268,344,o),
(296,344,cs),
(325,344,o),
(344,365,o),
(344,394,cs),
(344,419,o),
(330,454,o),
(274,454,cs),
(225,454,o),
(180,422,o),
(151,333,c),
(147,333,l),
(158,448,l),
(103,440,o),
(55,436,o),
(0,436,c),
(0,413,l),
(54,413,o),
(88,407,o),
(88,329,cs),
(88,121,ls),
(88,31,o),
(74,29,o),
(16,22,cs),
(0,20,l)
);
},
{
closed = 1;
nodes = (
(115,-288,l),
(158,-260,o),
(190,-230,o),
(190,-169,cs),
(190,-119,o),
(166,-87,o),
(130,-87,cs),
(101,-87,o),
(81,-107,o),
(81,-136,cs),
(81,-163,o),
(99,-181,o),
(126,-181,cs),
(144,-181,o),
(161,-167,o),
(161,-153,cs),
(161,-146,o),
(158,-141,o),
(158,-138,c),
(158,-138,o),
(158,-137,o),
(159,-136,c),
(169,-132,o),
(174,-153,o),
(174,-171,cs),
(174,-218,o),
(141,-248,o),
(105,-273,c)
);
}
);
width = 344;
}
);
note = uni0157;
unicode = 343;
},
{
glyphname = s;
kernLeft = s;
kernRight = s;
lastChange = "2022-11-17 08:20:49 +0000";
layers = (
{
layerId = m01;
shapes = (
{
closed = 1;
nodes = (
(251,-11,o),
(301,51,o),
(301,122,cs),
(301,182,o),
(274,224,o),
(193,255,cs),
(154,270,ls),
(99,291,o),
(66,316,o),
(66,358,cs),
(66,401,o),
(100,432,o),
(144,432,cs),
(206,432,o),
(239,379,o),
(248,316,c),
(271,316,l),
(271,386,l),
(275,451,l),
(253,452,l),
(249,438,o),
(245,431,o),
(237,431,cs),
(233,431,o),
(228,432,o),
(220,436,cs),
(204,444,o),
(181,454,o),
(148,454,cs),
(78,454,o),
(15,404,o),
(15,325,cs),
(15,262,o),
(50,225,o),
(120,198,cs),
(156,184,ls),
(216,161,o),
(252,134,o),
(252,91,cs),
(252,42,o),
(215,12,o),
(161,12,cs),
(85,12,o),
(33,78,o),
(30,134,cs),
(29,151,l),
(7,151,l),
(4,66,l),
(0,0,l),
(23,0,l),
(27,19,o),
(29,21,o),
(35,21,cs),
(39,21,o),
(45,18,o),
(55,13,cs),
(75,4,o),
(110,-11,o),
(161,-11,cs)
);
}
);
width = 301;
}
);
note = s;
unicode = 115;
},
{
glyphname = sacute;
kernLeft = s;
kernRight = s;
lastChange = "2022-11-17 08:20:49 +0000";
layers = (
{
layerId = m01;
shapes = (
{
closed = 1;
nodes = (
(117,517,l),
(139,517,l),
(213,636,ls),
(223,652,o),
(230,669,o),
(230,685,cs),
(230,709,o),
(215,721,o),
(199,721,cs),
(183,721,o),
(167,707,o),
(156,665,cs)
);
},
{
closed = 1;
nodes = (
(251,-11,o),
(301,51,o),
(301,122,cs),
(301,182,o),
(274,224,o),
(193,255,cs),
(154,270,ls),
(99,291,o),
(66,316,o),
(66,358,cs),
(66,401,o),
(100,432,o),
(144,432,cs),
(206,432,o),
(239,379,o),
(248,316,c),
(271,316,l),
(271,386,l),
(275,451,l),
(253,452,l),
(249,438,o),
(245,431,o),
(237,431,cs),
(233,431,o),
(228,432,o),
(220,436,cs),
(204,444,o),
(181,454,o),
(148,454,cs),
(78,454,o),
(15,404,o),
(15,325,cs),
(15,262,o),
(50,225,o),
(120,198,cs),
(156,184,ls),
(216,161,o),
(252,134,o),
(252,91,cs),
(252,42,o),
(215,12,o),
(161,12,cs),
(85,12,o),
(33,78,o),
(30,134,cs),
(29,151,l),
(7,151,l),
(4,66,l),
(0,0,l),
(23,0,l),
(27,19,o),
(29,21,o),
(35,21,cs),
(39,21,o),
(45,18,o),
(55,13,cs),
(75,4,o),
(110,-11,o),
(161,-11,cs)
);
}
);
width = 301;
}
);
note = sacute;
unicode = 347;
},
{
glyphname = scaron;
kernLeft = s;
kernRight = s;
lastChange = "2022-11-17 08:20:49 +0000";
layers = (
{
layerId = m01;
shapes = (
{
closed = 1;
nodes = (
(48,708,l),
(142,518,l),
(164,518,l),
(258,708,l),
(234,708,l),
(156,610,l),
(150,610,l),
(72,708,l)
);
},
{
closed = 1;
nodes = (
(251,-11,o),
(301,51,o),
(301,122,cs),
(301,182,o),
(274,224,o),
(193,255,cs),
(154,270,ls),
(99,291,o),
(66,316,o),
(66,358,cs),
(66,401,o),
(100,432,o),
(144,432,cs),
(206,432,o),
(239,379,o),
(248,316,c),
(271,316,l),
(271,386,l),
(275,451,l),
(253,452,l),
(249,438,o),
(245,431,o),
(237,431,cs),
(233,431,o),
(228,432,o),
(220,436,cs),
(204,444,o),
(181,454,o),
(148,454,cs),
(78,454,o),
(15,404,o),
(15,325,cs),
(15,262,o),
(50,225,o),
(120,198,cs),
(156,184,ls),
(216,161,o),
(252,134,o),
(252,91,cs),
(252,42,o),
(215,12,o),
(161,12,cs),
(85,12,o),
(33,78,o),
(30,134,cs),
(29,151,l),
(7,151,l),
(4,66,l),
(0,0,l),
(23,0,l),
(27,19,o),
(29,21,o),
(35,21,cs),
(39,21,o),
(45,18,o),
(55,13,cs),
(75,4,o),
(110,-11,o),
(161,-11,cs)
);
}
);
width = 301;
}
);
note = scaron;
unicode = 353;
},
